<svg xmlns="http://www.w3.org/2000/svg" xlink="http://www.w3.org/1999/xlink" width="0" height="0" style="display:none;"><symbol viewBox="0 0 24 24" id="shopping-basket-fill"><path fill="none" d="M0 0h24v24H0z"/><path d="M12 2a6 6 0 0 1 6 6v1h4v2h-1.167l-.757 9.083a1 1 0 0 1-.996.917H4.92a1 1 0 0 1-.996-.917L3.166 11H2V9h4V8a6 6 0 0 1 6-6zm1 11h-2v4h2v-4zm-4 0H7v4h2v-4zm8 0h-2v4h2v-4zm-5-9a4 4 0 0 0-3.995 3.8L8 8v1h8V8a4 4 0 0 0-3.8-3.995L12 4z"/></symbol><symbol viewBox="0 0 24 24" id="shopping-cart-2-fill"><path fill="none" d="M0 0h24v24H0z"/><path d="M4 6.414L.757 3.172l1.415-1.415L5.414 5h15.242a1 1 0 0 1 .958 1.287l-2.4 8a1 1 0 0 1-.958.713H6v2h11v2H5a1 1 0 0 1-1-1V6.414zM5.5 23a1.5 1.5 0 1 1 0-3 1.5 1.5 0 0 1 0 3zm12 0a1.5 1.5 0 1 1 0-3 1.5 1.5 0 0 1 0 3z"/></symbol><symbol viewBox="0 0 24 24" id="arrow-right-s-fill"><path fill="none" d="M0 0h24v24H0z"/><path d="M16 12l-6 6V6z"/></symbol><symbol viewBox="0 0 24 24" id="arrow-left-s-fill"><path fill="none" d="M0 0h24v24H0z"/><path d="M8 12l6-6v12z"/></symbol><symbol viewBox="0 0 24 24" id="arrow-right-line"><path fill="none" d="M0 0h24v24H0z"/><path d="M16.172 11l-5.364-5.364 1.414-1.414L20 12l-7.778 7.778-1.414-1.414L16.172 13H4v-2z"/></symbol><symbol viewBox="0 0 24 24" id="shopping-cart-2-line"><path fill="none" d="M0 0h24v24H0z"/><path d="M4 6.414L.757 3.172l1.415-1.415L5.414 5h15.242a1 1 0 0 1 .958 1.287l-2.4 8a1 1 0 0 1-.958.713H6v2h11v2H5a1 1 0 0 1-1-1V6.414zM6 7v6h11.512l1.8-6H6zm-.5 16a1.5 1.5 0 1 1 0-3 1.5 1.5 0 0 1 0 3zm12 0a1.5 1.5 0 1 1 0-3 1.5 1.5 0 0 1 0 3z"/></symbol><symbol viewBox="0 0 24 24" id="heart-line"><path fill="none" d="M0 0H24V24H0z"/><path d="M12.001 4.529c2.349-2.109 5.979-2.039 8.242.228 2.262 2.268 2.34 5.88.236 8.236l-8.48 8.492-8.478-8.492c-2.104-2.356-2.025-5.974.236-8.236 2.265-2.264 5.888-2.34 8.244-.228zm6.826 1.641c-1.5-1.502-3.92-1.563-5.49-.153l-1.335 1.198-1.336-1.197c-1.575-1.412-3.99-1.35-5.494.154-1.49 1.49-1.565 3.875-.192 5.451L12 18.654l7.02-7.03c1.374-1.577 1.299-3.959-.193-5.454z"/></symbol><symbol viewBox="0 0 24 24" id="heart-fill"><path fill="none" d="M0 0H24V24H0z"/><path d="M12.001 4.529c2.349-2.109 5.979-2.039 8.242.228 2.262 2.268 2.34 5.88.236 8.236l-8.48 8.492-8.478-8.492c-2.104-2.356-2.025-5.974.236-8.236 2.265-2.264 5.888-2.34 8.244-.228z"/></symbol><symbol viewBox="0 0 24 24" id="instagram-line"><path fill="none" d="M0 0h24v24H0z"/><path d="M12 9a3 3 0 1 0 0 6 3 3 0 0 0 0-6zm0-2a5 5 0 1 1 0 10 5 5 0 0 1 0-10zm6.5-.25a1.25 1.25 0 0 1-2.5 0 1.25 1.25 0 0 1 2.5 0zM12 4c-2.474 0-2.878.007-4.029.058-.784.037-1.31.142-1.798.332-.434.168-.747.369-1.08.703a2.89 2.89 0 0 0-.704 1.08c-.19.49-.295 1.015-.331 1.798C4.006 9.075 4 9.461 4 12c0 2.474.007 2.878.058 4.029.037.783.142 1.31.331 1.797.17.435.37.748.702 1.08.337.336.65.537 1.08.703.494.191 1.02.297 1.8.333C9.075 19.994 9.461 20 12 20c2.474 0 2.878-.007 4.029-.058.782-.037 1.309-.142 1.797-.331.433-.169.748-.37 1.08-.702.337-.337.538-.65.704-1.08.19-.493.296-1.02.332-1.8.052-1.104.058-1.49.058-4.029 0-2.474-.007-2.878-.058-4.029-.037-.782-.142-1.31-.332-1.798a2.911 2.911 0 0 0-.703-1.08 2.884 2.884 0 0 0-1.08-.704c-.49-.19-1.016-.295-1.798-.331C14.925 4.006 14.539 4 12 4zm0-2c2.717 0 3.056.01 4.122.06 1.065.05 1.79.217 2.428.465.66.254 1.216.598 1.772 1.153a4.908 4.908 0 0 1 1.153 1.772c.247.637.415 1.363.465 2.428.047 1.066.06 1.405.06 4.122 0 2.717-.01 3.056-.06 4.122-.05 1.065-.218 1.79-.465 2.428a4.883 4.883 0 0 1-1.153 1.772 4.915 4.915 0 0 1-1.772 1.153c-.637.247-1.363.415-2.428.465-1.066.047-1.405.06-4.122.06-2.717 0-3.056-.01-4.122-.06-1.065-.05-1.79-.218-2.428-.465a4.89 4.89 0 0 1-1.772-1.153 4.904 4.904 0 0 1-1.153-1.772c-.248-.637-.415-1.363-.465-2.428C2.013 15.056 2 14.717 2 12c0-2.717.01-3.056.06-4.122.05-1.066.217-1.79.465-2.428a4.88 4.88 0 0 1 1.153-1.772A4.897 4.897 0 0 1 5.45 2.525c.638-.248 1.362-.415 2.428-.465C8.944 2.013 9.283 2 12 2z"/></symbol><symbol viewBox="0 0 24 24" id="telegram-line"><path fill="none" d="M0 0h24v24H0z"/><path d="M12 20a8 8 0 1 0 0-16 8 8 0 0 0 0 16zm0 2C6.477 22 2 17.523 2 12S6.477 2 12 2s10 4.477 10 10-4.477 10-10 10zm-3.11-8.83l-2.498-.779c-.54-.165-.543-.537.121-.804l9.733-3.76c.565-.23.885.061.702.79l-1.657 7.82c-.116.557-.451.69-.916.433l-2.551-1.888-1.189 1.148c-.122.118-.221.219-.409.244-.187.026-.341-.03-.454-.34l-.87-2.871-.012.008z"/></symbol><symbol viewBox="0 0 24 24" id="pinterest-line"><path fill="none" d="M0 0h24v24H0z"/><path d="M8.49 19.191c.024-.336.072-.671.144-1.001.063-.295.254-1.13.534-2.34l.007-.03.387-1.668c.079-.34.14-.604.181-.692a3.46 3.46 0 0 1-.284-1.423c0-1.337.756-2.373 1.736-2.373.36-.006.704.15.942.426.238.275.348.644.302.996 0 .453-.085.798-.453 2.035-.071.238-.12.404-.166.571-.051.188-.095.358-.132.522-.096.386-.008.797.237 1.106a1.2 1.2 0 0 0 1.006.456c1.492 0 2.6-1.985 2.6-4.548 0-1.97-1.29-3.274-3.432-3.274A3.878 3.878 0 0 0 9.2 9.1a4.13 4.13 0 0 0-1.195 2.961 2.553 2.553 0 0 0 .512 1.644c.181.14.25.383.175.59-.041.168-.14.552-.176.68a.41.41 0 0 1-.216.297.388.388 0 0 1-.355.002c-1.16-.479-1.796-1.778-1.796-3.44 0-2.985 2.491-5.584 6.192-5.584 3.135 0 5.481 2.329 5.481 5.14 0 3.532-1.932 6.104-4.69 6.104a2.508 2.508 0 0 1-2.046-.959l-.043.177-.207.852-.002.007c-.146.6-.248 1.017-.288 1.174-.106.355-.24.703-.4 1.04a8 8 0 1 0-1.656-.593zM12 22C6.477 22 2 17.523 2 12S6.477 2 12 2s10 4.477 10 10-4.477 10-10 10z"/></symbol><symbol viewBox="0 0 24 24" id="twitter-line"><path fill="none" d="M0 0h24v24H0z"/><path d="M15.3 5.55a2.9 2.9 0 0 0-2.9 2.847l-.028 1.575a.6.6 0 0 1-.68.583l-1.561-.212c-2.054-.28-4.022-1.226-5.91-2.799-.598 3.31.57 5.603 3.383 7.372l1.747 1.098a.6.6 0 0 1 .034.993L7.793 18.17c.947.059 1.846.017 2.592-.131 4.718-.942 7.855-4.492 7.855-10.348 0-.478-1.012-2.141-2.94-2.141zm-4.9 2.81a4.9 4.9 0 0 1 8.385-3.355c.711-.005 1.316.175 2.669-.645-.335 1.64-.5 2.352-1.214 3.331 0 7.642-4.697 11.358-9.463 12.309-3.268.652-8.02-.419-9.382-1.841.694-.054 3.514-.357 5.144-1.55C5.16 15.7-.329 12.47 3.278 3.786c1.693 1.977 3.41 3.323 5.15 4.037 1.158.475 1.442.465 1.973.538z"/></symbol><symbol viewBox="0 0 24 24" id="user-line"><path fill="none" d="M0 0h24v24H0z"/><path d="M4 22a8 8 0 1 1 16 0h-2a6 6 0 1 0-12 0H4zm8-9c-3.315 0-6-2.685-6-6s2.685-6 6-6 6 2.685 6 6-2.685 6-6 6zm0-2c2.21 0 4-1.79 4-4s-1.79-4-4-4-4 1.79-4 4 1.79 4 4 4z"/></symbol><symbol viewBox="0 0 24 24" id="arrow-left-line"><path fill="none" d="M0 0h24v24H0z"/><path d="M7.828 11H20v2H7.828l5.364 5.364-1.414 1.414L4 12l7.778-7.778 1.414 1.414z"/></symbol><symbol viewBox="0 0 24 24" id="arrow-left-s-line"><path fill="none" d="M0 0h24v24H0z"/><path d="M10.828 12l4.95 4.95-1.414 1.414L8 12l6.364-6.364 1.414 1.414z"/></symbol><symbol viewBox="0 0 24 24" id="close-fill"><path fill="none" d="M0 0h24v24H0z"/><path d="M12 10.586l4.95-4.95 1.414 1.414-4.95 4.95 4.95 4.95-1.414 1.414-4.95-4.95-4.95 4.95-1.414-1.414 4.95-4.95-4.95-4.95L7.05 5.636z"/></symbol><symbol viewBox="0 0 24 24" id="dashboard-line"><path fill="none" d="M0 0h24v24H0z"/><path d="M13 21V11h8v10h-8zM3 13V3h8v10H3zm6-2V5H5v6h4zM3 21v-6h8v6H3zm2-2h4v-2H5v2zm10 0h4v-6h-4v6zM13 3h8v6h-8V3zm2 2v2h4V5h-4z"/></symbol><symbol viewBox="0 0 24 24" id="login-circle-line"><path fill="none" d="M0 0h24v24H0z"/><path d="M10 11V8l5 4-5 4v-3H1v-2h9zm-7.542 4h2.124A8.003 8.003 0 0 0 20 12 8 8 0 0 0 4.582 9H2.458C3.732 4.943 7.522 2 12 2c5.523 0 10 4.477 10 10s-4.477 10-10 10c-4.478 0-8.268-2.943-9.542-7z"/></symbol></svg>