<?xml version="1.0" encoding="utf-8"?>
<svg id="master-artboard" viewBox="0 0 1422.50830078125 38.62321090698242" version="1.1" xmlns="http://www.w3.org/2000/svg" x="0px" y="0px" style="enable-background:new 0 0 336 235.2;" width="1422.50830078125px" height="38.62321090698242px"><rect id="ee-background" x="0" y="0" width="1422.50830078125" height="38.62321090698242" style="fill: rgb(255, 158, 231); fill-opacity: 0; pointer-events: none;"/>














<g transform="matrix(1.4271152019500732, 0, 0, 1.4271152019500732, 19.591022491455078, 1.9142532348632812)"><g id="Group_46" data-name="Group 46" transform="translate(-992 -1100)">
    <g id="Group_8" data-name="Group 8" transform="translate(726)">
      <g id="Group_7" data-name="Group 7" transform="translate(624)">
        <text id="تحویل_در_تمامی_نقاط_دنیا" data-name="تحویل در تمامی نقاط دنیا" transform="translate(-175 1117)" fill="#fff" font-size="20" font-family="Aria-SemiBold, Aria" font-weight="600" style="fill: rgb(255, 255, 255); font-size: 20px; font-family: Aria-SemiBold, Aria; font-weight: 600; white-space: pre;"><tspan x="0" y="0">تحویل در تمامی نقاط دنیا</tspan></text>
        <text id="تحویل_رایگان_برای_خرید_های_بالای_صد_هزار_تومان" data-name="تحویل رایگان برای خرید های بالای صد هزار تومان" transform="translate(42 1117)" fill="#fff" font-size="20" font-family="Aria-Normal, Aria" style="fill: rgb(255, 255, 255); font-size: 20px; font-weight: normal; font-family: Aria, Aria; white-space: pre;"><tspan x="0" y="0">تحویل رایگان برای خرید های بالای صد هزار تومان</tspan></text>
        <text id="پشتیبانی_24_ساعته" data-name="پشتیبانی 24 ساعته" transform="translate(-341 1117)" fill="#fff" font-size="20" font-family="Aria-Normal, Aria" style="fill: rgb(255, 255, 255); font-size: 20px; font-weight: normal; font-family: Aria, Aria; white-space: pre;"><tspan x="0" y="0"> ساعته</tspan><tspan y="0">24</tspan><tspan y="0">پشتیبانی </tspan></text>
        <text id="هفت_روز_ضمانت_برگشت_کالا" data-name="هفت روز ضمانت برگشت کالا" transform="translate(414 1117)" fill="#fff" font-size="20" font-family="Aria-SemiBold, Aria" font-weight="600" style="fill: rgb(255, 255, 255); font-size: 20px; font-family: Aria-SemiBold, Aria; font-weight: 600; white-space: pre;"><tspan x="0" y="0">هفت روز ضمانت برگشت کالا</tspan></text>
        <path d="M 6 3 A 3 3 0 0 1 3 6 A 3 3 0 0 1 0 3 A 3 3 0 0 1 3 0 A 3 3 0 0 1 6 3 Z" id="Ellipse_1" data-name="Ellipse 1" transform="translate(25 1111)" fill="#fff"/>
        <path d="M 6 3 A 3 3 0 0 1 3 6 A 3 3 0 0 1 0 3 A 3 3 0 0 1 3 0 A 3 3 0 0 1 6 3 Z" id="Ellipse_4" data-name="Ellipse 4" transform="translate(-358 1111)" fill="#fff"/>
        <path d="M 6 3 A 3 3 0 0 1 3 6 A 3 3 0 0 1 0 3 A 3 3 0 0 1 3 0 A 3 3 0 0 1 6 3 Z" id="Ellipse_2" data-name="Ellipse 2" transform="translate(397 1111)" fill="#fff"/>
        <path d="M 6 3 A 3 3 0 0 1 3 6 A 3 3 0 0 1 0 3 A 3 3 0 0 1 3 0 A 3 3 0 0 1 6 3 Z" id="Ellipse_3" data-name="Ellipse 3" transform="translate(-193 1111)" fill="#fff"/>
      </g>
    </g>
  </g></g></svg>