<?xml version="1.0" encoding="utf-8"?>
<!-- Generator: Adobe Illustrator 24.3.0, SVG Export Plug-In . SVG Version: 6.00 Build 0)  -->
<svg version="1.1" id="Layer_1" xmlns="http://www.w3.org/2000/svg" xmlns:xlink="http://www.w3.org/1999/xlink" x="0px" y="0px"
	 viewBox="0 0 1261 24" style="enable-background:new 0 0 1261 24;" xml:space="preserve">
<style type="text/css">
	.st0{enable-background:new    ;}
	.st1{fill:#FFFFFF;}
</style>
<g id="Group_9" transform="translate(-53 -1099)">
	<g id="Group_6">
		<g class="st0">
			<path class="st1" d="M86.1,1118.8l-2.6-13.6v0c0-0.1,0.1-0.2,0.2-0.2h1.1c0.1,0,0.2,0.1,0.2,0.2l1.9,10.5c0,0,0,0,0,0s0,0,0,0
				l1.6-10.5c0-0.1,0.1-0.2,0.2-0.2h0.9c0.1,0,0.2,0.1,0.2,0.2l1.7,10.5c0,0,0,0,0,0c0,0,0,0,0,0l1.7-10.5c0-0.1,0.1-0.2,0.2-0.2
				h1.1c0.1,0,0.1,0,0.1,0.1c0,0,0,0.1,0,0.2l-2.5,13.6c0,0.1-0.1,0.2-0.2,0.2h-1c-0.1,0-0.2-0.1-0.2-0.2l-1.7-10.6c0,0,0,0,0,0
				s0,0,0,0l-1.6,10.6c0,0.1-0.1,0.2-0.2,0.2h-1C86.2,1119,86.1,1118.9,86.1,1118.8z"/>
			<path class="st1" d="M98.4,1118.2c-0.6-0.6-0.9-1.5-0.9-2.5v-7.3c0-1.1,0.3-1.9,0.9-2.5c0.6-0.6,1.5-1,2.5-1c1,0,1.9,0.3,2.5,1
				c0.6,0.6,1,1.5,1,2.5v7.3c0,1-0.3,1.9-1,2.5c-0.6,0.6-1.5,1-2.5,1C99.8,1119.2,99,1118.8,98.4,1118.2z M102.4,1117.3
				c0.4-0.4,0.6-0.9,0.6-1.6v-7.5c0-0.7-0.2-1.2-0.6-1.6c-0.4-0.4-0.9-0.6-1.5-0.6c-0.6,0-1.1,0.2-1.5,0.6c-0.4,0.4-0.6,0.9-0.6,1.6
				v7.5c0,0.6,0.2,1.2,0.6,1.6c0.4,0.4,0.9,0.6,1.5,0.6C101.5,1117.9,102,1117.7,102.4,1117.3z"/>
			<path class="st1" d="M113.4,1118.8l-2-6.2c0,0,0-0.1-0.1-0.1h-1.7c-0.1,0-0.1,0-0.1,0.1v6.1c0,0.1-0.1,0.2-0.2,0.2h-1
				c-0.1,0-0.2-0.1-0.2-0.2v-13.6c0-0.1,0.1-0.2,0.2-0.2h3.3c1,0,1.8,0.4,2.4,1.1c0.6,0.7,0.9,1.6,0.9,2.8c0,0.9-0.2,1.6-0.6,2.2
				c-0.4,0.6-0.9,1.1-1.5,1.3c-0.1,0-0.1,0-0.1,0.1l2.2,6.3l0,0.1c0,0.1-0.1,0.1-0.2,0.1h-1C113.5,1119,113.5,1118.9,113.4,1118.8z
				 M109.5,1106.3v5.1c0,0.1,0,0.1,0.1,0.1h1.8c0.6,0,1.1-0.2,1.5-0.7c0.4-0.5,0.6-1.1,0.6-1.9c0-0.8-0.2-1.4-0.6-1.9
				c-0.4-0.5-0.9-0.7-1.5-0.7L109.5,1106.3C109.5,1106.2,109.5,1106.3,109.5,1106.3z"/>
			<path class="st1" d="M118.1,1118.8v-13.6c0-0.1,0.1-0.2,0.2-0.2h1c0.1,0,0.2,0.1,0.2,0.2v12.5c0,0.1,0,0.1,0.1,0.1h4.6
				c0.1,0,0.2,0.1,0.2,0.2v0.8c0,0.1-0.1,0.2-0.2,0.2h-5.9C118.2,1119,118.1,1118.9,118.1,1118.8z"/>
			<path class="st1" d="M127.2,1118.8v-13.6c0-0.1,0.1-0.2,0.2-0.2h3.1c1,0,1.8,0.3,2.5,1c0.6,0.7,0.9,1.6,0.9,2.7v6.6
				c0,1.1-0.3,2-0.9,2.7c-0.6,0.7-1.4,1-2.5,1h-3.1C127.3,1119,127.2,1118.9,127.2,1118.8z M128.7,1117.8l1.8,0
				c0.6,0,1.1-0.2,1.4-0.7c0.4-0.5,0.5-1.1,0.6-1.8v-6.4c0-0.8-0.2-1.4-0.5-1.9c-0.3-0.5-0.8-0.7-1.4-0.7h-1.8c-0.1,0-0.1,0-0.1,0.1
				L128.7,1117.8C128.6,1117.7,128.6,1117.8,128.7,1117.8z"/>
			<path class="st1" d="M139.1,1118.8l-2.6-13.6v0c0-0.1,0.1-0.2,0.2-0.2h1.1c0.1,0,0.2,0.1,0.2,0.2l1.9,10.5c0,0,0,0,0,0s0,0,0,0
				l1.6-10.5c0-0.1,0.1-0.2,0.2-0.2h0.9c0.1,0,0.2,0.1,0.2,0.2l1.7,10.5c0,0,0,0,0,0c0,0,0,0,0,0l1.7-10.5c0-0.1,0.1-0.2,0.2-0.2
				h1.1c0.1,0,0.1,0,0.1,0.1c0,0,0,0.1,0,0.2l-2.5,13.6c0,0.1-0.1,0.2-0.2,0.2h-1c-0.1,0-0.2-0.1-0.2-0.2l-1.7-10.6c0,0,0,0,0,0
				s0,0,0,0l-1.6,10.6c0,0.1-0.1,0.2-0.2,0.2h-1C139.2,1119,139.2,1118.9,139.1,1118.8z"/>
			<path class="st1" d="M151,1118.8v-13.6c0-0.1,0.1-0.2,0.2-0.2h1c0.1,0,0.2,0.1,0.2,0.2v13.6c0,0.1-0.1,0.2-0.2,0.2h-1
				C151.1,1119,151,1118.9,151,1118.8z"/>
			<path class="st1" d="M156.5,1118.8v-13.6c0-0.1,0.1-0.2,0.2-0.2h3.1c1,0,1.8,0.3,2.5,1c0.6,0.7,0.9,1.6,0.9,2.7v6.6
				c0,1.1-0.3,2-0.9,2.7c-0.6,0.7-1.4,1-2.5,1h-3.1C156.5,1119,156.5,1118.9,156.5,1118.8z M158,1117.8l1.8,0c0.6,0,1.1-0.2,1.4-0.7
				c0.4-0.5,0.5-1.1,0.6-1.8v-6.4c0-0.8-0.2-1.4-0.5-1.9c-0.3-0.5-0.8-0.7-1.4-0.7H158c-0.1,0-0.1,0-0.1,0.1L158,1117.8
				C157.9,1117.7,157.9,1117.8,158,1117.8z"/>
			<path class="st1" d="M173,1106.2h-4.6c-0.1,0-0.1,0-0.1,0.1v5c0,0.1,0,0.1,0.1,0.1h2.9c0.1,0,0.2,0.1,0.2,0.2v0.9
				c0,0.1-0.1,0.2-0.2,0.2h-2.9c-0.1,0-0.1,0-0.1,0.1v5c0,0.1,0,0.1,0.1,0.1h4.6c0.1,0,0.2,0.1,0.2,0.2v0.8c0,0.1-0.1,0.2-0.2,0.2
				H167c-0.1,0-0.2-0.1-0.2-0.2v-13.6c0-0.1,0.1-0.2,0.2-0.2h5.9c0.1,0,0.2,0.1,0.2,0.2v0.8C173.2,1106.2,173.1,1106.2,173,1106.2z"
				/>
			<path class="st1" d="M181.8,1118.8v-13.6c0-0.1,0.1-0.2,0.2-0.2h3.1c1,0,1.8,0.3,2.5,1c0.6,0.7,0.9,1.6,0.9,2.7v6.6
				c0,1.1-0.3,2-0.9,2.7c-0.6,0.7-1.4,1-2.5,1H182C181.8,1119,181.8,1118.9,181.8,1118.8z M183.3,1117.8l1.8,0
				c0.6,0,1.1-0.2,1.4-0.7c0.4-0.5,0.5-1.1,0.6-1.8v-6.4c0-0.8-0.2-1.4-0.5-1.9c-0.3-0.5-0.8-0.7-1.4-0.7h-1.8c-0.1,0-0.1,0-0.1,0.1
				L183.3,1117.8C183.2,1117.7,183.2,1117.8,183.3,1117.8z"/>
			<path class="st1" d="M198.2,1106.2h-4.6c-0.1,0-0.1,0-0.1,0.1v5c0,0.1,0,0.1,0.1,0.1h2.9c0.1,0,0.2,0.1,0.2,0.2v0.9
				c0,0.1-0.1,0.2-0.2,0.2h-2.9c-0.1,0-0.1,0-0.1,0.1v5c0,0.1,0,0.1,0.1,0.1h4.6c0.1,0,0.2,0.1,0.2,0.2v0.8c0,0.1-0.1,0.2-0.2,0.2
				h-5.9c-0.1,0-0.2-0.1-0.2-0.2v-13.6c0-0.1,0.1-0.2,0.2-0.2h5.9c0.1,0,0.2,0.1,0.2,0.2v0.8
				C198.4,1106.2,198.4,1106.2,198.2,1106.2z"/>
			<path class="st1" d="M201.9,1118.8v-13.6c0-0.1,0.1-0.2,0.2-0.2h1c0.1,0,0.2,0.1,0.2,0.2v12.5c0,0.1,0,0.1,0.1,0.1h4.6
				c0.1,0,0.2,0.1,0.2,0.2v0.8c0,0.1-0.1,0.2-0.2,0.2h-5.9C201.9,1119,201.9,1118.9,201.9,1118.8z"/>
			<path class="st1" d="M211,1118.8v-13.6c0-0.1,0.1-0.2,0.2-0.2h1c0.1,0,0.2,0.1,0.2,0.2v13.6c0,0.1-0.1,0.2-0.2,0.2h-1
				C211,1119,211,1118.9,211,1118.8z"/>
			<path class="st1" d="M218.6,1118.8l-2.9-13.6v0c0-0.1,0.1-0.2,0.2-0.2h1.1c0.1,0,0.2,0.1,0.2,0.2l2.2,11.2c0,0,0,0,0,0s0,0,0,0
				l2.1-11.2c0-0.1,0.1-0.2,0.2-0.2h1.1c0.1,0,0.2,0.1,0.2,0.2l-2.9,13.6c0,0.1-0.1,0.2-0.2,0.2h-1.1
				C218.7,1119,218.6,1118.9,218.6,1118.8z"/>
			<path class="st1" d="M232.5,1106.2h-4.6c-0.1,0-0.1,0-0.1,0.1v5c0,0.1,0,0.1,0.1,0.1h2.9c0.1,0,0.2,0.1,0.2,0.2v0.9
				c0,0.1-0.1,0.2-0.2,0.2h-2.9c-0.1,0-0.1,0-0.1,0.1v5c0,0.1,0,0.1,0.1,0.1h4.6c0.1,0,0.2,0.1,0.2,0.2v0.8c0,0.1-0.1,0.2-0.2,0.2
				h-5.9c-0.1,0-0.2-0.1-0.2-0.2v-13.6c0-0.1,0.1-0.2,0.2-0.2h5.9c0.1,0,0.2,0.1,0.2,0.2v0.8
				C232.7,1106.2,232.7,1106.2,232.5,1106.2z"/>
			<path class="st1" d="M241.5,1118.8l-2-6.2c0,0,0-0.1-0.1-0.1h-1.7c-0.1,0-0.1,0-0.1,0.1v6.1c0,0.1-0.1,0.2-0.2,0.2h-1
				c-0.1,0-0.2-0.1-0.2-0.2v-13.6c0-0.1,0.1-0.2,0.2-0.2h3.3c1,0,1.8,0.4,2.4,1.1c0.6,0.7,0.9,1.6,0.9,2.8c0,0.9-0.2,1.6-0.6,2.2
				c-0.4,0.6-0.9,1.1-1.5,1.3c-0.1,0-0.1,0-0.1,0.1l2.2,6.3l0,0.1c0,0.1-0.1,0.1-0.2,0.1h-1C241.6,1119,241.6,1118.9,241.5,1118.8z
				 M237.6,1106.3v5.1c0,0.1,0,0.1,0.1,0.1h1.8c0.6,0,1.1-0.2,1.5-0.7c0.4-0.5,0.6-1.1,0.6-1.9c0-0.8-0.2-1.4-0.6-1.9
				c-0.4-0.5-0.9-0.7-1.5-0.7L237.6,1106.3C237.6,1106.2,237.6,1106.3,237.6,1106.3z"/>
			<path class="st1" d="M248.1,1118.8v-6c0-0.1,0-0.1,0-0.1l-2.8-7.5l0-0.1c0-0.1,0.1-0.2,0.2-0.2h1.1c0.1,0,0.2,0.1,0.2,0.2l2,5.9
				c0,0,0,0,0.1,0c0,0,0,0,0.1,0l2-5.9c0-0.1,0.1-0.2,0.2-0.2h1.1c0.1,0,0.1,0,0.1,0.1s0,0.1,0,0.2l-2.8,7.5c0,0,0,0,0,0.1v6
				c0,0.1-0.1,0.2-0.2,0.2h-1C248.1,1119,248.1,1118.9,248.1,1118.8z"/>
		</g>
		<g class="st0">
			<path class="st1" d="M291.1,1105.6h-4.8c-0.1,0-0.1,0-0.1,0.1v6c0,0.1,0,0.1,0.1,0.1h3.2c0.1,0,0.2,0.1,0.2,0.2v0.1
				c0,0.1-0.1,0.2-0.2,0.2h-3.2c-0.1,0-0.1,0-0.1,0.1v6.5c0,0.1-0.1,0.2-0.2,0.2h-0.2c-0.1,0-0.2-0.1-0.2-0.2v-13.6
				c0-0.1,0.1-0.2,0.2-0.2h5.3c0.1,0,0.2,0.1,0.2,0.2v0.2C291.3,1105.5,291.3,1105.6,291.1,1105.6z"/>
			<path class="st1" d="M300.1,1118.8l-2.4-6.5c0,0,0-0.1-0.1-0.1h-2.3c-0.1,0-0.1,0-0.1,0.1v6.5c0,0.1-0.1,0.2-0.2,0.2h-0.2
				c-0.1,0-0.2-0.1-0.2-0.2v-13.6c0-0.1,0.1-0.2,0.2-0.2h2.8c0.9,0,1.6,0.3,2.2,1s0.8,1.5,0.8,2.6c0,0.9-0.2,1.7-0.6,2.4
				c-0.4,0.6-1,1-1.7,1.2c-0.1,0-0.1,0.1-0.1,0.1l2.4,6.5l0,0.1c0,0.1-0.1,0.1-0.2,0.1h-0.2C300.2,1119,300.2,1118.9,300.1,1118.8z
				 M295.3,1105.6v6c0,0.1,0,0.1,0.1,0.1h2.3c0.7,0,1.3-0.3,1.7-0.8c0.4-0.6,0.7-1.3,0.7-2.2s-0.2-1.7-0.7-2.2
				c-0.4-0.6-1-0.9-1.7-0.9L295.3,1105.6C295.3,1105.6,295.3,1105.6,295.3,1105.6z"/>
			<path class="st1" d="M310,1105.6h-4.9c-0.1,0-0.1,0-0.1,0.1v6c0,0.1,0,0.1,0.1,0.1h3.2c0.1,0,0.2,0.1,0.2,0.2v0.1
				c0,0.1-0.1,0.2-0.2,0.2h-3.2c-0.1,0-0.1,0-0.1,0.1v6c0,0.1,0,0.1,0.1,0.1h4.9c0.1,0,0.2,0.1,0.2,0.2v0.2c0,0.1-0.1,0.2-0.2,0.2
				h-5.4c-0.1,0-0.2-0.1-0.2-0.2v-13.6c0-0.1,0.1-0.2,0.2-0.2h5.4c0.1,0,0.2,0.1,0.2,0.2v0.2C310.2,1105.5,310.1,1105.6,310,1105.6z
				"/>
			<path class="st1" d="M319.6,1105.6h-4.9c-0.1,0-0.1,0-0.1,0.1v6c0,0.1,0,0.1,0.1,0.1h3.2c0.1,0,0.2,0.1,0.2,0.2v0.1
				c0,0.1-0.1,0.2-0.2,0.2h-3.2c-0.1,0-0.1,0-0.1,0.1v6c0,0.1,0,0.1,0.1,0.1h4.9c0.1,0,0.2,0.1,0.2,0.2v0.2c0,0.1-0.1,0.2-0.2,0.2
				h-5.4c-0.1,0-0.2-0.1-0.2-0.2v-13.6c0-0.1,0.1-0.2,0.2-0.2h5.4c0.1,0,0.2,0.1,0.2,0.2v0.2
				C319.8,1105.5,319.8,1105.6,319.6,1105.6z"/>
			<path class="st1" d="M328.9,1118.8v-13.6c0-0.1,0.1-0.2,0.2-0.2h2.7c0.9,0,1.6,0.3,2.2,1c0.5,0.6,0.8,1.5,0.8,2.7v6.8
				c0,1.1-0.3,2-0.8,2.7s-1.3,1-2.2,1h-2.7C329,1119,328.9,1118.9,328.9,1118.8z M329.6,1118.4h2.3c0.7,0,1.3-0.3,1.7-0.8
				s0.6-1.3,0.6-2.2v-6.7c0-1-0.2-1.7-0.6-2.3c-0.4-0.5-1-0.8-1.7-0.8h-2.3c-0.1,0-0.1,0-0.1,0.1L329.6,1118.4
				C329.5,1118.4,329.5,1118.4,329.6,1118.4z"/>
			<path class="st1" d="M344.6,1105.6h-4.9c-0.1,0-0.1,0-0.1,0.1v6c0,0.1,0,0.1,0.1,0.1h3.2c0.1,0,0.2,0.1,0.2,0.2v0.1
				c0,0.1-0.1,0.2-0.2,0.2h-3.2c-0.1,0-0.1,0-0.1,0.1v6c0,0.1,0,0.1,0.1,0.1h4.9c0.1,0,0.2,0.1,0.2,0.2v0.2c0,0.1-0.1,0.2-0.2,0.2
				h-5.4c-0.1,0-0.2-0.1-0.2-0.2v-13.6c0-0.1,0.1-0.2,0.2-0.2h5.4c0.1,0,0.2,0.1,0.2,0.2v0.2
				C344.8,1105.5,344.8,1105.6,344.6,1105.6z"/>
			<path class="st1" d="M348.7,1118.8v-13.6c0-0.1,0.1-0.2,0.2-0.2h0.2c0.1,0,0.2,0.1,0.2,0.2v13.2c0,0.1,0,0.1,0.1,0.1h4.8
				c0.1,0,0.2,0.1,0.2,0.2v0.2c0,0.1-0.1,0.2-0.2,0.2h-5.3C348.8,1119,348.7,1118.9,348.7,1118.8z"/>
			<path class="st1" d="M357.5,1118.8v-13.6c0-0.1,0.1-0.2,0.2-0.2h0.2c0.1,0,0.2,0.1,0.2,0.2v13.6c0,0.1-0.1,0.2-0.2,0.2h-0.2
				C357.5,1119,357.5,1118.9,357.5,1118.8z"/>
			<path class="st1" d="M364.8,1118.8l-2.9-13.6v0c0-0.1,0.1-0.2,0.2-0.2h0.2c0.1,0,0.2,0.1,0.2,0.2l2.6,12.5c0,0,0,0.1,0,0.1
				c0,0,0,0,0-0.1l2.6-12.5c0-0.1,0.1-0.2,0.2-0.2h0.2c0.1,0,0.2,0.1,0.2,0.2l-2.9,13.6c0,0.1-0.1,0.2-0.2,0.2H365
				C364.9,1119,364.8,1118.9,364.8,1118.8z"/>
			<path class="st1" d="M377.7,1105.6h-4.9c-0.1,0-0.1,0-0.1,0.1v6c0,0.1,0,0.1,0.1,0.1h3.2c0.1,0,0.2,0.1,0.2,0.2v0.1
				c0,0.1-0.1,0.2-0.2,0.2h-3.2c-0.1,0-0.1,0-0.1,0.1v6c0,0.1,0,0.1,0.1,0.1h4.9c0.1,0,0.2,0.1,0.2,0.2v0.2c0,0.1-0.1,0.2-0.2,0.2
				h-5.4c-0.1,0-0.2-0.1-0.2-0.2v-13.6c0-0.1,0.1-0.2,0.2-0.2h5.4c0.1,0,0.2,0.1,0.2,0.2v0.2
				C377.9,1105.5,377.9,1105.6,377.7,1105.6z"/>
			<path class="st1" d="M387.3,1118.8l-2.4-6.5c0,0,0-0.1-0.1-0.1h-2.3c-0.1,0-0.1,0-0.1,0.1v6.5c0,0.1-0.1,0.2-0.2,0.2H382
				c-0.1,0-0.2-0.1-0.2-0.2v-13.6c0-0.1,0.1-0.2,0.2-0.2h2.8c0.9,0,1.6,0.3,2.2,1s0.8,1.5,0.8,2.6c0,0.9-0.2,1.7-0.6,2.4
				c-0.4,0.6-1,1-1.7,1.2c-0.1,0-0.1,0.1-0.1,0.1l2.4,6.5l0,0.1c0,0.1-0.1,0.1-0.2,0.1h-0.2C387.4,1119,387.3,1118.9,387.3,1118.8z
				 M382.4,1105.6v6c0,0.1,0,0.1,0.1,0.1h2.3c0.7,0,1.3-0.3,1.7-0.8c0.4-0.6,0.7-1.3,0.7-2.2s-0.2-1.7-0.7-2.2
				c-0.4-0.6-1-0.9-1.7-0.9L382.4,1105.6C382.4,1105.6,382.4,1105.6,382.4,1105.6z"/>
			<path class="st1" d="M393.4,1118.8v-6.4c0-0.1,0-0.1,0-0.1l-2.7-7l0-0.1c0-0.1,0.1-0.2,0.2-0.2h0.2c0.1,0,0.2,0.1,0.2,0.2
				l2.4,6.4c0,0,0,0.1,0.1,0.1c0,0,0,0,0.1-0.1l2.4-6.4c0-0.1,0.1-0.2,0.2-0.2h0.2c0.1,0,0.1,0,0.2,0.1c0,0,0,0.1,0,0.2l-2.7,7
				c0,0,0,0,0,0.1v6.4c0,0.1-0.1,0.2-0.2,0.2h-0.2C393.5,1119,393.4,1118.9,393.4,1118.8z"/>
			<path class="st1" d="M406.2,1118.3c-0.6-0.6-0.9-1.4-0.9-2.3v-7.9c0-1,0.3-1.7,0.9-2.3c0.6-0.6,1.3-0.9,2.2-0.9
				c0.9,0,1.7,0.3,2.2,0.9c0.6,0.6,0.9,1.4,0.9,2.3v7.9c0,1-0.3,1.7-0.9,2.3c-0.6,0.6-1.3,0.9-2.2,0.9
				C407.5,1119.2,406.8,1118.9,406.2,1118.3z M410.3,1117.9c0.5-0.5,0.7-1.1,0.7-1.9v-7.9c0-0.8-0.2-1.4-0.7-1.9
				c-0.5-0.5-1.1-0.7-1.8-0.7c-0.7,0-1.3,0.2-1.8,0.7c-0.5,0.5-0.7,1.1-0.7,1.9v7.9c0,0.8,0.2,1.4,0.7,1.9s1.1,0.7,1.8,0.7
				C409.2,1118.6,409.8,1118.4,410.3,1117.9z"/>
			<path class="st1" d="M417.8,1118.8l-2.9-13.6v0c0-0.1,0.1-0.2,0.2-0.2h0.2c0.1,0,0.2,0.1,0.2,0.2l2.6,12.5c0,0,0,0.1,0,0.1
				c0,0,0,0,0-0.1l2.6-12.5c0-0.1,0.1-0.2,0.2-0.2h0.2c0.1,0,0.2,0.1,0.2,0.2l-2.9,13.6c0,0.1-0.1,0.2-0.2,0.2H418
				C417.9,1119,417.8,1118.9,417.8,1118.8z"/>
			<path class="st1" d="M430.7,1105.6h-4.9c-0.1,0-0.1,0-0.1,0.1v6c0,0.1,0,0.1,0.1,0.1h3.2c0.1,0,0.2,0.1,0.2,0.2v0.1
				c0,0.1-0.1,0.2-0.2,0.2h-3.2c-0.1,0-0.1,0-0.1,0.1v6c0,0.1,0,0.1,0.1,0.1h4.9c0.1,0,0.2,0.1,0.2,0.2v0.2c0,0.1-0.1,0.2-0.2,0.2
				h-5.4c-0.1,0-0.2-0.1-0.2-0.2v-13.6c0-0.1,0.1-0.2,0.2-0.2h5.4c0.1,0,0.2,0.1,0.2,0.2v0.2
				C430.9,1105.5,430.9,1105.6,430.7,1105.6z"/>
			<path class="st1" d="M440.3,1118.8l-2.4-6.5c0,0,0-0.1-0.1-0.1h-2.3c-0.1,0-0.1,0-0.1,0.1v6.5c0,0.1-0.1,0.2-0.2,0.2H435
				c-0.1,0-0.2-0.1-0.2-0.2v-13.6c0-0.1,0.1-0.2,0.2-0.2h2.8c0.9,0,1.6,0.3,2.2,1s0.8,1.5,0.8,2.6c0,0.9-0.2,1.7-0.6,2.4
				c-0.4,0.6-1,1-1.7,1.2c-0.1,0-0.1,0.1-0.1,0.1l2.4,6.5l0,0.1c0,0.1-0.1,0.1-0.2,0.1h-0.2C440.4,1119,440.3,1118.9,440.3,1118.8z
				 M435.4,1105.6v6c0,0.1,0,0.1,0.1,0.1h2.3c0.7,0,1.3-0.3,1.7-0.8c0.4-0.6,0.7-1.3,0.7-2.2s-0.2-1.7-0.7-2.2
				c-0.4-0.6-1-0.9-1.7-0.9L435.4,1105.6C435.5,1105.6,435.4,1105.6,435.4,1105.6z"/>
			<path class="st1" d="M454.3,1118c-0.5,0.6-1,1-1.8,1.1c-0.1,0-0.1,0-0.1,0.1v1.5c0,0.1-0.1,0.2-0.2,0.2h-0.1
				c-0.1,0-0.2-0.1-0.2-0.2v-1.5c0-0.1,0-0.1-0.1-0.1c-0.9,0-1.5-0.4-2.1-1c-0.5-0.6-0.8-1.5-0.8-2.5v-0.4c0-0.1,0.1-0.2,0.2-0.2
				h0.2c0.1,0,0.2,0.1,0.2,0.2v0.4c0,0.9,0.2,1.6,0.7,2.1s1,0.8,1.7,0.8c0.7,0,1.3-0.3,1.8-0.8c0.5-0.5,0.7-1.2,0.7-2
				c0-0.6-0.1-1-0.3-1.4c-0.2-0.4-0.5-0.7-0.8-1c-0.3-0.3-0.8-0.7-1.5-1.2c-0.7-0.5-1.2-0.9-1.6-1.3c-0.4-0.3-0.7-0.7-0.9-1.2
				s-0.3-1-0.3-1.6c0-1,0.3-1.7,0.8-2.3c0.5-0.6,1.2-0.9,2-0.9c0.1,0,0.1,0,0.1-0.1v-1.6c0-0.1,0.1-0.2,0.2-0.2h0.1
				c0.1,0,0.2,0.1,0.2,0.2v1.6c0,0.1,0,0.1,0.1,0.1c0.7,0.1,1.3,0.5,1.8,1.1c0.4,0.6,0.7,1.4,0.7,2.3v0.5c0,0.1-0.1,0.2-0.2,0.2
				h-0.2c-0.1,0-0.2-0.1-0.2-0.2v-0.5c0-0.9-0.2-1.6-0.7-2.1s-1-0.8-1.8-0.8c-0.7,0-1.2,0.2-1.7,0.7c-0.4,0.5-0.6,1.1-0.6,2
				c0,0.5,0.1,0.9,0.3,1.3c0.2,0.4,0.4,0.7,0.8,1c0.3,0.3,0.8,0.7,1.5,1.2c0.8,0.6,1.4,1.1,1.8,1.4s0.7,0.7,0.9,1.1
				c0.2,0.4,0.3,0.9,0.3,1.5C455,1116.6,454.8,1117.4,454.3,1118z"/>
			<path class="st1" d="M463.5,1109.2v6.6c0,1-0.3,1.8-0.8,2.4s-1.2,0.9-2.1,0.9c-0.7,0-1.4-0.3-1.9-0.9s-0.7-1.4-0.7-2.4v-0.1
				c0-0.1,0.1-0.2,0.2-0.2h0.2c0.1,0,0.2,0.1,0.2,0.2v0.1c0,0.8,0.2,1.5,0.6,2s0.9,0.8,1.4,0.8c0.7,0,1.2-0.3,1.6-0.8
				c0.4-0.5,0.6-1.2,0.6-2v-3.6c0,0,0-0.1,0-0.1s0,0,0,0c-0.2,0.4-0.5,0.8-0.9,1c-0.4,0.2-0.8,0.3-1.3,0.3c-0.7,0-1.2-0.2-1.6-0.6
				s-0.8-0.9-0.9-1.7c-0.1-0.5-0.2-1.2-0.2-2.1c0-0.6,0-1.2,0.1-1.7c0.1-0.9,0.4-1.6,0.9-2s1.1-0.7,1.8-0.7c0.7,0,1.3,0.2,1.7,0.6
				c0.4,0.4,0.8,1.1,0.9,1.9C463.5,1107.9,463.5,1108.5,463.5,1109.2z M462.7,1111.1c0.1-0.5,0.2-1.2,0.2-1.9c0-0.6-0.1-1.2-0.2-1.7
				c-0.3-1.4-1-2.1-2.1-2.1c-1.1,0-1.8,0.7-2.1,2.2c-0.1,0.5-0.1,1-0.1,1.6c0,0.8,0.1,1.4,0.2,2c0.3,1.2,1,1.8,2,1.8
				C461.8,1113,462.4,1112.4,462.7,1111.1z"/>
			<path class="st1" d="M472.4,1109.2v6.6c0,1-0.3,1.8-0.8,2.4s-1.2,0.9-2.1,0.9c-0.7,0-1.4-0.3-1.9-0.9s-0.7-1.4-0.7-2.4v-0.1
				c0-0.1,0.1-0.2,0.2-0.2h0.2c0.1,0,0.2,0.1,0.2,0.2v0.1c0,0.8,0.2,1.5,0.6,2s0.9,0.8,1.4,0.8c0.7,0,1.2-0.3,1.6-0.8
				c0.4-0.5,0.6-1.2,0.6-2v-3.6c0,0,0-0.1,0-0.1s0,0,0,0c-0.2,0.4-0.5,0.8-0.9,1c-0.4,0.2-0.8,0.3-1.3,0.3c-0.7,0-1.2-0.2-1.6-0.6
				s-0.8-0.9-0.9-1.7c-0.1-0.5-0.2-1.2-0.2-2.1c0-0.6,0-1.2,0.1-1.7c0.1-0.9,0.4-1.6,0.9-2s1.1-0.7,1.8-0.7c0.7,0,1.3,0.2,1.7,0.6
				c0.4,0.4,0.8,1.1,0.9,1.9C472.4,1107.9,472.4,1108.5,472.4,1109.2z M471.6,1111.1c0.1-0.5,0.2-1.2,0.2-1.9c0-0.6-0.1-1.2-0.2-1.7
				c-0.3-1.4-1-2.1-2.1-2.1c-1.1,0-1.8,0.7-2.1,2.2c-0.1,0.5-0.1,1-0.1,1.6c0,0.8,0.1,1.4,0.2,2c0.3,1.2,1,1.8,2,1.8
				C470.6,1113,471.3,1112.4,471.6,1111.1z"/>
		</g>
		<g class="st0">
			<path class="st1" d="M505.9,1118.9c0,0,0-0.1,0-0.2l3.4-12.5c0,0,0,0,0-0.1c0,0,0,0-0.1,0h-3.7c-0.1,0-0.1,0-0.1,0.1v0.8
				c0,0.1-0.1,0.2-0.2,0.2h-0.8c-0.1,0-0.2-0.1-0.2-0.2v-1.9c0-0.1,0.1-0.2,0.2-0.2h6.1c0.1,0,0.2,0.1,0.2,0.2v0.9c0,0,0,0.1,0,0.2
				l-3.4,12.5c0,0.1-0.1,0.2-0.2,0.2h-1.1C506,1119,506,1119,505.9,1118.9z"/>
			<path class="st1" d="M519,1118.8v-13.6c0-0.1,0.1-0.2,0.2-0.2h3.1c1,0,1.8,0.3,2.5,1c0.6,0.7,0.9,1.6,0.9,2.7v6.6
				c0,1.1-0.3,2-0.9,2.7c-0.6,0.7-1.4,1-2.5,1h-3.1C519,1119,519,1118.9,519,1118.8z M520.5,1117.8l1.8,0c0.6,0,1.1-0.2,1.4-0.7
				c0.4-0.5,0.5-1.1,0.6-1.8v-6.4c0-0.8-0.2-1.4-0.5-1.9c-0.3-0.5-0.8-0.7-1.4-0.7h-1.8c-0.1,0-0.1,0-0.1,0.1L520.5,1117.8
				C520.4,1117.7,520.4,1117.8,520.5,1117.8z"/>
			<path class="st1" d="M534.1,1118.8l-0.5-2.5c0,0,0,0,0-0.1c0,0,0,0-0.1,0h-3.6c0,0,0,0-0.1,0c0,0,0,0,0,0.1l-0.5,2.5
				c0,0.1-0.1,0.2-0.2,0.2h-1c-0.1,0-0.1,0-0.1-0.1c0,0,0-0.1,0-0.2l3-13.6c0-0.1,0.1-0.2,0.2-0.2h1.2c0.1,0,0.2,0.1,0.2,0.2l3,13.6
				v0c0,0.1-0.1,0.2-0.2,0.2h-1C534.2,1119,534.1,1118.9,534.1,1118.8z M530.1,1115.1h3.2c0,0,0.1,0,0.1-0.1l-1.6-7.9
				c0,0,0-0.1,0-0.1c0,0,0,0,0,0.1L530.1,1115.1C530,1115.1,530.1,1115.1,530.1,1115.1z"/>
			<path class="st1" d="M539.8,1118.8v-6c0-0.1,0-0.1,0-0.1l-2.8-7.5l0-0.1c0-0.1,0.1-0.2,0.2-0.2h1.1c0.1,0,0.2,0.1,0.2,0.2l2,5.9
				c0,0,0,0,0.1,0c0,0,0,0,0.1,0l2-5.9c0-0.1,0.1-0.2,0.2-0.2h1.1c0.1,0,0.1,0,0.1,0.1s0,0.1,0,0.2l-2.8,7.5c0,0,0,0,0,0.1v6
				c0,0.1-0.1,0.2-0.2,0.2h-1C539.9,1119,539.8,1118.9,539.8,1118.8z"/>
			<path class="st1" d="M547.5,1118.2c-0.6-0.7-0.9-1.5-0.9-2.6v-0.5c0-0.1,0.1-0.2,0.2-0.2h1c0.1,0,0.2,0.1,0.2,0.2v0.4
				c0,0.7,0.2,1.3,0.5,1.7c0.4,0.4,0.8,0.7,1.4,0.7c0.6,0,1-0.2,1.4-0.6c0.4-0.4,0.6-1,0.6-1.6c0-0.5-0.1-0.8-0.3-1.2
				c-0.2-0.3-0.4-0.6-0.7-0.9c-0.3-0.2-0.8-0.6-1.4-1.1c-0.7-0.5-1.2-0.9-1.6-1.3c-0.4-0.4-0.7-0.8-1-1.3s-0.4-1.1-0.4-1.7
				c0-1,0.3-1.9,0.9-2.5c0.6-0.6,1.4-0.9,2.3-0.9c1,0,1.8,0.3,2.4,1c0.6,0.7,0.9,1.5,0.9,2.6v0.5c0,0.1-0.1,0.2-0.2,0.2h-1
				c-0.1,0-0.2-0.1-0.2-0.2v-0.5c0-0.7-0.2-1.3-0.5-1.7c-0.4-0.4-0.8-0.7-1.4-0.7c-0.5,0-1,0.2-1.3,0.6c-0.3,0.4-0.5,0.9-0.5,1.6
				c0,0.4,0.1,0.8,0.2,1.1c0.2,0.3,0.4,0.6,0.7,0.9c0.3,0.3,0.8,0.6,1.4,1.1c0.8,0.6,1.4,1.1,1.8,1.4c0.4,0.4,0.7,0.8,0.9,1.2
				c0.2,0.4,0.3,1,0.3,1.6c0,1.1-0.3,2-0.9,2.6c-0.6,0.7-1.4,1-2.4,1C548.9,1119.2,548.1,1118.8,547.5,1118.2z"/>
			<path class="st1" d="M567.2,1118.8l-2-6.2c0,0,0-0.1-0.1-0.1h-1.7c-0.1,0-0.1,0-0.1,0.1v6.1c0,0.1-0.1,0.2-0.2,0.2h-1
				c-0.1,0-0.2-0.1-0.2-0.2v-13.6c0-0.1,0.1-0.2,0.2-0.2h3.3c1,0,1.8,0.4,2.4,1.1c0.6,0.7,0.9,1.6,0.9,2.8c0,0.9-0.2,1.6-0.6,2.2
				c-0.4,0.6-0.9,1.1-1.5,1.3c-0.1,0-0.1,0-0.1,0.1l2.2,6.3l0,0.1c0,0.1-0.1,0.1-0.2,0.1h-1C567.3,1119,567.2,1118.9,567.2,1118.8z
				 M563.3,1106.3v5.1c0,0.1,0,0.1,0.1,0.1h1.8c0.6,0,1.1-0.2,1.5-0.7c0.4-0.5,0.6-1.1,0.6-1.9c0-0.8-0.2-1.4-0.6-1.9
				c-0.4-0.5-0.9-0.7-1.5-0.7L563.3,1106.3C563.3,1106.2,563.3,1106.3,563.3,1106.3z"/>
			<path class="st1" d="M578,1106.2h-4.6c-0.1,0-0.1,0-0.1,0.1v5c0,0.1,0,0.1,0.1,0.1h2.9c0.1,0,0.2,0.1,0.2,0.2v0.9
				c0,0.1-0.1,0.2-0.2,0.2h-2.9c-0.1,0-0.1,0-0.1,0.1v5c0,0.1,0,0.1,0.1,0.1h4.6c0.1,0,0.2,0.1,0.2,0.2v0.8c0,0.1-0.1,0.2-0.2,0.2
				h-5.9c-0.1,0-0.2-0.1-0.2-0.2v-13.6c0-0.1,0.1-0.2,0.2-0.2h5.9c0.1,0,0.2,0.1,0.2,0.2v0.8C578.2,1106.2,578.2,1106.2,578,1106.2z
				"/>
			<path class="st1" d="M588,1105.2v0.8c0,0.1-0.1,0.2-0.2,0.2h-2.6c-0.1,0-0.1,0-0.1,0.1v12.5c0,0.1-0.1,0.2-0.2,0.2h-1
				c-0.1,0-0.2-0.1-0.2-0.2v-12.5c0-0.1,0-0.1-0.1-0.1h-2.5c-0.1,0-0.2-0.1-0.2-0.2v-0.8c0-0.1,0.1-0.2,0.2-0.2h6.7
				C587.9,1105,588,1105.1,588,1105.2z"/>
			<path class="st1" d="M592.1,1118.1c-0.6-0.7-0.9-1.6-0.9-2.8v-10.1c0-0.1,0.1-0.2,0.2-0.2h1c0.1,0,0.2,0.1,0.2,0.2v10.3
				c0,0.7,0.2,1.3,0.5,1.8s0.9,0.7,1.5,0.7c0.6,0,1.1-0.2,1.5-0.7c0.4-0.5,0.6-1,0.6-1.8v-10.3c0-0.1,0.1-0.2,0.2-0.2h1
				c0.1,0,0.2,0.1,0.2,0.2v10.1c0,1.2-0.3,2.1-1,2.8c-0.6,0.7-1.5,1.1-2.5,1.1C593.6,1119.2,592.7,1118.8,592.1,1118.1z"/>
			<path class="st1" d="M607.3,1118.8l-2-6.2c0,0,0-0.1-0.1-0.1h-1.7c-0.1,0-0.1,0-0.1,0.1v6.1c0,0.1-0.1,0.2-0.2,0.2h-1
				c-0.1,0-0.2-0.1-0.2-0.2v-13.6c0-0.1,0.1-0.2,0.2-0.2h3.3c1,0,1.8,0.4,2.4,1.1c0.6,0.7,0.9,1.6,0.9,2.8c0,0.9-0.2,1.6-0.6,2.2
				c-0.4,0.6-0.9,1.1-1.5,1.3c-0.1,0-0.1,0-0.1,0.1l2.2,6.3l0,0.1c0,0.1-0.1,0.1-0.2,0.1h-1C607.5,1119,607.4,1118.9,607.3,1118.8z
				 M603.4,1106.3v5.1c0,0.1,0,0.1,0.1,0.1h1.8c0.6,0,1.1-0.2,1.5-0.7c0.4-0.5,0.6-1.1,0.6-1.9c0-0.8-0.2-1.4-0.6-1.9
				c-0.4-0.5-0.9-0.7-1.5-0.7L603.4,1106.3C603.4,1106.2,603.4,1106.3,603.4,1106.3z"/>
			<path class="st1" d="M617.8,1105h1c0.1,0,0.2,0.1,0.2,0.2v13.6c0,0.1-0.1,0.2-0.2,0.2h-1.2c-0.1,0-0.2-0.1-0.2-0.2l-3.9-10.3
				c0,0,0-0.1-0.1,0s0,0,0,0.1l0,10.3c0,0.1-0.1,0.2-0.2,0.2h-1c-0.1,0-0.2-0.1-0.2-0.2v-13.6c0-0.1,0.1-0.2,0.2-0.2h1.2
				c0.1,0,0.2,0.1,0.2,0.2l3.9,10.4c0,0,0,0.1,0.1,0.1c0,0,0,0,0-0.1v-10.3C617.6,1105.1,617.7,1105,617.8,1105z"/>
			<path class="st1" d="M634.1,1106c0.6,0.7,0.9,1.7,0.9,2.8c0,1.1-0.3,2.1-0.9,2.8s-1.4,1-2.3,1h-2.1c-0.1,0-0.1,0-0.1,0.1v6
				c0,0.1-0.1,0.2-0.2,0.2h-1c-0.1,0-0.2-0.1-0.2-0.2v-13.6c0-0.1,0.1-0.2,0.2-0.2h3.3C632.7,1105,633.5,1105.3,634.1,1106z
				 M633,1110.8c0.4-0.5,0.6-1.1,0.6-1.9s-0.2-1.4-0.6-1.9c-0.4-0.5-0.9-0.7-1.5-0.7h-1.8c-0.1,0-0.1,0-0.1,0.1v5.1
				c0,0.1,0,0.1,0.1,0.1h1.8C632.1,1111.5,632.6,1111.3,633,1110.8z"/>
			<path class="st1" d="M638.9,1118.2c-0.6-0.6-0.9-1.5-0.9-2.5v-7.3c0-1.1,0.3-1.9,0.9-2.5c0.6-0.6,1.5-1,2.5-1c1,0,1.9,0.3,2.5,1
				c0.6,0.6,1,1.5,1,2.5v7.3c0,1-0.3,1.9-1,2.5c-0.6,0.6-1.5,1-2.5,1C640.3,1119.2,639.5,1118.8,638.9,1118.2z M642.8,1117.3
				c0.4-0.4,0.6-0.9,0.6-1.6v-7.5c0-0.7-0.2-1.2-0.6-1.6c-0.4-0.4-0.9-0.6-1.5-0.6c-0.6,0-1.1,0.2-1.5,0.6c-0.4,0.4-0.6,0.9-0.6,1.6
				v7.5c0,0.6,0.2,1.2,0.6,1.6c0.4,0.4,0.9,0.6,1.5,0.6C642,1117.9,642.5,1117.7,642.8,1117.3z"/>
			<path class="st1" d="M648.6,1118.8v-13.6c0-0.1,0.1-0.2,0.2-0.2h1c0.1,0,0.2,0.1,0.2,0.2v12.5c0,0.1,0,0.1,0.1,0.1h4.6
				c0.1,0,0.2,0.1,0.2,0.2v0.8c0,0.1-0.1,0.2-0.2,0.2h-5.9C648.6,1119,648.6,1118.9,648.6,1118.8z"/>
			<path class="st1" d="M657.7,1118.8v-13.6c0-0.1,0.1-0.2,0.2-0.2h1c0.1,0,0.2,0.1,0.2,0.2v13.6c0,0.1-0.1,0.2-0.2,0.2h-1
				C657.7,1119,657.7,1118.9,657.7,1118.8z"/>
			<path class="st1" d="M663.7,1118.2c-0.6-0.6-0.9-1.5-0.9-2.5v-7.4c0-1,0.3-1.9,0.9-2.5c0.6-0.6,1.4-0.9,2.5-0.9
				c1,0,1.9,0.3,2.5,0.9c0.6,0.6,0.9,1.5,0.9,2.5v0.3c0,0.1-0.1,0.2-0.2,0.2l-1,0.1c-0.1,0-0.2-0.1-0.2-0.2v-0.5
				c0-0.6-0.2-1.1-0.5-1.5s-0.8-0.6-1.4-0.6c-0.6,0-1.1,0.2-1.4,0.6s-0.5,0.9-0.5,1.5v7.6c0,0.6,0.2,1.1,0.5,1.5s0.8,0.6,1.4,0.6
				c0.6,0,1.1-0.2,1.4-0.6s0.5-0.9,0.5-1.5v-0.5c0-0.1,0.1-0.2,0.2-0.2l1,0.1c0.1,0,0.2,0.1,0.2,0.2v0.3c0,1.1-0.3,1.9-0.9,2.5
				c-0.6,0.6-1.5,0.9-2.5,0.9C665.2,1119.2,664.3,1118.8,663.7,1118.2z"/>
			<path class="st1" d="M675.2,1118.8v-6c0-0.1,0-0.1,0-0.1l-2.8-7.5l0-0.1c0-0.1,0.1-0.2,0.2-0.2h1.1c0.1,0,0.2,0.1,0.2,0.2l2,5.9
				c0,0,0,0,0.1,0c0,0,0,0,0.1,0l2-5.9c0-0.1,0.1-0.2,0.2-0.2h1.1c0.1,0,0.1,0,0.1,0.1s0,0.1,0,0.2l-2.8,7.5c0,0,0,0,0,0.1v6
				c0,0.1-0.1,0.2-0.2,0.2h-1C675.3,1119,675.2,1118.9,675.2,1118.8z"/>
		</g>
		<g id="Ellipse_1">
			<circle class="st1" cx="269.9" cy="1111" r="3"/>
		</g>
		<g id="Ellipse_2">
			<circle class="st1" cx="492.9" cy="1111" r="3"/>
		</g>
		<g id="Ellipse_3">
			<circle class="st1" cx="68.9" cy="1111" r="3"/>
		</g>
	</g>
	<g id="Group_7" transform="translate(624)">
		<g class="st0">
			<path class="st1" d="M86.1,1118.8l-2.6-13.6v0c0-0.1,0.1-0.2,0.2-0.2h0.2c0.1,0,0.2,0.1,0.2,0.2l2.3,12.4c0,0,0,0,0,0
				c0,0,0,0,0,0l1.9-12.4c0-0.1,0.1-0.2,0.2-0.2h0.2c0.1,0,0.2,0.1,0.2,0.2l2,12.4c0,0,0,0,0,0c0,0,0,0,0,0l2.1-12.4
				c0-0.1,0.1-0.2,0.2-0.2h0.2c0.1,0,0.1,0,0.2,0.1s0,0.1,0,0.2l-2.5,13.6c0,0.1-0.1,0.2-0.2,0.2H91c-0.1,0-0.2-0.1-0.2-0.2
				l-1.9-12.3c0,0,0,0,0,0s0,0,0,0l-2,12.3c0,0.1-0.1,0.2-0.2,0.2h-0.2C86.2,1119,86.1,1118.9,86.1,1118.8z"/>
			<path class="st1" d="M97.9,1118.3c-0.6-0.6-0.9-1.4-0.9-2.3v-7.9c0-1,0.3-1.7,0.9-2.3c0.6-0.6,1.3-0.9,2.2-0.9
				c0.9,0,1.7,0.3,2.2,0.9c0.6,0.6,0.9,1.4,0.9,2.3v7.9c0,1-0.3,1.7-0.9,2.3c-0.6,0.6-1.3,0.9-2.2,0.9
				C99.2,1119.2,98.4,1118.9,97.9,1118.3z M101.9,1117.9c0.5-0.5,0.7-1.1,0.7-1.9v-7.9c0-0.8-0.2-1.4-0.7-1.9
				c-0.5-0.5-1.1-0.7-1.8-0.7c-0.7,0-1.3,0.2-1.8,0.7c-0.5,0.5-0.7,1.1-0.7,1.9v7.9c0,0.8,0.2,1.4,0.7,1.9c0.5,0.5,1.1,0.7,1.8,0.7
				C100.8,1118.6,101.4,1118.4,101.9,1117.9z"/>
			<path class="st1" d="M112.9,1118.8l-2.4-6.5c0,0,0-0.1-0.1-0.1h-2.3c-0.1,0-0.1,0-0.1,0.1v6.5c0,0.1-0.1,0.2-0.2,0.2h-0.2
				c-0.1,0-0.2-0.1-0.2-0.2v-13.6c0-0.1,0.1-0.2,0.2-0.2h2.8c0.9,0,1.6,0.3,2.2,1s0.8,1.5,0.8,2.6c0,0.9-0.2,1.7-0.6,2.4
				c-0.4,0.6-1,1-1.7,1.2c-0.1,0-0.1,0.1-0.1,0.1l2.4,6.5l0,0.1c0,0.1-0.1,0.1-0.2,0.1h-0.2C113.1,1119,113,1118.9,112.9,1118.8z
				 M108.1,1105.6v6c0,0.1,0,0.1,0.1,0.1h2.3c0.7,0,1.3-0.3,1.7-0.8c0.4-0.6,0.7-1.3,0.7-2.2s-0.2-1.7-0.7-2.2
				c-0.4-0.6-1-0.9-1.7-0.9L108.1,1105.6C108.1,1105.6,108.1,1105.6,108.1,1105.6z"/>
			<path class="st1" d="M117.2,1118.8v-13.6c0-0.1,0.1-0.2,0.2-0.2h0.2c0.1,0,0.2,0.1,0.2,0.2v13.2c0,0.1,0,0.1,0.1,0.1h4.8
				c0.1,0,0.2,0.1,0.2,0.2v0.2c0,0.1-0.1,0.2-0.2,0.2h-5.3C117.3,1119,117.2,1118.9,117.2,1118.8z"/>
			<path class="st1" d="M126,1118.8v-13.6c0-0.1,0.1-0.2,0.2-0.2h2.7c0.9,0,1.7,0.3,2.2,1c0.5,0.6,0.8,1.5,0.8,2.7v6.8
				c0,1.1-0.3,2-0.8,2.7s-1.3,1-2.2,1h-2.7C126,1119,126,1118.9,126,1118.8z M126.6,1118.4h2.3c0.7,0,1.3-0.3,1.7-0.8
				s0.6-1.3,0.6-2.2v-6.7c0-1-0.2-1.7-0.6-2.3s-1-0.8-1.7-0.8h-2.3c-0.1,0-0.1,0-0.1,0.1L126.6,1118.4
				C126.6,1118.4,126.6,1118.4,126.6,1118.4z"/>
			<path class="st1" d="M137.6,1118.8l-2.6-13.6v0c0-0.1,0.1-0.2,0.2-0.2h0.2c0.1,0,0.2,0.1,0.2,0.2l2.3,12.4c0,0,0,0,0,0s0,0,0,0
				l1.9-12.4c0-0.1,0.1-0.2,0.2-0.2h0.2c0.1,0,0.2,0.1,0.2,0.2l2,12.4c0,0,0,0,0,0c0,0,0,0,0,0l2.1-12.4c0-0.1,0.1-0.2,0.2-0.2h0.2
				c0.1,0,0.1,0,0.2,0.1c0,0,0,0.1,0,0.2l-2.5,13.6c0,0.1-0.1,0.2-0.2,0.2h-0.2c-0.1,0-0.2-0.1-0.2-0.2l-1.9-12.3c0,0,0,0,0,0
				c0,0,0,0,0,0l-2,12.3c0,0.1-0.1,0.2-0.2,0.2h-0.2C137.7,1119,137.6,1118.9,137.6,1118.8z"/>
			<path class="st1" d="M149,1118.8v-13.6c0-0.1,0.1-0.2,0.2-0.2h0.2c0.1,0,0.2,0.1,0.2,0.2v13.6c0,0.1-0.1,0.2-0.2,0.2h-0.2
				C149,1119,149,1118.9,149,1118.8z"/>
			<path class="st1" d="M154.3,1118.8v-13.6c0-0.1,0.1-0.2,0.2-0.2h2.7c0.9,0,1.7,0.3,2.2,1c0.5,0.6,0.8,1.5,0.8,2.7v6.8
				c0,1.1-0.3,2-0.8,2.7s-1.3,1-2.2,1h-2.7C154.3,1119,154.3,1118.9,154.3,1118.8z M155,1118.4h2.3c0.7,0,1.3-0.3,1.7-0.8
				s0.6-1.3,0.6-2.2v-6.7c0-1-0.2-1.7-0.6-2.3s-1-0.8-1.7-0.8H155c-0.1,0-0.1,0-0.1,0.1L155,1118.4
				C154.9,1118.4,154.9,1118.4,155,1118.4z"/>
			<path class="st1" d="M170,1105.6h-4.9c-0.1,0-0.1,0-0.1,0.1v6c0,0.1,0,0.1,0.1,0.1h3.2c0.1,0,0.2,0.1,0.2,0.2v0.1
				c0,0.1-0.1,0.2-0.2,0.2h-3.2c-0.1,0-0.1,0-0.1,0.1v6c0,0.1,0,0.1,0.1,0.1h4.9c0.1,0,0.2,0.1,0.2,0.2v0.2c0,0.1-0.1,0.2-0.2,0.2
				h-5.4c-0.1,0-0.2-0.1-0.2-0.2v-13.6c0-0.1,0.1-0.2,0.2-0.2h5.4c0.1,0,0.2,0.1,0.2,0.2v0.2C170.2,1105.5,170.1,1105.6,170,1105.6z
				"/>
			<path class="st1" d="M179.3,1118.8v-13.6c0-0.1,0.1-0.2,0.2-0.2h2.7c0.9,0,1.7,0.3,2.2,1c0.5,0.6,0.8,1.5,0.8,2.7v6.8
				c0,1.1-0.3,2-0.8,2.7s-1.3,1-2.2,1h-2.7C179.3,1119,179.3,1118.9,179.3,1118.8z M180,1118.4h2.3c0.7,0,1.3-0.3,1.7-0.8
				s0.6-1.3,0.6-2.2v-6.7c0-1-0.2-1.7-0.6-2.3s-1-0.8-1.7-0.8H180c-0.1,0-0.1,0-0.1,0.1L180,1118.4
				C179.9,1118.4,179.9,1118.4,180,1118.4z"/>
			<path class="st1" d="M195,1105.6h-4.9c-0.1,0-0.1,0-0.1,0.1v6c0,0.1,0,0.1,0.1,0.1h3.2c0.1,0,0.2,0.1,0.2,0.2v0.1
				c0,0.1-0.1,0.2-0.2,0.2h-3.2c-0.1,0-0.1,0-0.1,0.1v6c0,0.1,0,0.1,0.1,0.1h4.9c0.1,0,0.2,0.1,0.2,0.2v0.2c0,0.1-0.1,0.2-0.2,0.2
				h-5.4c-0.1,0-0.2-0.1-0.2-0.2v-13.6c0-0.1,0.1-0.2,0.2-0.2h5.4c0.1,0,0.2,0.1,0.2,0.2v0.2C195.2,1105.5,195.1,1105.6,195,1105.6z
				"/>
			<path class="st1" d="M199.1,1118.8v-13.6c0-0.1,0.1-0.2,0.2-0.2h0.2c0.1,0,0.2,0.1,0.2,0.2v13.2c0,0.1,0,0.1,0.1,0.1h4.8
				c0.1,0,0.2,0.1,0.2,0.2v0.2c0,0.1-0.1,0.2-0.2,0.2h-5.3C199.2,1119,199.1,1118.9,199.1,1118.8z"/>
			<path class="st1" d="M207.8,1118.8v-13.6c0-0.1,0.1-0.2,0.2-0.2h0.2c0.1,0,0.2,0.1,0.2,0.2v13.6c0,0.1-0.1,0.2-0.2,0.2H208
				C207.9,1119,207.8,1118.9,207.8,1118.8z"/>
			<path class="st1" d="M215.1,1118.8l-2.9-13.6v0c0-0.1,0.1-0.2,0.2-0.2h0.2c0.1,0,0.2,0.1,0.2,0.2l2.6,12.5c0,0,0,0.1,0,0.1
				s0,0,0-0.1l2.6-12.5c0-0.1,0.1-0.2,0.2-0.2h0.2c0.1,0,0.2,0.1,0.2,0.2l-2.9,13.6c0,0.1-0.1,0.2-0.2,0.2h-0.3
				C215.2,1119,215.2,1118.9,215.1,1118.8z"/>
			<path class="st1" d="M228.1,1105.6h-4.9c-0.1,0-0.1,0-0.1,0.1v6c0,0.1,0,0.1,0.1,0.1h3.2c0.1,0,0.2,0.1,0.2,0.2v0.1
				c0,0.1-0.1,0.2-0.2,0.2h-3.2c-0.1,0-0.1,0-0.1,0.1v6c0,0.1,0,0.1,0.1,0.1h4.9c0.1,0,0.2,0.1,0.2,0.2v0.2c0,0.1-0.1,0.2-0.2,0.2
				h-5.4c-0.1,0-0.2-0.1-0.2-0.2v-13.6c0-0.1,0.1-0.2,0.2-0.2h5.4c0.1,0,0.2,0.1,0.2,0.2v0.2
				C228.3,1105.5,228.2,1105.6,228.1,1105.6z"/>
			<path class="st1" d="M237.6,1118.8l-2.4-6.5c0,0,0-0.1-0.1-0.1h-2.3c-0.1,0-0.1,0-0.1,0.1v6.5c0,0.1-0.1,0.2-0.2,0.2h-0.2
				c-0.1,0-0.2-0.1-0.2-0.2v-13.6c0-0.1,0.1-0.2,0.2-0.2h2.8c0.9,0,1.6,0.3,2.2,1s0.8,1.5,0.8,2.6c0,0.9-0.2,1.7-0.6,2.4
				c-0.4,0.6-1,1-1.7,1.2c-0.1,0-0.1,0.1-0.1,0.1l2.4,6.5l0,0.1c0,0.1-0.1,0.1-0.2,0.1h-0.2C237.8,1119,237.7,1118.9,237.6,1118.8z
				 M232.8,1105.6v6c0,0.1,0,0.1,0.1,0.1h2.3c0.7,0,1.3-0.3,1.7-0.8c0.4-0.6,0.7-1.3,0.7-2.2s-0.2-1.7-0.7-2.2
				c-0.4-0.6-1-0.9-1.7-0.9L232.8,1105.6C232.8,1105.6,232.8,1105.6,232.8,1105.6z"/>
			<path class="st1" d="M243.8,1118.8v-6.4c0-0.1,0-0.1,0-0.1l-2.7-7l0-0.1c0-0.1,0.1-0.2,0.2-0.2h0.2c0.1,0,0.2,0.1,0.2,0.2
				l2.4,6.4c0,0,0,0.1,0.1,0.1c0,0,0,0,0.1-0.1l2.4-6.4c0-0.1,0.1-0.2,0.2-0.2h0.2c0.1,0,0.1,0,0.2,0.1c0,0,0,0.1,0,0.2l-2.7,7
				c0,0,0,0,0,0.1v6.4c0,0.1-0.1,0.2-0.2,0.2H244C243.8,1119,243.8,1118.9,243.8,1118.8z"/>
		</g>
		<g class="st0">
			<path class="st1" d="M291.4,1106.2h-4.6c-0.1,0-0.1,0-0.1,0.1v5c0,0.1,0,0.1,0.1,0.1h2.9c0.1,0,0.2,0.1,0.2,0.2v0.9
				c0,0.1-0.1,0.2-0.2,0.2h-2.9c-0.1,0-0.1,0-0.1,0.1v6.1c0,0.1-0.1,0.2-0.2,0.2h-1c-0.1,0-0.2-0.1-0.2-0.2v-13.6
				c0-0.1,0.1-0.2,0.2-0.2h5.9c0.1,0,0.2,0.1,0.2,0.2v0.8C291.6,1106.2,291.5,1106.2,291.4,1106.2z"/>
			<path class="st1" d="M299.9,1118.8l-2-6.2c0,0,0-0.1-0.1-0.1h-1.7c-0.1,0-0.1,0-0.1,0.1v6.1c0,0.1-0.1,0.2-0.2,0.2h-1
				c-0.1,0-0.2-0.1-0.2-0.2v-13.6c0-0.1,0.1-0.2,0.2-0.2h3.3c1,0,1.8,0.4,2.4,1.1c0.6,0.7,0.9,1.6,0.9,2.8c0,0.9-0.2,1.6-0.6,2.2
				c-0.4,0.6-0.9,1.1-1.5,1.3c-0.1,0-0.1,0-0.1,0.1l2.2,6.3l0,0.1c0,0.1-0.1,0.1-0.2,0.1h-1C300,1119,300,1118.9,299.9,1118.8z
				 M296,1106.3v5.1c0,0.1,0,0.1,0.1,0.1h1.8c0.6,0,1.1-0.2,1.5-0.7c0.4-0.5,0.6-1.1,0.6-1.9c0-0.8-0.2-1.4-0.6-1.9
				c-0.4-0.5-0.9-0.7-1.5-0.7L296,1106.3C296,1106.2,296,1106.3,296,1106.3z"/>
			<path class="st1" d="M310.7,1106.2h-4.6c-0.1,0-0.1,0-0.1,0.1v5c0,0.1,0,0.1,0.1,0.1h2.9c0.1,0,0.2,0.1,0.2,0.2v0.9
				c0,0.1-0.1,0.2-0.2,0.2h-2.9c-0.1,0-0.1,0-0.1,0.1v5c0,0.1,0,0.1,0.1,0.1h4.6c0.1,0,0.2,0.1,0.2,0.2v0.8c0,0.1-0.1,0.2-0.2,0.2
				h-5.9c-0.1,0-0.2-0.1-0.2-0.2v-13.6c0-0.1,0.1-0.2,0.2-0.2h5.9c0.1,0,0.2,0.1,0.2,0.2v0.8
				C310.9,1106.2,310.9,1106.2,310.7,1106.2z"/>
			<path class="st1" d="M320.5,1106.2h-4.6c-0.1,0-0.1,0-0.1,0.1v5c0,0.1,0,0.1,0.1,0.1h2.9c0.1,0,0.2,0.1,0.2,0.2v0.9
				c0,0.1-0.1,0.2-0.2,0.2h-2.9c-0.1,0-0.1,0-0.1,0.1v5c0,0.1,0,0.1,0.1,0.1h4.6c0.1,0,0.2,0.1,0.2,0.2v0.8c0,0.1-0.1,0.2-0.2,0.2
				h-5.9c-0.1,0-0.2-0.1-0.2-0.2v-13.6c0-0.1,0.1-0.2,0.2-0.2h5.9c0.1,0,0.2,0.1,0.2,0.2v0.8
				C320.7,1106.2,320.6,1106.2,320.5,1106.2z"/>
			<path class="st1" d="M329.3,1118.8v-13.6c0-0.1,0.1-0.2,0.2-0.2h3.1c1,0,1.8,0.3,2.5,1c0.6,0.7,0.9,1.6,0.9,2.7v6.6
				c0,1.1-0.3,2-0.9,2.7c-0.6,0.7-1.4,1-2.5,1h-3.1C329.4,1119,329.3,1118.9,329.3,1118.8z M330.8,1117.8l1.8,0
				c0.6,0,1.1-0.2,1.4-0.7c0.4-0.5,0.5-1.1,0.5-1.8v-6.4c0-0.8-0.2-1.4-0.5-1.9s-0.8-0.7-1.4-0.7h-1.8c-0.1,0-0.1,0-0.1,0.1
				L330.8,1117.8C330.7,1117.7,330.7,1117.8,330.8,1117.8z"/>
			<path class="st1" d="M345.8,1106.2h-4.6c-0.1,0-0.1,0-0.1,0.1v5c0,0.1,0,0.1,0.1,0.1h2.9c0.1,0,0.2,0.1,0.2,0.2v0.9
				c0,0.1-0.1,0.2-0.2,0.2h-2.9c-0.1,0-0.1,0-0.1,0.1v5c0,0.1,0,0.1,0.1,0.1h4.6c0.1,0,0.2,0.1,0.2,0.2v0.8c0,0.1-0.1,0.2-0.2,0.2
				h-5.9c-0.1,0-0.2-0.1-0.2-0.2v-13.6c0-0.1,0.1-0.2,0.2-0.2h5.9c0.1,0,0.2,0.1,0.2,0.2v0.8C346,1106.2,345.9,1106.2,345.8,1106.2z
				"/>
			<path class="st1" d="M349.4,1118.8v-13.6c0-0.1,0.1-0.2,0.2-0.2h1c0.1,0,0.2,0.1,0.2,0.2v12.5c0,0.1,0,0.1,0.1,0.1h4.6
				c0.1,0,0.2,0.1,0.2,0.2v0.8c0,0.1-0.1,0.2-0.2,0.2h-5.9C349.5,1119,349.4,1118.9,349.4,1118.8z"/>
			<path class="st1" d="M358.5,1118.8v-13.6c0-0.1,0.1-0.2,0.2-0.2h1c0.1,0,0.2,0.1,0.2,0.2v13.6c0,0.1-0.1,0.2-0.2,0.2h-1
				C358.6,1119,358.5,1118.9,358.5,1118.8z"/>
			<path class="st1" d="M366.1,1118.8l-2.9-13.6v0c0-0.1,0.1-0.2,0.2-0.2h1.1c0.1,0,0.2,0.1,0.2,0.2l2.2,11.2c0,0,0,0,0,0s0,0,0,0
				l2.1-11.2c0-0.1,0.1-0.2,0.2-0.2h1.1c0.1,0,0.2,0.1,0.2,0.2l-2.9,13.6c0,0.1-0.1,0.2-0.2,0.2h-1.1
				C366.2,1119,366.2,1118.9,366.1,1118.8z"/>
			<path class="st1" d="M380.1,1106.2h-4.6c-0.1,0-0.1,0-0.1,0.1v5c0,0.1,0,0.1,0.1,0.1h2.9c0.1,0,0.2,0.1,0.2,0.2v0.9
				c0,0.1-0.1,0.2-0.2,0.2h-2.9c-0.1,0-0.1,0-0.1,0.1v5c0,0.1,0,0.1,0.1,0.1h4.6c0.1,0,0.2,0.1,0.2,0.2v0.8c0,0.1-0.1,0.2-0.2,0.2
				h-5.9c-0.1,0-0.2-0.1-0.2-0.2v-13.6c0-0.1,0.1-0.2,0.2-0.2h5.9c0.1,0,0.2,0.1,0.2,0.2v0.8
				C380.3,1106.2,380.2,1106.2,380.1,1106.2z"/>
			<path class="st1" d="M389.1,1118.8l-2-6.2c0,0,0-0.1-0.1-0.1h-1.7c-0.1,0-0.1,0-0.1,0.1v6.1c0,0.1-0.1,0.2-0.2,0.2h-1
				c-0.1,0-0.2-0.1-0.2-0.2v-13.6c0-0.1,0.1-0.2,0.2-0.2h3.3c1,0,1.8,0.4,2.4,1.1c0.6,0.7,0.9,1.6,0.9,2.8c0,0.9-0.2,1.6-0.6,2.2
				c-0.4,0.6-0.9,1.1-1.5,1.3c-0.1,0-0.1,0-0.1,0.1l2.2,6.3l0,0.1c0,0.1-0.1,0.1-0.2,0.1h-1C389.2,1119,389.1,1118.9,389.1,1118.8z
				 M385.1,1106.3v5.1c0,0.1,0,0.1,0.1,0.1h1.8c0.6,0,1.1-0.2,1.5-0.7c0.4-0.5,0.6-1.1,0.6-1.9c0-0.8-0.2-1.4-0.6-1.9
				c-0.4-0.5-0.9-0.7-1.5-0.7L385.1,1106.3C385.1,1106.2,385.1,1106.3,385.1,1106.3z"/>
			<path class="st1" d="M395.6,1118.8v-6c0-0.1,0-0.1,0-0.1l-2.8-7.5l0-0.1c0-0.1,0.1-0.2,0.2-0.2h1.1c0.1,0,0.2,0.1,0.2,0.2l2,5.9
				c0,0,0,0,0.1,0c0,0,0,0,0.1,0l2-5.9c0-0.1,0.1-0.2,0.2-0.2h1.1c0.1,0,0.1,0,0.1,0.1s0,0.1,0,0.2l-2.8,7.5c0,0,0,0,0,0.1v6
				c0,0.1-0.1,0.2-0.2,0.2h-1C395.7,1119,395.6,1118.9,395.6,1118.8z"/>
			<path class="st1" d="M408.9,1118.2c-0.6-0.6-0.9-1.5-0.9-2.5v-7.3c0-1.1,0.3-1.9,0.9-2.5c0.6-0.6,1.5-1,2.5-1c1,0,1.9,0.3,2.5,1
				c0.6,0.6,1,1.5,1,2.5v7.3c0,1-0.3,1.9-1,2.5c-0.6,0.6-1.5,1-2.5,1C410.4,1119.2,409.6,1118.8,408.9,1118.2z M412.9,1117.3
				c0.4-0.4,0.6-0.9,0.6-1.6v-7.5c0-0.7-0.2-1.2-0.6-1.6c-0.4-0.4-0.9-0.6-1.5-0.6c-0.6,0-1.1,0.2-1.5,0.6c-0.4,0.4-0.6,0.9-0.6,1.6
				v7.5c0,0.6,0.2,1.2,0.6,1.6c0.4,0.4,0.9,0.6,1.5,0.6C412.1,1117.9,412.5,1117.7,412.9,1117.3z"/>
			<path class="st1" d="M420.7,1118.8l-2.9-13.6v0c0-0.1,0.1-0.2,0.2-0.2h1.1c0.1,0,0.2,0.1,0.2,0.2l2.2,11.2c0,0,0,0,0,0s0,0,0,0
				l2.1-11.2c0-0.1,0.1-0.2,0.2-0.2h1.1c0.1,0,0.2,0.1,0.2,0.2l-2.9,13.6c0,0.1-0.1,0.2-0.2,0.2H421
				C420.8,1119,420.8,1118.9,420.7,1118.8z"/>
			<path class="st1" d="M434.7,1106.2H430c-0.1,0-0.1,0-0.1,0.1v5c0,0.1,0,0.1,0.1,0.1h2.9c0.1,0,0.2,0.1,0.2,0.2v0.9
				c0,0.1-0.1,0.2-0.2,0.2H430c-0.1,0-0.1,0-0.1,0.1v5c0,0.1,0,0.1,0.1,0.1h4.6c0.1,0,0.2,0.1,0.2,0.2v0.8c0,0.1-0.1,0.2-0.2,0.2
				h-5.9c-0.1,0-0.2-0.1-0.2-0.2v-13.6c0-0.1,0.1-0.2,0.2-0.2h5.9c0.1,0,0.2,0.1,0.2,0.2v0.8
				C434.9,1106.2,434.8,1106.2,434.7,1106.2z"/>
			<path class="st1" d="M443.7,1118.8l-2-6.2c0,0,0-0.1-0.1-0.1h-1.7c-0.1,0-0.1,0-0.1,0.1v6.1c0,0.1-0.1,0.2-0.2,0.2h-1
				c-0.1,0-0.2-0.1-0.2-0.2v-13.6c0-0.1,0.1-0.2,0.2-0.2h3.3c1,0,1.8,0.4,2.4,1.1c0.6,0.7,0.9,1.6,0.9,2.8c0,0.9-0.2,1.6-0.6,2.2
				c-0.4,0.6-0.9,1.1-1.5,1.3c-0.1,0-0.1,0-0.1,0.1l2.2,6.3l0,0.1c0,0.1-0.1,0.1-0.2,0.1h-1C443.8,1119,443.7,1118.9,443.7,1118.8z
				 M439.7,1106.3v5.1c0,0.1,0,0.1,0.1,0.1h1.8c0.6,0,1.1-0.2,1.5-0.7c0.4-0.5,0.6-1.1,0.6-1.9c0-0.8-0.2-1.4-0.6-1.9
				c-0.4-0.5-0.9-0.7-1.5-0.7L439.7,1106.3C439.7,1106.2,439.7,1106.3,439.7,1106.3z"/>
			<path class="st1" d="M458.9,1117.9c-0.5,0.6-1.1,1-1.9,1.2c-0.1,0-0.1,0-0.1,0.1v1.4c0,0.1-0.1,0.2-0.2,0.2H456
				c-0.1,0-0.2-0.1-0.2-0.2l0-1.4c0-0.1,0-0.1-0.1-0.1c-0.9-0.1-1.5-0.5-2-1.1c-0.5-0.6-0.8-1.4-0.8-2.4v-0.5c0-0.1,0.1-0.2,0.2-0.2
				h1c0.1,0,0.2,0.1,0.2,0.2v0.4c0,0.7,0.2,1.3,0.5,1.7c0.4,0.4,0.8,0.7,1.4,0.7c0.6,0,1-0.2,1.4-0.6c0.4-0.4,0.6-1,0.6-1.6
				c0-0.5-0.1-0.8-0.3-1.2c-0.2-0.3-0.4-0.6-0.7-0.9c-0.3-0.2-0.8-0.6-1.4-1.1c-0.7-0.5-1.2-0.9-1.6-1.3c-0.4-0.4-0.7-0.8-0.9-1.3
				c-0.2-0.5-0.4-1.1-0.4-1.7c0-0.9,0.3-1.7,0.8-2.3s1.2-0.9,2-1c0.1,0,0.1,0,0.1-0.1l0-1.5c0-0.1,0.1-0.2,0.2-0.2h0.7
				c0.1,0,0.2,0.1,0.2,0.2l0,1.5c0,0.1,0,0.1,0.1,0.1c0.8,0.1,1.4,0.5,1.9,1.2c0.5,0.6,0.7,1.4,0.7,2.4v0.5c0,0.1-0.1,0.2-0.2,0.2
				h-1c-0.1,0-0.2-0.1-0.2-0.2v-0.5c0-0.7-0.2-1.3-0.5-1.7c-0.4-0.4-0.8-0.7-1.4-0.7c-0.5,0-1,0.2-1.3,0.6c-0.3,0.4-0.5,0.9-0.5,1.6
				c0,0.4,0.1,0.8,0.2,1.1c0.2,0.3,0.4,0.6,0.7,0.9c0.3,0.3,0.8,0.6,1.4,1.1c0.8,0.6,1.4,1.1,1.8,1.4c0.4,0.4,0.7,0.8,0.9,1.2
				c0.2,0.4,0.3,1,0.3,1.6C459.6,1116.5,459.4,1117.3,458.9,1117.9z"/>
			<path class="st1" d="M468.6,1115.7c0,1-0.3,1.9-0.9,2.5c-0.6,0.6-1.4,0.9-2.3,0.9c-0.9,0-1.6-0.3-2.2-0.9
				c-0.6-0.6-0.8-1.5-0.8-2.5v-0.3c0-0.1,0.1-0.2,0.2-0.2h1c0.1,0,0.2,0.1,0.2,0.2v0.3c0,0.6,0.2,1.2,0.5,1.6
				c0.3,0.4,0.7,0.6,1.1,0.6c0.5,0,1-0.2,1.3-0.6c0.3-0.4,0.5-0.9,0.5-1.6v-2.7c0,0,0,0,0,0c0,0,0,0-0.1,0c-0.2,0.3-0.4,0.5-0.7,0.6
				c-0.3,0.1-0.6,0.2-1,0.2c-0.8,0-1.5-0.2-2-0.7c-0.5-0.5-0.9-1.2-1-2c-0.1-0.5-0.2-1.1-0.2-1.8c0-0.6,0-1.1,0.1-1.5
				c0.1-0.9,0.4-1.7,1-2.2c0.5-0.5,1.3-0.8,2.2-0.8c0.8,0,1.5,0.2,2,0.7s0.9,1.2,1,2.1c0.1,0.4,0.1,1,0.1,1.6L468.6,1115.7z
				 M467,1111c0.1-0.4,0.1-1,0.1-1.6c0-0.6,0-1.1-0.1-1.6c-0.2-1.1-0.8-1.7-1.7-1.7c-0.5,0-0.8,0.2-1.1,0.5s-0.5,0.8-0.6,1.4
				c-0.1,0.5-0.1,1-0.1,1.5c0,0.6,0.1,1.2,0.2,1.7c0.1,0.5,0.3,0.9,0.6,1.1c0.3,0.3,0.6,0.4,1,0.4
				C466.2,1112.6,466.8,1112.1,467,1111z"/>
			<path class="st1" d="M477.8,1115.7c0,1-0.3,1.9-0.9,2.5c-0.6,0.6-1.4,0.9-2.3,0.9c-0.9,0-1.6-0.3-2.2-0.9
				c-0.6-0.6-0.8-1.5-0.8-2.5v-0.3c0-0.1,0.1-0.2,0.2-0.2h1c0.1,0,0.2,0.1,0.2,0.2v0.3c0,0.6,0.2,1.2,0.5,1.6
				c0.3,0.4,0.7,0.6,1.1,0.6c0.5,0,1-0.2,1.3-0.6c0.3-0.4,0.5-0.9,0.5-1.6v-2.7c0,0,0,0,0,0c0,0,0,0-0.1,0c-0.2,0.3-0.4,0.5-0.7,0.6
				c-0.3,0.1-0.6,0.2-1,0.2c-0.8,0-1.5-0.2-2-0.7c-0.5-0.5-0.9-1.2-1-2c-0.1-0.5-0.2-1.1-0.2-1.8c0-0.6,0-1.1,0.1-1.5
				c0.1-0.9,0.4-1.7,1-2.2c0.5-0.5,1.3-0.8,2.2-0.8c0.8,0,1.5,0.2,2,0.7s0.9,1.2,1,2.1c0.1,0.4,0.1,1,0.1,1.6L477.8,1115.7z
				 M476.3,1111c0.1-0.4,0.1-1,0.1-1.6c0-0.6,0-1.1-0.1-1.6c-0.2-1.1-0.8-1.7-1.7-1.7c-0.5,0-0.8,0.2-1.1,0.5s-0.5,0.8-0.6,1.4
				c-0.1,0.5-0.1,1-0.1,1.5c0,0.6,0.1,1.2,0.2,1.7c0.1,0.5,0.3,0.9,0.6,1.1c0.3,0.3,0.6,0.4,1,0.4
				C475.5,1112.6,476,1112.1,476.3,1111z"/>
		</g>
		<g class="st0">
			<path class="st1" d="M509.2,1118.9c0,0,0-0.1,0-0.2l3.5-13.1c0,0,0,0,0,0c0,0,0,0-0.1,0h-4.5c-0.1,0-0.1,0-0.1,0.1v0.8
				c0,0.1-0.1,0.2-0.2,0.2h-0.1c-0.1,0-0.2-0.1-0.2-0.2v-1.3c0-0.1,0.1-0.2,0.2-0.2h5.4c0.1,0,0.2,0.1,0.2,0.2v0.2c0,0,0,0.1,0,0.2
				l-3.5,13.1c0,0.1-0.1,0.2-0.2,0.2h-0.2C509.3,1119,509.2,1119,509.2,1118.9z"/>
			<path class="st1" d="M521.8,1118.8v-13.6c0-0.1,0.1-0.2,0.2-0.2h2.7c0.9,0,1.6,0.3,2.2,1c0.5,0.6,0.8,1.5,0.8,2.7v6.8
				c0,1.1-0.3,2-0.8,2.7s-1.3,1-2.2,1H522C521.9,1119,521.8,1118.9,521.8,1118.8z M522.5,1118.4h2.3c0.7,0,1.3-0.3,1.7-0.8
				s0.6-1.3,0.6-2.2v-6.7c0-1-0.2-1.7-0.6-2.3c-0.4-0.5-1-0.8-1.7-0.8h-2.3c-0.1,0-0.1,0-0.1,0.1L522.5,1118.4
				C522.4,1118.4,522.4,1118.4,522.5,1118.4z"/>
			<path class="st1" d="M536.5,1118.8l-0.6-2.8c0,0,0,0,0-0.1c0,0,0,0-0.1,0h-4.3c0,0,0,0-0.1,0c0,0,0,0,0,0.1l-0.6,2.8
				c0,0.1-0.1,0.2-0.2,0.2h-0.2c-0.1,0-0.1,0-0.1-0.1c0,0,0-0.1,0-0.2l3.1-13.6c0-0.1,0.1-0.2,0.2-0.2h0.3c0.1,0,0.2,0.1,0.2,0.2
				l3.1,13.6v0c0,0.1-0.1,0.2-0.2,0.2h-0.2C536.6,1119,536.5,1118.9,536.5,1118.8z M531.6,1115.4
				C531.6,1115.4,531.6,1115.4,531.6,1115.4l4,0c0,0,0,0,0.1,0c0,0,0,0,0,0l-2-9.2c0,0,0-0.1,0-0.1c0,0,0,0,0,0.1L531.6,1115.4
				C531.6,1115.4,531.6,1115.4,531.6,1115.4z"/>
			<path class="st1" d="M541.7,1118.8v-6.4c0-0.1,0-0.1,0-0.1l-2.7-7l0-0.1c0-0.1,0.1-0.2,0.2-0.2h0.2c0.1,0,0.2,0.1,0.2,0.2
				l2.4,6.4c0,0,0,0.1,0.1,0.1c0,0,0,0,0.1-0.1l2.4-6.4c0-0.1,0.1-0.2,0.2-0.2h0.2c0.1,0,0.1,0,0.2,0.1c0,0,0,0.1,0,0.2l-2.7,7
				c0,0,0,0,0,0.1v6.4c0,0.1-0.1,0.2-0.2,0.2h-0.2C541.8,1119,541.7,1118.9,541.7,1118.8z"/>
			<path class="st1" d="M548.9,1118.2c-0.6-0.6-0.8-1.5-0.8-2.5v-0.4c0-0.1,0.1-0.2,0.2-0.2h0.2c0.1,0,0.2,0.1,0.2,0.2v0.4
				c0,0.9,0.2,1.6,0.7,2.1s1,0.8,1.7,0.8s1.3-0.3,1.8-0.8c0.5-0.5,0.7-1.2,0.7-2c0-0.6-0.1-1-0.3-1.4c-0.2-0.4-0.5-0.7-0.8-1
				c-0.3-0.3-0.8-0.7-1.5-1.2c-0.7-0.5-1.2-0.9-1.6-1.3c-0.4-0.3-0.7-0.7-0.9-1.2s-0.3-1-0.3-1.6c0-1,0.3-1.8,0.8-2.3
				c0.5-0.6,1.2-0.9,2.1-0.9c0.9,0,1.6,0.3,2.2,1c0.6,0.6,0.8,1.5,0.8,2.5v0.5c0,0.1-0.1,0.2-0.2,0.2h-0.2c-0.1,0-0.2-0.1-0.2-0.2
				v-0.5c0-0.9-0.2-1.6-0.7-2.1s-1-0.8-1.8-0.8c-0.7,0-1.2,0.2-1.7,0.7s-0.6,1.1-0.6,2c0,0.5,0.1,0.9,0.3,1.3c0.2,0.4,0.4,0.7,0.8,1
				s0.8,0.7,1.5,1.2c0.8,0.6,1.4,1.1,1.8,1.4c0.4,0.4,0.7,0.7,0.9,1.1c0.2,0.4,0.3,0.9,0.3,1.5c0,1.1-0.3,1.9-0.8,2.5
				c-0.6,0.6-1.3,1-2.2,1S549.5,1118.8,548.9,1118.2z"/>
			<path class="st1" d="M568.7,1118.8l-2.4-6.5c0,0,0-0.1-0.1-0.1h-2.3c-0.1,0-0.1,0-0.1,0.1v6.5c0,0.1-0.1,0.2-0.2,0.2h-0.2
				c-0.1,0-0.2-0.1-0.2-0.2v-13.6c0-0.1,0.1-0.2,0.2-0.2h2.8c0.9,0,1.6,0.3,2.2,1s0.8,1.5,0.8,2.6c0,0.9-0.2,1.7-0.6,2.4
				c-0.4,0.6-1,1-1.7,1.2c-0.1,0-0.1,0.1-0.1,0.1l2.4,6.5l0,0.1c0,0.1-0.1,0.1-0.2,0.1h-0.2C568.8,1119,568.7,1118.9,568.7,1118.8z
				 M563.8,1105.6v6c0,0.1,0,0.1,0.1,0.1h2.3c0.7,0,1.3-0.3,1.7-0.8c0.4-0.6,0.7-1.3,0.7-2.2s-0.2-1.7-0.7-2.2s-1-0.9-1.7-0.9
				L563.8,1105.6C563.8,1105.6,563.8,1105.6,563.8,1105.6z"/>
			<path class="st1" d="M578.5,1105.6h-4.9c-0.1,0-0.1,0-0.1,0.1v6c0,0.1,0,0.1,0.1,0.1h3.2c0.1,0,0.2,0.1,0.2,0.2v0.1
				c0,0.1-0.1,0.2-0.2,0.2h-3.2c-0.1,0-0.1,0-0.1,0.1v6c0,0.1,0,0.1,0.1,0.1h4.9c0.1,0,0.2,0.1,0.2,0.2v0.2c0,0.1-0.1,0.2-0.2,0.2
				h-5.4c-0.1,0-0.2-0.1-0.2-0.2v-13.6c0-0.1,0.1-0.2,0.2-0.2h5.4c0.1,0,0.2,0.1,0.2,0.2v0.2
				C578.7,1105.5,578.6,1105.6,578.5,1105.6z"/>
			<path class="st1" d="M588,1105.2v0.2c0,0.1-0.1,0.2-0.2,0.2h-2.7c-0.1,0-0.1,0-0.1,0.1v13.2c0,0.1-0.1,0.2-0.2,0.2h-0.2
				c-0.1,0-0.2-0.1-0.2-0.2v-13.2c0-0.1,0-0.1-0.1-0.1h-2.5c-0.1,0-0.2-0.1-0.2-0.2v-0.2c0-0.1,0.1-0.2,0.2-0.2h6
				C587.9,1105,588,1105.1,588,1105.2z"/>
			<path class="st1" d="M592.4,1118.1c-0.6-0.7-0.8-1.6-0.8-2.7v-10.3c0-0.1,0.1-0.2,0.2-0.2h0.2c0.1,0,0.2,0.1,0.2,0.2v10.3
				c0,0.9,0.2,1.7,0.7,2.2c0.5,0.6,1.1,0.8,1.8,0.8c0.8,0,1.4-0.3,1.8-0.8c0.5-0.6,0.7-1.3,0.7-2.2v-10.3c0-0.1,0.1-0.2,0.2-0.2h0.2
				c0.1,0,0.2,0.1,0.2,0.2v10.3c0,1.1-0.3,2-0.9,2.7c-0.6,0.7-1.3,1-2.3,1C593.7,1119.2,593,1118.8,592.4,1118.1z"/>
			<path class="st1" d="M607.8,1118.8l-2.4-6.5c0,0,0-0.1-0.1-0.1H603c-0.1,0-0.1,0-0.1,0.1v6.5c0,0.1-0.1,0.2-0.2,0.2h-0.2
				c-0.1,0-0.2-0.1-0.2-0.2v-13.6c0-0.1,0.1-0.2,0.2-0.2h2.8c0.9,0,1.6,0.3,2.2,1s0.8,1.5,0.8,2.6c0,0.9-0.2,1.7-0.6,2.4
				c-0.4,0.6-1,1-1.7,1.2c-0.1,0-0.1,0.1-0.1,0.1l2.4,6.5l0,0.1c0,0.1-0.1,0.1-0.2,0.1H608C607.9,1119,607.8,1118.9,607.8,1118.8z
				 M603,1105.6v6c0,0.1,0,0.1,0.1,0.1h2.3c0.7,0,1.3-0.3,1.7-0.8c0.4-0.6,0.7-1.3,0.7-2.2s-0.2-1.7-0.7-2.2c-0.4-0.6-1-0.9-1.7-0.9
				L603,1105.6C603,1105.6,603,1105.6,603,1105.6z"/>
			<path class="st1" d="M617.8,1105h0.2c0.1,0,0.2,0.1,0.2,0.2v13.6c0,0.1-0.1,0.2-0.2,0.2h-0.3c-0.1,0-0.2-0.1-0.2-0.2l-4.7-12.2
				c0,0,0-0.1-0.1,0c0,0,0,0,0,0.1v12.1c0,0.1-0.1,0.2-0.2,0.2h-0.2c-0.1,0-0.2-0.1-0.2-0.2v-13.6c0-0.1,0.1-0.2,0.2-0.2h0.3
				c0.1,0,0.2,0.1,0.2,0.2l4.7,12.2c0,0,0,0.1,0.1,0c0,0,0,0,0-0.1v-12.2C617.6,1105.1,617.7,1105,617.8,1105z"/>
			<path class="st1" d="M633.2,1106c0.5,0.7,0.8,1.6,0.8,2.7c0,1.1-0.3,2-0.8,2.6s-1.2,1-2.1,1h-2.4c-0.1,0-0.1,0-0.1,0.1v6.4
				c0,0.1-0.1,0.2-0.2,0.2h-0.2c-0.1,0-0.2-0.1-0.2-0.2v-13.6c0-0.1,0.1-0.2,0.2-0.2h2.8C632,1105,632.7,1105.3,633.2,1106z
				 M632.8,1110.9c0.4-0.6,0.7-1.3,0.7-2.2c0-0.9-0.2-1.7-0.7-2.3s-1-0.9-1.7-0.9h-2.3c-0.1,0-0.1,0-0.1,0.1v6.1
				c0,0.1,0,0.1,0.1,0.1h2.3C631.8,1111.7,632.4,1111.5,632.8,1110.9z"/>
			<path class="st1" d="M638.3,1118.3c-0.6-0.6-0.9-1.4-0.9-2.3v-7.9c0-1,0.3-1.7,0.9-2.3c0.6-0.6,1.3-0.9,2.2-0.9
				c0.9,0,1.7,0.3,2.2,0.9c0.6,0.6,0.9,1.4,0.9,2.3v7.9c0,1-0.3,1.7-0.9,2.3c-0.6,0.6-1.3,0.9-2.2,0.9
				C639.6,1119.2,638.9,1118.9,638.3,1118.3z M642.3,1117.9c0.5-0.5,0.7-1.1,0.7-1.9v-7.9c0-0.8-0.2-1.4-0.7-1.9
				c-0.5-0.5-1.1-0.7-1.8-0.7c-0.7,0-1.3,0.2-1.8,0.7c-0.5,0.5-0.7,1.1-0.7,1.9v7.9c0,0.8,0.2,1.4,0.7,1.9c0.5,0.5,1.1,0.7,1.8,0.7
				C641.2,1118.6,641.9,1118.4,642.3,1117.9z"/>
			<path class="st1" d="M647.9,1118.8v-13.6c0-0.1,0.1-0.2,0.2-0.2h0.2c0.1,0,0.2,0.1,0.2,0.2v13.2c0,0.1,0,0.1,0.1,0.1h4.8
				c0.1,0,0.2,0.1,0.2,0.2v0.2c0,0.1-0.1,0.2-0.2,0.2h-5.3C648,1119,647.9,1118.9,647.9,1118.8z"/>
			<path class="st1" d="M656.7,1118.8v-13.6c0-0.1,0.1-0.2,0.2-0.2h0.2c0.1,0,0.2,0.1,0.2,0.2v13.6c0,0.1-0.1,0.2-0.2,0.2h-0.2
				C656.7,1119,656.7,1118.9,656.7,1118.8z"/>
			<path class="st1" d="M662.4,1118.3c-0.6-0.6-0.8-1.3-0.8-2.3v-8c0-1,0.3-1.7,0.8-2.3s1.3-0.9,2.2-0.9c0.9,0,1.7,0.3,2.2,0.9
				c0.6,0.6,0.8,1.3,0.8,2.3v0.4c0,0.1-0.1,0.2-0.2,0.2l-0.2,0c-0.1,0-0.2-0.1-0.2-0.2v-0.5c0-0.8-0.2-1.4-0.7-1.9
				c-0.5-0.5-1-0.7-1.8-0.7c-0.7,0-1.3,0.2-1.8,0.7c-0.4,0.5-0.7,1.1-0.7,1.9v8.1c0,0.8,0.2,1.4,0.7,1.9c0.4,0.5,1,0.7,1.8,0.7
				c0.7,0,1.3-0.2,1.8-0.7c0.5-0.5,0.7-1.1,0.7-1.9v-0.4c0-0.1,0.1-0.2,0.2-0.2l0.2,0c0.1,0,0.2,0.1,0.2,0.2v0.4
				c0,1-0.3,1.7-0.8,2.3c-0.6,0.6-1.3,0.9-2.2,0.9C663.7,1119.2,663,1118.9,662.4,1118.3z"/>
			<path class="st1" d="M673.7,1118.8v-6.4c0-0.1,0-0.1,0-0.1l-2.7-7l0-0.1c0-0.1,0.1-0.2,0.2-0.2h0.2c0.1,0,0.2,0.1,0.2,0.2
				l2.4,6.4c0,0,0,0.1,0.1,0.1c0,0,0,0,0.1-0.1l2.4-6.4c0-0.1,0.1-0.2,0.2-0.2h0.2c0.1,0,0.1,0,0.2,0.1c0,0,0,0.1,0,0.2l-2.7,7
				c0,0,0,0,0,0.1v6.4c0,0.1-0.1,0.2-0.2,0.2h-0.2C673.8,1119,673.7,1118.9,673.7,1118.8z"/>
		</g>
		<g id="Ellipse_1-2">
			<circle class="st1" cx="269.9" cy="1111" r="3"/>
		</g>
		<g id="Ellipse_2-2">
			<circle class="st1" cx="492.9" cy="1111" r="3"/>
		</g>
		<g id="Ellipse_3-2">
			<circle class="st1" cx="68.9" cy="1111" r="3"/>
		</g>
	</g>
</g>
</svg>
