<?xml version="1.0" encoding="utf-8"?>
<!-- Generator: Adobe Illustrator 24.3.0, SVG Export Plug-In . SVG Version: 6.00 Build 0)  -->
<svg version="1.1" id="master-artboard" xmlns="http://www.w3.org/2000/svg" xmlns:xlink="http://www.w3.org/1999/xlink" x="0px"
	 y="0px" viewBox="0 0 1422.5 38.6" style="enable-background:new 0 0 1422.5 38.6;" xml:space="preserve">
<style type="text/css">
	.st0{display:none;opacity:0;}
	.st1{display:inline;fill:#FFFFFF;}
	.st2{fill:#FFFFFF;}
</style>
<g id="ee-background" class="st0">
	<rect class="st1" width="1422.5" height="38.6"/>
</g>
<g transform="matrix(1.4271152019500732, 0, 0, 1.4271152019500732, 19.591022491455078, 1.9142532348632812)">
	<g id="Group_46" transform="translate(-992 -1100)">
		<g>
			<path class="st2" d="M1765.2,1111c0,0.1,0,0.1,0,0.2c0,0.1,0,0.1,0,0.2c0,0.4,0,0.7-0.1,1.1c-0.1,0.4-0.2,0.7-0.3,1
				c-0.1,0.3-0.3,0.6-0.5,0.9s-0.4,0.5-0.6,0.7c-0.3,0.3-0.6,0.5-1,0.7s-0.8,0.4-1.2,0.5c-0.4,0.1-0.8,0.2-1.3,0.3
				c-0.4,0.1-0.9,0.1-1.3,0.1c-0.3,0-0.5,0-0.8,0c-0.3,0-0.6-0.1-1-0.1l0.4-2.5c0.4,0.1,0.8,0.1,1,0.1c0.3,0,0.5,0,0.7,0
				c0.1,0,0.2,0,0.4,0c0.2,0,0.3,0,0.4,0c-0.1-0.4-0.2-0.9-0.3-1.3c-0.2-0.5-0.3-0.9-0.5-1.4c-0.2-0.5-0.4-0.9-0.7-1.3
				c-0.3-0.4-0.5-0.8-0.8-1.2c-0.3-0.4-0.5-0.7-0.7-1.1c-0.2-0.3-0.5-0.6-0.6-0.8c-0.2-0.2-0.3-0.4-0.5-0.6
				c-0.1-0.1-0.2-0.2-0.2-0.2l1.8-1.9c0.4,0.6,0.9,1.2,1.2,1.7c0.4,0.6,0.7,1.2,1,1.7c0.3,0.6,0.6,1.1,0.8,1.6
				c0.2,0.5,0.5,1,0.6,1.5c0.2,0.5,0.3,0.9,0.5,1.3c0.1,0.4,0.2,0.7,0.3,1c0.1-0.1,0.3-0.2,0.4-0.3c0.1-0.1,0.2-0.3,0.3-0.5
				c0.1-0.2,0.2-0.4,0.2-0.6c0.1-0.2,0.1-0.4,0.1-0.7c0,0,0,0,0-0.1c0,0,0-0.1,0-0.1c0-0.1,0-0.2,0-0.3c0-0.1-0.1-0.3-0.1-0.6
				c0-0.2-0.1-0.5-0.2-0.9c-0.1-0.4-0.1-0.8-0.2-1.3c-0.1-0.5-0.2-1.1-0.3-1.8c-0.1-0.7-0.3-1.5-0.4-2.4l2.4-0.6c0,0,0,0.1,0.1,0.4
				c0,0.2,0.1,0.5,0.1,0.9c0.1,0.4,0.1,0.8,0.2,1.4c0.1,0.5,0.1,1.1,0.2,1.6c0.1,0.6,0.1,1.2,0.2,1.8
				C1765.1,1109.8,1765.1,1110.4,1765.2,1111z"/>
			<path class="st2" d="M1770.4,1116.2c-0.7,0-1.2-0.1-1.7-0.3c-0.5-0.2-0.8-0.4-1.1-0.7c-0.3-0.3-0.5-0.7-0.6-1.1
				c-0.1-0.4-0.2-0.9-0.2-1.4c0-0.3,0-0.6,0-0.9c0-0.4,0-0.8,0-1.3c0-0.5,0-1,0-1.6c0-0.6,0-1.2,0-1.8s-0.1-1.2-0.1-1.7
				c0-0.5-0.1-1-0.2-1.4l2.4-0.7c0.1,0.3,0.1,0.8,0.2,1.2c0,0.5,0.1,1,0.1,1.5c0,0.5,0,1,0.1,1.6c0,0.5,0,1,0,1.5c0,0.4,0,0.8,0,1.2
				c0,0.4,0,0.9,0,1.3c0,0.4,0,0.8,0,1.1c0,0.3,0.1,0.6,0.1,0.7c0,0.1,0.1,0.2,0.2,0.3c0.1,0.1,0.2,0.1,0.2,0.1c0.1,0,0.2,0,0.3,0.1
				c0.1,0,0.2,0,0.4,0h0.2v2.5H1770.4z"/>
			<path class="st2" d="M1770.3,1113.7h0.8c0.3,0,0.6,0,0.9,0c0.3,0,0.6,0,0.9-0.1c0.3,0,0.6-0.1,0.8-0.2c0.2-0.1,0.4-0.2,0.6-0.4
				c0.2-0.2,0.3-0.4,0.3-0.6c0-0.2,0-0.6-0.1-0.9c0-0.1-0.1-0.3-0.2-0.5c-0.1-0.2-0.3-0.4-0.5-0.6c-0.2-0.2-0.4-0.5-0.6-0.7
				c-0.2-0.2-0.5-0.5-0.8-0.8c-0.3-0.3-0.6-0.5-0.8-0.8c-0.3-0.3-0.6-0.5-0.9-0.8l0.2-2.2l6.7-3l1,2.1l-5.3,2.4
				c0.3,0.2,0.5,0.4,0.8,0.6c0.3,0.2,0.5,0.5,0.8,0.8s0.5,0.6,0.7,0.9c0.2,0.3,0.4,0.7,0.6,1c0.2,0.3,0.3,0.7,0.4,1
				c0.1,0.3,0.1,0.7,0.1,1c0,0.5-0.1,1.1-0.3,1.5c-0.2,0.5-0.5,0.9-0.8,1.2c-0.4,0.3-0.8,0.6-1.3,0.8c-0.5,0.2-1,0.3-1.6,0.3h-2.5
				V1113.7z"/>
			<path class="st2" d="M1801.1,1116.1c-0.4-0.1-0.7-0.2-1-0.3c-0.3-0.1-0.6-0.3-0.8-0.6c-0.2-0.2-0.5-0.5-0.6-0.9
				c-0.8,0.6-1.7,1.1-2.7,1.4c-1.1,0.3-2.3,0.5-3.7,0.5c-1.8,0-3.4-0.2-4.6-0.6c-1.2-0.4-2.1-1-2.6-1.9c-0.2-0.3-0.3-0.6-0.4-1
				c-0.1-0.4-0.1-0.8-0.1-1.2c0-0.4,0.1-0.9,0.3-1.4c0.1-0.5,0.3-1,0.6-1.5l1.9,1.1c-0.1,0.2-0.2,0.4-0.3,0.7
				c-0.1,0.2-0.2,0.5-0.2,0.7c-0.1,0.2-0.1,0.5-0.1,0.7c0,0.2,0.1,0.4,0.1,0.6c0.2,0.3,0.4,0.5,0.8,0.7c0.3,0.2,0.8,0.3,1.2,0.4
				c0.5,0.1,1,0.1,1.6,0.2c0.6,0,1.1,0,1.8,0c0.6,0,1.1,0,1.6-0.1c0.5,0,1-0.1,1.4-0.2c0.4-0.1,0.8-0.2,1.1-0.3
				c0.3-0.1,0.6-0.3,0.9-0.5c0.2-0.2,0.4-0.4,0.5-0.6c0.1-0.2,0.3-0.4,0.4-0.7c0.1-0.2,0.2-0.5,0.2-0.8c0.1-0.3,0.1-0.5,0.2-0.8
				l2.2,0.6l-0.3,1.7c0,0.2,0,0.5,0,0.7c0.1,0.2,0.2,0.4,0.3,0.5c0.2,0.2,0.4,0.3,0.6,0.4c0.3,0.1,0.6,0.1,0.9,0.1h0.3v2.5h-0.3
				C1801.8,1116.2,1801.4,1116.2,1801.1,1116.1z M1792.8,1107.8l-1.5,1.5l-1.5-1.5l1.5-1.5L1792.8,1107.8l1.5-1.6l1.5,1.5l-1.5,1.5
				L1792.8,1107.8z"/>
			<path class="st2" d="M1802.4,1113.7c0.3,0,0.5,0,0.8-0.1s0.5-0.3,0.7-0.5c0.2-0.3,0.4-0.6,0.6-1.1c0.2-0.5,0.4-1.1,0.5-1.9
				l2.1,0.3c0,0,0,0.1,0,0.1c0,0.1-0.1,0.3-0.1,0.6c0,0.2-0.1,0.5-0.1,0.8c0,0.3-0.1,0.6-0.1,0.9c0,0.3,0,0.5,0.1,0.7
				s0.2,0.3,0.3,0.4c0.2,0,0.3,0,0.5-0.1c0.2-0.1,0.3-0.3,0.4-0.5c0.1-0.2,0.3-0.4,0.4-0.7c0.1-0.3,0.2-0.6,0.3-0.8
				c0.1-0.3,0.2-0.6,0.2-0.8c0.1-0.3,0.1-0.5,0.2-0.7l2.1,0.3c0,0.1,0,0.3-0.1,0.5c0,0.2,0,0.5-0.1,0.7c0,0.2,0,0.5,0,0.7
				c0,0.3,0,0.5,0.1,0.7s0.1,0.4,0.2,0.5c0.1,0.1,0.3,0.2,0.5,0.2c0.2,0,0.3-0.1,0.5-0.2c0.1-0.1,0.2-0.3,0.3-0.5s0.2-0.4,0.2-0.6
				c0.1-0.2,0.1-0.5,0.1-0.7c0-0.2,0-0.5,0-0.7c0-0.2,0-0.4,0-0.6l2.1-0.3l0.3,2.2c0,0.2,0.1,0.5,0.2,0.6c0.1,0.2,0.2,0.3,0.4,0.4
				c0.1,0.1,0.3,0.2,0.5,0.3c0.2,0.1,0.3,0.1,0.5,0.1h0.3v2.5h-0.3c-0.5,0-1-0.1-1.5-0.3s-0.8-0.5-1.2-0.9c0,0-0.1,0.1-0.1,0.1
				c0,0-0.1,0.1-0.1,0.1v0c-0.3,0.3-0.6,0.5-1,0.7c-0.4,0.2-0.8,0.3-1.2,0.3c-0.5,0-0.9-0.1-1.3-0.3c-0.4-0.2-0.7-0.5-1-0.8
				c-0.3,0.3-0.7,0.6-1.1,0.8c-0.4,0.2-0.8,0.3-1.3,0.3c-0.4,0-0.9-0.1-1.3-0.3c-0.4-0.2-0.7-0.5-1-0.8c-0.3,0.4-0.6,0.7-1.1,0.8
				c-0.4,0.2-0.9,0.3-1.6,0.3h-0.2v-2.5H1802.4z M1807.1,1110.4L1807.1,1110.4C1807.1,1110.3,1807.1,1110.3,1807.1,1110.4z
				 M1810.3,1107l-1.5,1.5l-1.5-1.5l1.5-1.5L1810.3,1107l1.5-1.6l1.5,1.5l-1.5,1.5L1810.3,1107z M1811.7,1104.7l-1.4,1.4l-1.4-1.4
				l1.4-1.4L1811.7,1104.7z"/>
			<path class="st2" d="M1816.9,1113.7h0.8c0.3,0,0.6,0,0.9,0c0.3,0,0.6,0,0.9-0.1c0.3,0,0.6-0.1,0.8-0.2c0.2-0.1,0.4-0.2,0.6-0.4
				c0.2-0.2,0.3-0.4,0.3-0.6c0-0.2,0-0.6-0.1-0.9c0-0.1-0.1-0.3-0.2-0.5c-0.1-0.2-0.3-0.4-0.5-0.6c-0.2-0.2-0.4-0.5-0.6-0.7
				c-0.2-0.2-0.5-0.5-0.8-0.8c-0.3-0.3-0.6-0.5-0.8-0.8c-0.3-0.3-0.6-0.5-0.9-0.8l0.2-2.2l6.7-3l1,2.1l-5.3,2.4
				c0.3,0.2,0.5,0.4,0.8,0.6c0.3,0.2,0.5,0.5,0.8,0.8s0.5,0.6,0.7,0.9c0.2,0.3,0.4,0.7,0.6,1c0.2,0.3,0.3,0.7,0.4,1
				c0.1,0.3,0.1,0.7,0.1,1c0,0.5-0.1,1.1-0.3,1.5c-0.2,0.5-0.5,0.9-0.8,1.2c-0.4,0.3-0.8,0.6-1.3,0.8c-0.5,0.2-1,0.3-1.6,0.3h-2.5
				V1113.7z M1817.5,1103.2l6.1-2.5l0.4,0.9l-6.6,2.8L1817.5,1103.2z"/>
			<path class="st2" d="M1830.8,1116.2c-0.1,0-0.3,0-0.5,0c-0.2,0-0.4-0.1-0.6-0.2c-0.1,0.7-0.3,1.3-0.7,1.9
				c-0.3,0.6-0.7,1.1-1.2,1.7c-0.5,0.5-1,1-1.6,1.4c-0.6,0.4-1.2,0.8-1.9,1.2l-1.4-2c0.4-0.2,0.8-0.4,1.1-0.6
				c0.4-0.2,0.7-0.5,1.1-0.7c0.3-0.3,0.7-0.5,1-0.8c0.3-0.3,0.6-0.6,0.8-0.8c0.2-0.3,0.4-0.6,0.5-0.9c0.1-0.3,0.2-0.6,0.2-0.9
				c0-0.2,0-0.5-0.1-0.8c-0.1-0.3-0.2-0.7-0.3-1c-0.1-0.4-0.3-0.7-0.4-1.1s-0.3-0.7-0.4-1l2.3-1c0.2,0.6,0.4,1.2,0.6,1.6
				c0.2,0.4,0.4,0.8,0.6,1c0.2,0.3,0.4,0.4,0.5,0.5c0.2,0.1,0.3,0.2,0.5,0.2h0.2v2.5H1830.8z"/>
			<path class="st2" d="M1830.7,1113.7h1.1c0.2,0,0.5,0,0.7-0.1c0.3,0,0.5-0.1,0.7-0.2c0.2-0.1,0.4-0.2,0.6-0.3
				c0.2-0.1,0.2-0.3,0.2-0.5c0-0.1,0-0.3-0.1-0.6c-0.1-0.3-0.2-0.5-0.3-0.8c-0.1-0.3-0.3-0.6-0.4-1c-0.2-0.3-0.3-0.7-0.5-1l2.3-1.1
				c0.1,0.3,0.3,0.7,0.4,1.1s0.3,0.8,0.4,1.1c0.1,0.4,0.2,0.8,0.3,1.2c0.1,0.4,0.1,0.7,0.1,1.1c0,0.6-0.1,1.2-0.3,1.6
				c-0.2,0.5-0.5,0.8-0.9,1.1c-0.4,0.3-0.8,0.5-1.4,0.6c-0.5,0.1-1.1,0.2-1.7,0.2h-1.3V1113.7z M1833.2,1120.6l-1.8-1.8l1.8-1.8
				l1.8,1.8L1833.2,1120.6z"/>
			<path class="st2" d="M1859,1116.1c-0.4-0.1-0.7-0.2-1-0.3c-0.3-0.1-0.6-0.3-0.8-0.6c-0.2-0.2-0.5-0.5-0.6-0.9
				c-0.8,0.6-1.7,1.1-2.7,1.4c-1.1,0.3-2.3,0.5-3.7,0.5c-1.8,0-3.4-0.2-4.6-0.6c-1.2-0.4-2.1-1-2.6-1.9c-0.2-0.3-0.3-0.6-0.4-1
				c-0.1-0.4-0.1-0.8-0.1-1.2c0-0.4,0.1-0.9,0.3-1.4c0.1-0.5,0.3-1,0.6-1.5l1.9,1.1c-0.1,0.2-0.2,0.4-0.3,0.7
				c-0.1,0.2-0.2,0.5-0.2,0.7c0,0.2-0.1,0.5-0.1,0.7c0,0.2,0.1,0.4,0.1,0.6c0.2,0.3,0.4,0.5,0.8,0.7c0.3,0.2,0.8,0.3,1.2,0.4
				c0.5,0.1,1,0.1,1.6,0.2c0.6,0,1.1,0,1.8,0c0.6,0,1.1,0,1.6-0.1c0.5,0,1-0.1,1.4-0.2c0.4-0.1,0.8-0.2,1.1-0.3
				c0.3-0.1,0.6-0.3,0.9-0.5c0.2-0.2,0.4-0.4,0.5-0.6c0.1-0.2,0.3-0.4,0.4-0.7c0.1-0.2,0.2-0.5,0.2-0.8c0.1-0.3,0.1-0.5,0.2-0.8
				l2.2,0.6l-0.3,1.7c0,0.2,0,0.5,0,0.7c0.1,0.2,0.2,0.4,0.3,0.5c0.2,0.2,0.4,0.3,0.6,0.4c0.3,0.1,0.6,0.1,0.9,0.1h0.3v2.5h-0.3
				C1859.8,1116.2,1859.4,1116.2,1859,1116.1z M1850.8,1107.8l-1.5,1.5l-1.5-1.5l1.5-1.5L1850.8,1107.8l1.5-1.6l1.5,1.5l-1.5,1.5
				L1850.8,1107.8z"/>
			<path class="st2" d="M1860.2,1113.7h1.1c0.2,0,0.5,0,0.7-0.1c0.3,0,0.5-0.1,0.7-0.2c0.2-0.1,0.4-0.2,0.6-0.3
				c0.2-0.1,0.2-0.3,0.2-0.5c0-0.1,0-0.3-0.1-0.6c-0.1-0.3-0.2-0.5-0.3-0.8c-0.1-0.3-0.3-0.6-0.4-1c-0.2-0.3-0.3-0.7-0.5-1l2.3-1.1
				c0.1,0.3,0.3,0.7,0.4,1.1c0.1,0.4,0.3,0.8,0.4,1.1c0.1,0.4,0.2,0.8,0.3,1.2c0.1,0.4,0.1,0.7,0.1,1.1c0,0.6-0.1,1.2-0.3,1.6
				c-0.2,0.5-0.5,0.8-0.9,1.1c-0.4,0.3-0.8,0.5-1.4,0.6c-0.5,0.1-1.1,0.2-1.7,0.2h-1.3V1113.7z M1862.7,1107.4l-1.8-1.8l1.8-1.8
				l1.8,1.8L1862.7,1107.4z"/>
			<path class="st2" d="M1871,1116.2c-0.7,0-1.2-0.1-1.7-0.3c-0.5-0.2-0.8-0.4-1.1-0.7c-0.3-0.3-0.5-0.7-0.6-1.1
				c-0.1-0.4-0.2-0.9-0.2-1.4c0-0.3,0-0.6,0-0.9c0-0.4,0-0.8,0-1.3c0-0.5,0-1,0-1.6c0-0.6,0-1.2,0-1.8s-0.1-1.2-0.1-1.7
				c0-0.5-0.1-1-0.2-1.4l2.4-0.7c0.1,0.3,0.1,0.8,0.2,1.2c0,0.5,0.1,1,0.1,1.5c0,0.5,0,1,0.1,1.6c0,0.5,0,1,0,1.5c0,0.4,0,0.8,0,1.2
				c0,0.4,0,0.9,0,1.3c0,0.4,0,0.8,0,1.1c0,0.3,0.1,0.6,0.1,0.7c0,0.1,0.1,0.2,0.2,0.3c0.1,0.1,0.2,0.1,0.2,0.1c0.1,0,0.2,0,0.3,0.1
				c0.1,0,0.2,0,0.4,0h0.2v2.5H1871z"/>
			<path class="st2" d="M1877.9,1116.2c-0.3,0-0.6,0-0.9-0.1c-0.4-0.1-0.7-0.1-1.1-0.2c-0.4-0.1-0.7-0.2-1.1-0.4s-0.7-0.3-0.9-0.5
				c-0.3,0.4-0.7,0.7-1.2,0.9c-0.4,0.2-1,0.3-1.6,0.3h-0.2v-2.5h0.2c0.3,0,0.6-0.1,0.9-0.2s0.4-0.3,0.6-0.5c0.2-0.2,0.3-0.5,0.5-0.7
				c0.1-0.3,0.3-0.5,0.4-0.8c0.2-0.3,0.3-0.6,0.5-1c0.2-0.3,0.4-0.6,0.7-0.9c0.3-0.3,0.5-0.5,0.9-0.6c0.3-0.2,0.7-0.2,1.1-0.2
				c0.5,0,1,0.1,1.3,0.3s0.7,0.4,0.9,0.8c0.2,0.3,0.4,0.7,0.6,1.1c0.1,0.4,0.3,0.9,0.4,1.3c0.1,0.5,0.2,0.8,0.3,1.1
				c0.1,0.3,0.2,0.4,0.3,0.4h0.2v2.5h-0.3c-0.3,0-0.6-0.1-0.8-0.2c-0.2-0.1-0.4-0.3-0.6-0.5c-0.1,0.1-0.1,0.2-0.2,0.2
				c-0.1,0.1-0.2,0.2-0.2,0.2c-0.1,0.1-0.1,0.1-0.2,0.2C1878,1116.2,1878,1116.2,1877.9,1116.2z M1876.5,1111.1
				c-0.2,0-0.3,0.1-0.4,0.2c-0.1,0.1-0.3,0.2-0.4,0.4c-0.1,0.2-0.2,0.3-0.3,0.5c-0.1,0.2-0.2,0.4-0.2,0.6c0.2,0.1,0.4,0.2,0.6,0.3
				c0.2,0.1,0.5,0.2,0.7,0.3c0.3,0.1,0.5,0.1,0.8,0.2c0.2,0.1,0.5,0.1,0.7,0.1c-0.1-0.3-0.1-0.6-0.2-0.9c-0.1-0.3-0.2-0.6-0.3-0.8
				c-0.1-0.2-0.2-0.4-0.4-0.6C1876.9,1111.2,1876.7,1111.1,1876.5,1111.1z"/>
			<path class="st2" d="M1880.3,1113.7c0.3,0,0.5,0,0.7-0.1c0.2,0,0.3-0.1,0.5-0.1c0.1-0.1,0.2-0.1,0.3-0.2c0.1-0.1,0.1-0.1,0.2-0.2
				l0,0c0.1-0.1,0.1-0.2,0.2-0.4c0.1-0.1,0.2-0.3,0.2-0.6s0.2-0.6,0.3-0.9c0.1-0.4,0.2-0.8,0.4-1.4l2.1,0.7
				c-0.1,0.2-0.1,0.4-0.2,0.6c0,0.2-0.1,0.4-0.1,0.5c0,0.2,0,0.3,0,0.5c0,0.2,0.1,0.4,0.1,0.5c0.2-0.4,0.5-0.7,0.7-1.1
				c0.2-0.4,0.5-0.7,0.8-1c0.3-0.3,0.6-0.6,0.9-0.9c0.3-0.3,0.7-0.5,1.1-0.7c0.4-0.2,0.8-0.4,1.3-0.5c0.5-0.1,1-0.2,1.5-0.2
				c0.6,0,1.2,0.1,1.7,0.3s0.9,0.5,1.2,0.9c0.3,0.4,0.6,0.8,0.7,1.2c0.2,0.4,0.2,0.9,0.2,1.4c0,0.6-0.2,1.1-0.4,1.5
				c-0.2,0.4-0.5,0.8-0.9,1.1c-0.4,0.3-0.8,0.6-1.2,0.8c-0.5,0.2-1,0.4-1.5,0.5c-0.5,0.1-1,0.2-1.6,0.3c-0.5,0.1-1,0.1-1.5,0.1
				c-0.5,0-1,0-1.4,0c-0.4,0-0.8-0.1-1.2-0.2c-0.4-0.1-0.7-0.2-1-0.4s-0.6-0.4-0.9-0.7c-0.4,0.4-0.8,0.7-1.3,0.8
				c-0.5,0.2-1.1,0.3-1.8,0.3h-0.2v-2.5H1880.3z M1891.3,1110.8c-0.3,0-0.7,0-1,0.1c-0.3,0.1-0.6,0.2-0.9,0.4
				c-0.3,0.2-0.6,0.3-0.8,0.5c-0.3,0.2-0.5,0.4-0.7,0.6c-0.2,0.2-0.4,0.4-0.6,0.6c-0.2,0.2-0.3,0.4-0.4,0.6c0.2,0,0.4,0,0.7,0
				c0.3,0,0.5,0,0.8,0c0.3,0,0.7,0,1,0c0.4,0,0.7-0.1,1-0.1c0.3-0.1,0.7-0.1,1-0.2c0.3-0.1,0.6-0.2,0.9-0.3c0.3-0.1,0.5-0.3,0.7-0.5
				c0.2-0.2,0.3-0.4,0.4-0.7c-0.1-0.4-0.2-0.6-0.6-0.8C1892.3,1110.9,1891.8,1110.8,1891.3,1110.8z M1891.3,1107.3l-1.8-1.8l1.8-1.8
				l1.8,1.8L1891.3,1107.3z"/>
			<path class="st2" d="M1905.8,1111.5c0.1,0.4,0.2,0.8,0.3,1.2c0.1,0.4,0.2,0.8,0.3,1.2c0.1,0.4,0.1,0.8,0.1,1.1
				c0,0.5-0.1,1-0.2,1.5c-0.1,0.5-0.3,0.9-0.6,1.4c-0.2,0.4-0.5,0.9-0.9,1.3c-0.3,0.4-0.7,0.8-1.1,1.2c-0.4,0.4-0.9,0.7-1.3,1
				c-0.5,0.3-1,0.6-1.5,0.8l-1.4-2c0.4-0.2,0.8-0.4,1.2-0.6c0.4-0.2,0.8-0.5,1.1-0.8c0.4-0.3,0.7-0.6,1-0.9c0.3-0.3,0.6-0.6,0.8-0.9
				c0.2-0.3,0.4-0.6,0.5-0.9c0.1-0.3,0.2-0.6,0.2-0.9c0-0.2,0-0.5-0.1-0.7c-0.1-0.3-0.1-0.5-0.2-0.8c-0.1-0.3-0.2-0.6-0.4-1
				c-0.1-0.3-0.3-0.7-0.5-1.1l2.3-1C1905.6,1110.8,1905.7,1111.1,1905.8,1111.5z M1904.1,1108.9l-1.8-1.8l1.8-1.8l1.8,1.8
				L1904.1,1108.9z"/>
			<path class="st2" d="M1907.3,1119.4c0.7-0.1,1.4-0.3,2-0.6c0.6-0.2,1.1-0.5,1.6-0.8c0.5-0.3,0.8-0.6,1.1-0.9
				c0.3-0.3,0.5-0.6,0.6-1c-0.2,0-0.5,0-0.7,0c-0.3,0-0.5,0-0.6,0c-0.5,0-1-0.1-1.4-0.3c-0.4-0.2-0.8-0.4-1.1-0.6
				c-0.3-0.3-0.5-0.6-0.7-1c-0.2-0.4-0.3-0.8-0.3-1.3c0-0.3,0-0.7,0.1-1c0.1-0.3,0.2-0.7,0.3-1c0.1-0.3,0.3-0.6,0.5-0.9
				c0.2-0.3,0.4-0.5,0.7-0.8c0.2-0.2,0.5-0.4,0.8-0.5s0.6-0.2,0.9-0.2c0.5,0,0.9,0.1,1.3,0.3c0.4,0.2,0.8,0.5,1.1,0.8
				c0.3,0.4,0.6,0.8,0.8,1.2c0.2,0.5,0.4,0.9,0.5,1.4c0.1,0.5,0.2,1,0.3,1.5c0,0.5,0,0.9,0,1.4c-0.1,0.6-0.2,1.2-0.4,1.7
				c-0.2,0.5-0.5,1-0.8,1.5c-0.3,0.5-0.7,0.9-1.2,1.2c-0.4,0.4-0.9,0.7-1.4,1c-0.5,0.3-1.1,0.5-1.7,0.7c-0.6,0.2-1.2,0.3-1.8,0.4
				L1907.3,1119.4z M1911.1,1111.1c-0.1,0-0.2,0-0.4,0.1c-0.1,0.1-0.3,0.2-0.4,0.4c-0.1,0.2-0.2,0.3-0.3,0.6
				c-0.1,0.2-0.1,0.4-0.1,0.6c0,0.2,0.1,0.3,0.2,0.4c0.1,0.1,0.3,0.2,0.4,0.3c0.2,0.1,0.4,0.1,0.6,0.2s0.4,0.1,0.7,0.1
				c0.2,0,0.4,0,0.6,0h0.5c-0.1-0.3-0.2-0.6-0.3-0.9c-0.1-0.3-0.2-0.6-0.4-0.8c-0.1-0.2-0.3-0.4-0.5-0.6
				C1911.6,1111.2,1911.4,1111.1,1911.1,1111.1z"/>
			<path class="st2" d="M1920.4,1111.5c0.1,0.4,0.2,0.8,0.3,1.2c0.1,0.4,0.2,0.8,0.3,1.2c0.1,0.4,0.1,0.8,0.1,1.1
				c0,0.5-0.1,1-0.2,1.5c-0.1,0.5-0.3,0.9-0.6,1.4c-0.2,0.4-0.5,0.9-0.9,1.3c-0.3,0.4-0.7,0.8-1.1,1.2c-0.4,0.4-0.9,0.7-1.3,1
				c-0.5,0.3-1,0.6-1.5,0.8l-1.4-2c0.4-0.2,0.8-0.4,1.2-0.6c0.4-0.2,0.8-0.5,1.1-0.8c0.4-0.3,0.7-0.6,1-0.9c0.3-0.3,0.6-0.6,0.8-0.9
				c0.2-0.3,0.4-0.6,0.5-0.9c0.1-0.3,0.2-0.6,0.2-0.9c0-0.2,0-0.5-0.1-0.7c-0.1-0.3-0.1-0.5-0.2-0.8c-0.1-0.3-0.2-0.6-0.4-1
				c-0.1-0.3-0.3-0.7-0.5-1.1l2.3-1C1920.2,1110.8,1920.3,1111.1,1920.4,1111.5z"/>
			<path class="st2" d="M1944,1116.1c-0.4-0.1-0.7-0.2-1-0.3c-0.3-0.1-0.6-0.3-0.8-0.6c-0.2-0.2-0.5-0.5-0.6-0.9
				c-0.8,0.6-1.7,1.1-2.7,1.4c-1.1,0.3-2.3,0.5-3.7,0.5c-1.8,0-3.4-0.2-4.6-0.6c-1.2-0.4-2.1-1-2.6-1.9c-0.2-0.3-0.3-0.6-0.4-1
				c-0.1-0.4-0.1-0.8-0.1-1.2c0-0.4,0.1-0.9,0.3-1.4c0.1-0.5,0.3-1,0.6-1.5l1.9,1.1c-0.1,0.2-0.2,0.4-0.3,0.7
				c-0.1,0.2-0.2,0.5-0.2,0.7c-0.1,0.2-0.1,0.5-0.1,0.7c0,0.2,0.1,0.4,0.1,0.6c0.2,0.3,0.4,0.5,0.8,0.7c0.3,0.2,0.8,0.3,1.2,0.4
				c0.5,0.1,1,0.1,1.6,0.2c0.6,0,1.1,0,1.8,0c0.6,0,1.1,0,1.6-0.1c0.5,0,1-0.1,1.4-0.2c0.4-0.1,0.8-0.2,1.1-0.3
				c0.3-0.1,0.6-0.3,0.9-0.5c0.2-0.2,0.4-0.4,0.5-0.6c0.1-0.2,0.3-0.4,0.4-0.7c0.1-0.2,0.2-0.5,0.2-0.8c0.1-0.3,0.1-0.5,0.2-0.8
				l2.2,0.6l-0.3,1.7c0,0.2,0,0.5,0,0.7c0.1,0.2,0.2,0.4,0.3,0.5c0.2,0.2,0.4,0.3,0.6,0.4c0.3,0.1,0.6,0.1,0.9,0.1h0.3v2.5h-0.3
				C1944.7,1116.2,1944.3,1116.2,1944,1116.1z M1935.7,1107.8l-1.5,1.5l-1.5-1.5l1.5-1.5L1935.7,1107.8l1.5-1.6l1.5,1.5l-1.5,1.5
				L1935.7,1107.8z"/>
			<path class="st2" d="M1945.1,1113.7h0.6c0.1,0,0.2,0,0.4,0c0.1,0,0.2,0,0.4,0c0.1,0,0.2,0,0.3-0.1c-0.1-0.1-0.2-0.2-0.3-0.3
				c-0.1-0.1-0.2-0.3-0.2-0.4c-0.1-0.1-0.1-0.3-0.2-0.5c0-0.2-0.1-0.4-0.1-0.6c0-0.3,0-0.6,0.1-0.9c0.1-0.3,0.2-0.6,0.3-0.9
				c0.1-0.3,0.3-0.6,0.5-0.8c0.2-0.3,0.4-0.5,0.7-0.7c0.3-0.2,0.5-0.3,0.8-0.4c0.3-0.1,0.6-0.1,0.9-0.1c0.5,0,0.9,0.1,1.3,0.4
				c0.4,0.2,0.7,0.5,1,0.8c0.3,0.3,0.5,0.7,0.7,1.2c0.2,0.4,0.2,0.9,0.2,1.3c0,0.4-0.1,0.7-0.2,1.1c-0.1,0.4-0.3,0.7-0.5,1
				c0.1,0,0.3,0.1,0.5,0.1c0.2,0,0.5,0,0.8,0h0.2v2.5h-0.3c-0.3,0-0.7,0-1,0c-0.3,0-0.6-0.1-0.9-0.1c-0.3,0-0.6-0.1-0.9-0.2
				c-0.3-0.1-0.6-0.2-0.9-0.3c-0.2,0.1-0.4,0.2-0.7,0.3c-0.3,0.1-0.6,0.1-1,0.2c-0.3,0-0.7,0.1-1.1,0.1c-0.4,0-0.8,0-1.1,0h-0.3
				V1113.7z M1949.2,1106.8l-1.8-1.8l1.8-1.8l1.8,1.8L1949.2,1106.8z M1950.5,1111.7c0-0.2,0-0.3-0.1-0.5c-0.1-0.2-0.2-0.3-0.3-0.4
				c-0.1-0.1-0.2-0.2-0.4-0.3c-0.1-0.1-0.3-0.1-0.4-0.2c-0.1,0-0.3,0.1-0.4,0.1c-0.2,0.1-0.3,0.2-0.4,0.3c-0.1,0.1-0.3,0.3-0.4,0.5
				c-0.1,0.2-0.1,0.4-0.1,0.6c0,0.1,0,0.2,0.1,0.3c0.1,0.1,0.2,0.3,0.3,0.4c0.1,0.1,0.3,0.3,0.4,0.4c0.2,0.1,0.3,0.2,0.5,0.3
				c0.1-0.1,0.3-0.2,0.4-0.3c0.1-0.1,0.3-0.3,0.4-0.4c0.1-0.1,0.2-0.3,0.3-0.4C1950.5,1112,1950.5,1111.9,1950.5,1111.7z"/>
			<path class="st2" d="M1953.1,1113.7h0.5c0.1,0,0.1,0,0.2,0c0.1,0,0.2,0,0.3,0c0.1,0,0.3,0,0.5,0c-0.2-0.3-0.3-0.7-0.4-1
				c-0.1-0.4-0.1-0.7-0.1-1.1c0-0.6,0.1-1.1,0.3-1.6c0.2-0.5,0.5-1,1-1.3l-0.4-0.2l1.5-2.2c0.7,0.3,1.3,0.7,2,1
				c0.6,0.3,1.3,0.6,1.9,0.9c0.5,0.2,0.9,0.4,1.3,0.6c0.4,0.2,0.7,0.4,1,0.5c0.3,0.2,0.6,0.4,0.8,0.5s0.5,0.4,0.7,0.7
				c0.3,0.3,0.5,0.7,0.6,1.1c0.1,0.4,0.2,0.8,0.2,1.2c0,0.6-0.2,1.1-0.5,1.7c-0.3,0.5-0.8,1-1.3,1.3c-0.2,0.1-0.4,0.2-0.6,0.2
				c-0.2,0.1-0.5,0.1-0.8,0.2c-0.3,0-0.5,0.1-0.8,0.1c-0.3,0-0.5,0-0.7,0c-0.2,0-0.5,0-0.7,0s-0.5,0-0.8-0.1c-0.3,0-0.5-0.1-0.8-0.2
				c-0.2-0.1-0.5-0.1-0.7-0.2c-0.3,0.1-0.5,0.1-0.9,0.2c-0.3,0.1-0.6,0.1-1,0.1c-0.3,0-0.7,0.1-1.1,0.1c-0.4,0-0.7,0-1.1,0h-0.3
				V1113.7z M1957.6,1109.9c-0.2,0-0.4,0-0.5,0.2c-0.2,0.1-0.4,0.3-0.5,0.5c-0.2,0.2-0.3,0.4-0.4,0.7c-0.1,0.2-0.1,0.5-0.1,0.7
				c0,0.1,0.1,0.3,0.2,0.4c0.1,0.1,0.2,0.3,0.3,0.4c0.1,0.1,0.3,0.3,0.4,0.4c0.1,0.1,0.3,0.2,0.4,0.2c0.2,0,0.4-0.1,0.6-0.1
				c0.2-0.1,0.4-0.2,0.5-0.3c0.2-0.1,0.3-0.3,0.4-0.6c0.1-0.2,0.1-0.5,0.1-0.9c0-0.2,0-0.3-0.1-0.5c-0.1-0.2-0.2-0.3-0.4-0.5
				c-0.1-0.1-0.3-0.3-0.4-0.3C1957.9,1109.9,1957.8,1109.9,1957.6,1109.9z M1961.1,1111c0,0.3,0,0.5-0.1,0.8
				c-0.1,0.3-0.1,0.5-0.2,0.8c-0.1,0.3-0.2,0.5-0.3,0.7c-0.1,0.2-0.2,0.4-0.4,0.6h0.1c0.4,0,0.7,0,1.1,0c0.3,0,0.6-0.1,0.8-0.2
				c0.2-0.1,0.4-0.2,0.6-0.4c0.1-0.2,0.2-0.4,0.2-0.6c0-0.1,0-0.3-0.2-0.4c-0.1-0.2-0.3-0.3-0.4-0.5c-0.2-0.2-0.4-0.3-0.6-0.4
				C1961.5,1111.3,1961.3,1111.1,1961.1,1111z"/>
		</g>
		<g>
			<path class="st2" d="M1174.9,1116.8c-0.7,0-1.2-0.1-1.7-0.3c-0.5-0.2-0.8-0.4-1.1-0.7c-0.3-0.3-0.5-0.7-0.6-1.1
				c-0.1-0.4-0.2-0.9-0.2-1.4c0-0.3,0-0.6,0-0.9c0-0.4,0-0.8,0-1.3c0-0.5,0-1,0-1.6c0-0.6,0-1.2,0-1.8c0-0.6-0.1-1.2-0.1-1.7
				c0-0.5-0.1-1-0.2-1.4l2.4-0.7c0.1,0.3,0.1,0.8,0.2,1.2c0,0.5,0.1,1,0.1,1.5c0,0.5,0,1,0.1,1.6c0,0.5,0,1,0,1.5c0,0.4,0,0.8,0,1.2
				s0,0.9,0,1.3c0,0.4,0,0.8,0,1.1s0.1,0.6,0.1,0.7c0,0.1,0.1,0.2,0.2,0.3c0.1,0.1,0.2,0.1,0.2,0.1c0.1,0,0.2,0,0.3,0.1
				c0.1,0,0.2,0,0.4,0h0.2v2.5H1174.9z"/>
			<path class="st2" d="M1181.9,1114.3v2.5h-0.2c-0.3,0-0.5,0-0.7-0.1c-0.2,0-0.5-0.1-0.7-0.2c-0.2-0.1-0.4-0.2-0.6-0.3
				c-0.2-0.1-0.3-0.2-0.5-0.3c-0.2,0.2-0.5,0.3-0.9,0.5c-0.3,0.1-0.7,0.2-1,0.3c-0.4,0.1-0.7,0.1-1.1,0.1c-0.4,0-0.7,0-1.1,0h-0.3
				v-2.5h0.3c0.4,0,0.7,0,1,0c0.3,0,0.6-0.1,0.8-0.1c0.2-0.1,0.4-0.1,0.6-0.2c0.2-0.1,0.3-0.2,0.4-0.3c0.1-0.2,0.2-0.4,0.2-0.6
				c0-0.2,0-0.4,0-0.6c0-0.2-0.1-0.4-0.1-0.7c-0.1-0.2-0.1-0.4-0.2-0.6l2.3-0.7c0.1,0.2,0.1,0.5,0.2,0.6c0,0.2,0.1,0.4,0.1,0.6
				c0,0.2,0.1,0.4,0.1,0.6c0,0.2,0.1,0.4,0.1,0.6c0,0.1,0,0.3,0.1,0.5c0,0.2,0.1,0.3,0.2,0.5c0.1,0.1,0.2,0.3,0.3,0.4
				c0.1,0.1,0.3,0.1,0.6,0.1H1181.9z M1177.9,1119.1l-1.5,1.5l-1.5-1.5l1.5-1.5L1177.9,1119.1l1.5-1.6l1.5,1.5l-1.5,1.5
				L1177.9,1119.1z"/>
			<path class="st2" d="M1181.5,1114.3h1.1c0.2,0,0.5,0,0.7-0.1c0.3,0,0.5-0.1,0.7-0.2c0.2-0.1,0.4-0.2,0.6-0.3
				c0.2-0.1,0.2-0.3,0.2-0.5c0-0.1,0-0.3-0.1-0.6c-0.1-0.3-0.2-0.5-0.3-0.8c-0.1-0.3-0.3-0.6-0.4-1c-0.2-0.3-0.3-0.7-0.5-1l2.3-1.1
				c0.1,0.3,0.3,0.7,0.4,1.1s0.3,0.8,0.4,1.1c0.1,0.4,0.2,0.8,0.3,1.2c0.1,0.4,0.1,0.7,0.1,1.1c0,0.6-0.1,1.2-0.3,1.6
				c-0.2,0.5-0.5,0.8-0.9,1.1c-0.4,0.3-0.8,0.5-1.4,0.6c-0.5,0.1-1.1,0.2-1.7,0.2h-1.3V1114.3z M1184.1,1107.9l-1.8-1.8l1.8-1.8
				l1.8,1.8L1184.1,1107.9z"/>
			<path class="st2" d="M1189.5,1113.5c0.3,0.1,0.6,0.3,0.9,0.4c0.3,0.1,0.6,0.2,0.9,0.3c0.3,0.1,0.6,0.1,0.8,0.1c0.1,0,0.3,0,0.5,0
				c0.2,0,0.4-0.1,0.6-0.1c0.2-0.1,0.4-0.1,0.5-0.3s0.2-0.3,0.2-0.4c0-0.2-0.1-0.4-0.2-0.7c-0.1-0.3-0.3-0.5-0.5-0.8
				c-0.2-0.3-0.5-0.6-0.8-0.9c-0.3-0.3-0.6-0.6-0.9-0.8s-0.6-0.5-0.9-0.7c-0.3-0.2-0.6-0.4-0.8-0.6l1.4-2.1c0.5,0.4,1,0.8,1.5,1.2
				c0.5,0.4,1,0.9,1.4,1.4c0.4,0.5,0.8,1,1.1,1.5c0.3,0.5,0.5,1.1,0.7,1.6c0,0.2,0.1,0.3,0.1,0.5c0,0.2,0,0.3,0,0.4
				c0,0.5-0.1,0.9-0.3,1.4c-0.2,0.4-0.5,0.8-0.8,1.1c-0.3,0.3-0.7,0.5-1.2,0.7c-0.5,0.2-1,0.2-1.6,0.2c0,0-0.1,0-0.1,0
				c0,0-0.1,0-0.1,0c-0.4,0-0.7,0-1.1-0.1c-0.4-0.1-0.8-0.2-1.1-0.3c-0.4-0.1-0.7-0.3-1.1-0.4c-0.4-0.2-0.7-0.3-1-0.5l1-2.4
				C1188.9,1113.2,1189.2,1113.4,1189.5,1113.5z"/>
			<path class="st2" d="M1208.7,1116.8c-0.6,0-1.2,0-1.7-0.1s-1.1-0.1-1.6-0.2c-0.5-0.1-1.1-0.2-1.6-0.4c-0.5-0.2-1.1-0.4-1.7-0.7
				l0.9-2.3c0.9,0.3,1.6,0.6,2.1,0.7c0.1-0.1,0.2-0.3,0.3-0.5c0.1-0.2,0.3-0.4,0.5-0.6c0-0.2,0.1-0.5,0.1-0.7c0-0.2,0-0.4,0.1-0.6
				c0-0.2,0-0.4,0-0.5c0-0.2,0-0.3,0-0.5c0-0.2,0-0.6,0-0.9c0-0.4,0-0.8-0.1-1.2c0-0.4-0.1-0.9-0.1-1.3c0-0.4-0.1-0.8-0.1-1.2
				c0-0.4-0.1-0.7-0.1-0.9c0-0.3-0.1-0.4-0.1-0.5l2.5-0.7l0.1,0.8c0,0.4,0.1,0.8,0.1,1.2c0,0.4,0.1,0.9,0.1,1.3
				c0,0.5,0.1,0.9,0.1,1.4c0,0.5,0,0.9,0.1,1.4c0.3-0.2,0.5-0.4,0.7-0.6c0.2-0.2,0.5-0.3,0.8-0.5c0.3-0.1,0.6-0.2,0.9-0.3
				c0.3-0.1,0.7-0.1,1.1-0.1c0.4,0,0.8,0,1.2,0.2c0.4,0.1,0.8,0.3,1.1,0.6c0.3,0.3,0.6,0.6,0.8,0.9c0.2,0.4,0.4,0.8,0.4,1.3
				c0,0.7-0.1,1.3-0.3,1.8c-0.2,0.5-0.5,1-0.8,1.4c-0.4,0.4-0.8,0.7-1.2,1s-1,0.5-1.5,0.7c-0.5,0.2-1,0.3-1.6,0.4
				C1209.7,1116.8,1209.2,1116.8,1208.7,1116.8z M1212.1,1111c-0.3,0-0.7,0.1-1.1,0.2c-0.4,0.2-0.8,0.4-1.2,0.7
				c-0.4,0.3-0.8,0.6-1.2,1.1c-0.4,0.4-0.8,0.9-1.1,1.4c0.2,0,0.4,0,0.6,0c0.2,0,0.4,0,0.6,0c0.8,0,1.5-0.1,2.1-0.2
				c0.6-0.2,1.2-0.4,1.6-0.6c0.4-0.2,0.8-0.5,1-0.8c0.2-0.3,0.3-0.6,0.3-0.8c0-0.2-0.1-0.3-0.2-0.4c-0.1-0.1-0.3-0.2-0.4-0.3
				s-0.3-0.1-0.5-0.2C1212.3,1111,1212.2,1111,1212.1,1111z"/>
			<path class="st2" d="M1221.1,1116.8c-0.7,0-1.2-0.1-1.7-0.3c-0.5-0.2-0.8-0.4-1.1-0.7c-0.3-0.3-0.5-0.7-0.6-1.1
				c-0.1-0.4-0.2-0.9-0.2-1.4c0-0.3,0-0.6,0-0.9c0-0.4,0-0.8,0-1.3c0-0.5,0-1,0-1.6c0-0.6,0-1.2,0-1.8s-0.1-1.2-0.1-1.7
				c0-0.5-0.1-1-0.2-1.4l2.4-0.7c0.1,0.3,0.1,0.8,0.2,1.2c0,0.5,0.1,1,0.1,1.5c0,0.5,0,1,0.1,1.6c0,0.5,0,1,0,1.5c0,0.4,0,0.8,0,1.2
				c0,0.4,0,0.9,0,1.3c0,0.4,0,0.8,0,1.1c0,0.3,0.1,0.6,0.1,0.7c0,0.1,0.1,0.2,0.2,0.3c0.1,0.1,0.2,0.1,0.2,0.1c0.1,0,0.2,0,0.3,0.1
				c0.1,0,0.2,0,0.4,0h0.2v2.5H1221.1z"/>
			<path class="st2" d="M1221,1114.3h0.6c0.1,0,0.2,0,0.4,0c0.1,0,0.2,0,0.4,0c0.1,0,0.2,0,0.3-0.1c-0.1-0.1-0.2-0.2-0.3-0.3
				c-0.1-0.1-0.2-0.3-0.2-0.4c-0.1-0.1-0.1-0.3-0.2-0.5c0-0.2-0.1-0.4-0.1-0.6c0-0.3,0-0.6,0.1-0.9s0.2-0.6,0.3-0.9
				c0.1-0.3,0.3-0.6,0.5-0.8c0.2-0.3,0.4-0.5,0.7-0.7c0.3-0.2,0.5-0.3,0.8-0.4c0.3-0.1,0.6-0.1,0.9-0.1c0.5,0,0.9,0.1,1.3,0.4
				c0.4,0.2,0.7,0.5,1,0.8c0.3,0.3,0.5,0.7,0.7,1.2c0.2,0.4,0.2,0.9,0.2,1.3c0,0.4-0.1,0.7-0.2,1.1c-0.1,0.4-0.3,0.7-0.5,1
				c0.1,0,0.3,0.1,0.5,0.1c0.2,0,0.5,0,0.8,0h0.2v2.5h-0.3c-0.3,0-0.7,0-1,0c-0.3,0-0.6-0.1-0.9-0.1c-0.3,0-0.6-0.1-0.9-0.2
				c-0.3-0.1-0.6-0.2-0.9-0.3c-0.2,0.1-0.4,0.2-0.7,0.3c-0.3,0.1-0.6,0.1-1,0.2c-0.3,0-0.7,0.1-1.1,0.1c-0.4,0-0.8,0-1.1,0h-0.3
				V1114.3z M1225.1,1106l-1.5,1.5l-1.5-1.5l1.5-1.5L1225.1,1106l1.5-1.6l1.5,1.5l-1.5,1.5L1225.1,1106z M1226.4,1112.3
				c0-0.2,0-0.3-0.1-0.5c-0.1-0.2-0.2-0.3-0.3-0.4c-0.1-0.1-0.2-0.2-0.4-0.3c-0.1-0.1-0.3-0.1-0.4-0.2c-0.1,0-0.3,0.1-0.4,0.1
				s-0.3,0.2-0.4,0.3c-0.1,0.1-0.3,0.3-0.4,0.5c-0.1,0.2-0.1,0.4-0.1,0.6c0,0.1,0,0.2,0.1,0.3c0.1,0.1,0.2,0.3,0.3,0.4
				c0.1,0.1,0.3,0.3,0.4,0.4c0.2,0.1,0.3,0.2,0.5,0.3c0.1-0.1,0.3-0.2,0.4-0.3c0.1-0.1,0.3-0.3,0.4-0.4c0.1-0.1,0.2-0.3,0.3-0.4
				C1226.4,1112.6,1226.4,1112.4,1226.4,1112.3z"/>
			<path class="st2" d="M1229,1114.3h1.1c0.2,0,0.5,0,0.7-0.1c0.3,0,0.5-0.1,0.7-0.2c0.2-0.1,0.4-0.2,0.6-0.3
				c0.2-0.1,0.2-0.3,0.2-0.5c0-0.1,0-0.3-0.1-0.6c-0.1-0.3-0.2-0.5-0.3-0.8c-0.1-0.3-0.3-0.6-0.4-1c-0.2-0.3-0.3-0.7-0.5-1l2.3-1.1
				c0.1,0.3,0.3,0.7,0.4,1.1c0.1,0.4,0.3,0.8,0.4,1.1c0.1,0.4,0.2,0.8,0.3,1.2c0.1,0.4,0.1,0.7,0.1,1.1c0,0.6-0.1,1.2-0.3,1.6
				c-0.2,0.5-0.5,0.8-0.9,1.1c-0.4,0.3-0.8,0.5-1.4,0.6c-0.5,0.1-1.1,0.2-1.7,0.2h-1.3V1114.3z M1231.5,1107.9l-1.8-1.8l1.8-1.8
				l1.8,1.8L1231.5,1107.9z"/>
			<path class="st2" d="M1246.9,1122c-0.6,0-1.1,0-1.7-0.1c-0.5-0.1-1-0.2-1.5-0.4c-0.5-0.2-0.9-0.4-1.3-0.7c-0.4-0.3-0.7-0.6-1-1
				c-0.3-0.4-0.5-0.8-0.6-1.3c-0.2-0.5-0.2-1.1-0.2-1.7c0-0.5,0-0.9,0.1-1.3c0-0.4,0.1-0.8,0.2-1.2c0.1-0.4,0.2-0.8,0.3-1.3
				c0.1-0.4,0.3-0.9,0.5-1.3l2,0.8c-0.2,0.4-0.3,0.7-0.4,1c-0.1,0.3-0.2,0.6-0.3,0.8c-0.1,0.3-0.1,0.5-0.2,0.7
				c0,0.2-0.1,0.4-0.1,0.6c0,0.2,0,0.4,0,0.6s0,0.4,0,0.6c0,0.4,0.1,0.7,0.2,1c0.1,0.3,0.3,0.5,0.5,0.7c0.2,0.2,0.5,0.4,0.7,0.5
				c0.3,0.1,0.6,0.2,0.9,0.3c0.3,0.1,0.6,0.1,0.9,0.1c0.3,0,0.6,0,0.9,0c0.1,0,0.3,0,0.6,0c0.3,0,0.6-0.1,0.9-0.1
				c0.3,0,0.6-0.1,1-0.2c0.3-0.1,0.6-0.2,0.9-0.3c0.3-0.1,0.5-0.2,0.7-0.4c0.2-0.1,0.3-0.3,0.3-0.5c-0.4-0.3-0.9-0.5-1.6-0.8
				c-0.7-0.2-1.5-0.4-2.4-0.5l0.3-2.4h6.5v2.5h-1c0.1,0.2,0.2,0.4,0.2,0.6c0,0.2,0.1,0.4,0.1,0.6c0,0.5-0.2,0.9-0.4,1.3
				c-0.2,0.4-0.5,0.7-0.9,1c-0.4,0.3-0.8,0.5-1.2,0.8c-0.4,0.2-0.9,0.4-1.4,0.5c-0.5,0.1-0.9,0.2-1.4,0.3
				C1247.7,1121.9,1247.3,1122,1246.9,1122z"/>
			<path class="st2" d="M1260.7,1116.8c-0.3,0-0.6,0-1-0.1c-0.3-0.1-0.7-0.2-1-0.3c-0.3-0.1-0.6-0.2-0.9-0.4
				c-0.3-0.1-0.6-0.3-0.8-0.4c-0.2,0.2-0.4,0.4-0.6,0.6c-0.2,0.2-0.4,0.3-0.6,0.4c-0.2,0.1-0.5,0.2-0.7,0.2c-0.3,0-0.5,0.1-0.8,0.1
				h-0.4v-2.5h0.4c0.3,0,0.6-0.1,0.9-0.2s0.4-0.3,0.6-0.6c0.2-0.2,0.3-0.5,0.4-0.7c0.1-0.3,0.3-0.5,0.4-0.8c0.2-0.3,0.3-0.6,0.5-1
				c0.2-0.3,0.4-0.6,0.7-0.9s0.6-0.5,0.9-0.6c0.3-0.2,0.7-0.2,1.1-0.2c0.6,0,1,0.1,1.4,0.4c0.4,0.3,0.7,0.6,1,1
				c0.3,0.4,0.4,0.9,0.6,1.4c0.1,0.5,0.2,1.1,0.2,1.6c0,0.4-0.1,0.9-0.2,1.2c-0.1,0.4-0.3,0.7-0.5,1s-0.5,0.5-0.7,0.6
				C1261.2,1116.7,1260.9,1116.8,1260.7,1116.8z M1259.6,1111.7c-0.2,0-0.3,0.1-0.4,0.2c-0.1,0.1-0.3,0.3-0.4,0.4
				c-0.1,0.2-0.2,0.4-0.3,0.6c-0.1,0.2-0.2,0.4-0.2,0.6c0.2,0.1,0.4,0.2,0.6,0.3c0.2,0.1,0.5,0.2,0.7,0.2s0.5,0.1,0.7,0.2
				c0.2,0,0.5,0.1,0.7,0.1c0-0.3,0-0.6,0-1c-0.1-0.3-0.1-0.6-0.3-0.8c-0.1-0.2-0.3-0.4-0.4-0.6
				C1260,1111.8,1259.8,1111.7,1259.6,1111.7z"/>
			<path class="st2" d="M1268.1,1116.8c-0.7,0-1.2-0.1-1.7-0.3c-0.5-0.2-0.8-0.4-1.1-0.7c-0.3-0.3-0.5-0.7-0.6-1.1
				c-0.1-0.4-0.2-0.9-0.2-1.4c0-0.3,0-0.6,0-0.9c0-0.4,0-0.8,0-1.3c0-0.5,0-1,0-1.6c0-0.6,0-1.2,0-1.8s-0.1-1.2-0.1-1.7
				c0-0.5-0.1-1-0.2-1.4l2.4-0.7c0.1,0.3,0.1,0.8,0.2,1.2c0,0.5,0.1,1,0.1,1.5c0,0.5,0,1,0.1,1.6c0,0.5,0,1,0,1.5c0,0.4,0,0.8,0,1.2
				c0,0.4,0,0.9,0,1.3c0,0.4,0,0.8,0,1.1c0,0.3,0.1,0.6,0.1,0.7c0,0.1,0.1,0.2,0.2,0.3c0.1,0.1,0.2,0.1,0.2,0.1c0.1,0,0.2,0,0.3,0.1
				c0.1,0,0.2,0,0.4,0h0.2v2.5H1268.1z"/>
			<path class="st2" d="M1275,1116.8c-0.3,0-0.6,0-0.9-0.1c-0.4-0.1-0.7-0.1-1.1-0.2c-0.4-0.1-0.7-0.2-1.1-0.4s-0.7-0.3-0.9-0.5
				c-0.3,0.4-0.7,0.7-1.2,0.9c-0.4,0.2-1,0.3-1.6,0.3h-0.2v-2.5h0.2c0.3,0,0.6-0.1,0.9-0.2s0.4-0.3,0.6-0.5c0.2-0.2,0.3-0.5,0.5-0.7
				c0.1-0.3,0.3-0.5,0.4-0.8c0.2-0.3,0.3-0.6,0.5-1c0.2-0.3,0.4-0.6,0.7-0.9c0.3-0.3,0.5-0.5,0.9-0.6c0.3-0.2,0.7-0.2,1.1-0.2
				c0.5,0,1,0.1,1.3,0.3s0.7,0.4,0.9,0.8c0.2,0.3,0.4,0.7,0.6,1.1c0.1,0.4,0.3,0.9,0.4,1.3c0.1,0.5,0.2,0.8,0.3,1.1
				c0.1,0.3,0.2,0.4,0.3,0.4h0.2v2.5h-0.3c-0.3,0-0.6-0.1-0.8-0.2c-0.2-0.1-0.4-0.3-0.6-0.5c-0.1,0.1-0.1,0.2-0.2,0.2
				c-0.1,0.1-0.2,0.2-0.2,0.2c-0.1,0.1-0.1,0.1-0.2,0.2C1275.1,1116.7,1275.1,1116.8,1275,1116.8z M1273.6,1111.7
				c-0.2,0-0.3,0.1-0.4,0.2c-0.1,0.1-0.3,0.2-0.4,0.4c-0.1,0.2-0.2,0.3-0.3,0.5c-0.1,0.2-0.2,0.4-0.2,0.6c0.2,0.1,0.4,0.2,0.6,0.3
				c0.2,0.1,0.5,0.2,0.7,0.3c0.3,0.1,0.5,0.1,0.8,0.2c0.2,0.1,0.5,0.1,0.7,0.1c-0.1-0.3-0.1-0.6-0.2-0.9c-0.1-0.3-0.2-0.6-0.3-0.8
				c-0.1-0.2-0.2-0.4-0.4-0.6C1274,1111.8,1273.8,1111.7,1273.6,1111.7z"/>
			<path class="st2" d="M1277.3,1114.3h1.9c0.2,0,0.5,0,0.8,0c0.3,0,0.5-0.1,0.8-0.1c0.2-0.1,0.4-0.2,0.6-0.3
				c0.2-0.1,0.2-0.3,0.2-0.6c0-0.1,0-0.3-0.1-0.6c-0.1-0.3-0.2-0.5-0.3-0.8c-0.1-0.3-0.3-0.6-0.4-1c-0.2-0.3-0.3-0.7-0.5-1l2.3-1.1
				c0.1,0.3,0.3,0.7,0.4,1.1c0.1,0.4,0.3,0.8,0.4,1.1c0.1,0.4,0.2,0.8,0.3,1.2c0.1,0.4,0.1,0.7,0.1,1.1c0,0.7-0.1,1.2-0.4,1.7
				c-0.2,0.5-0.6,0.8-1,1.1c-0.4,0.3-0.9,0.5-1.4,0.6c-0.6,0.1-1.1,0.2-1.8,0.2h-1.9V1114.3z M1281,1106.1l-1.5,1.5l-1.5-1.5
				l1.5-1.5L1281,1106.1l1.5-1.6l1.5,1.5l-1.5,1.5L1281,1106.1z"/>
			<path class="st2" d="M1294.5,1112.1c0.1,0.4,0.2,0.8,0.3,1.2c0.1,0.4,0.2,0.8,0.3,1.2c0.1,0.4,0.1,0.8,0.1,1.1
				c0,0.5-0.1,1-0.2,1.5c-0.1,0.5-0.3,0.9-0.6,1.4c-0.2,0.4-0.5,0.9-0.9,1.3c-0.3,0.4-0.7,0.8-1.1,1.2c-0.4,0.4-0.9,0.7-1.3,1
				c-0.5,0.3-1,0.6-1.5,0.8l-1.4-2c0.4-0.2,0.8-0.4,1.2-0.6c0.4-0.2,0.8-0.5,1.1-0.8c0.4-0.3,0.7-0.6,1-0.9c0.3-0.3,0.6-0.6,0.8-0.9
				c0.2-0.3,0.4-0.6,0.5-0.9c0.1-0.3,0.2-0.6,0.2-0.9c0-0.2,0-0.5-0.1-0.7c-0.1-0.3-0.1-0.5-0.2-0.8c-0.1-0.3-0.2-0.6-0.4-1
				c-0.1-0.3-0.3-0.7-0.5-1.1l2.3-1C1294.2,1111.3,1294.3,1111.7,1294.5,1112.1z"/>
			<path class="st2" d="M1297.5,1113.5c0.3,0.1,0.6,0.3,0.9,0.4c0.3,0.1,0.6,0.2,0.9,0.3c0.3,0.1,0.6,0.1,0.8,0.1c0.1,0,0.3,0,0.5,0
				c0.2,0,0.4-0.1,0.6-0.1c0.2-0.1,0.4-0.1,0.5-0.3s0.2-0.3,0.2-0.4c0-0.2-0.1-0.4-0.2-0.7c-0.1-0.3-0.3-0.5-0.5-0.8
				c-0.2-0.3-0.5-0.6-0.8-0.9c-0.3-0.3-0.6-0.6-0.9-0.8s-0.6-0.5-0.9-0.7c-0.3-0.2-0.6-0.4-0.8-0.6l1.4-2.1c0.5,0.4,1,0.8,1.5,1.2
				c0.5,0.4,1,0.9,1.4,1.4c0.4,0.5,0.8,1,1.1,1.5c0.3,0.5,0.5,1.1,0.7,1.6c0,0.2,0.1,0.3,0.1,0.5c0,0.2,0,0.3,0,0.4
				c0,0.5-0.1,0.9-0.3,1.4c-0.2,0.4-0.5,0.8-0.8,1.1c-0.3,0.3-0.7,0.5-1.2,0.7c-0.5,0.2-1,0.2-1.6,0.2c0,0-0.1,0-0.1,0
				c0,0-0.1,0-0.1,0c-0.4,0-0.7,0-1.1-0.1c-0.4-0.1-0.8-0.2-1.1-0.3c-0.4-0.1-0.7-0.3-1.1-0.4c-0.4-0.2-0.7-0.3-1-0.5l1-2.4
				C1297,1113.2,1297.2,1113.4,1297.5,1113.5z"/>
			<path class="st2" d="M1312.4,1115.3c-0.1,0.5-0.2,1-0.2,1.5c0,0.4,0.1,0.7,0.3,1c0.2,0.3,0.4,0.6,0.7,0.9c0.3,0.2,0.6,0.4,1,0.6
				c0.4,0.1,0.7,0.2,1.1,0.2c0.2,0,0.5,0,0.7-0.1c0.3,0,0.5-0.1,0.8-0.2c0.3-0.1,0.5-0.2,0.7-0.4c0.2-0.2,0.4-0.4,0.6-0.6
				c0.2-0.2,0.3-0.5,0.4-0.8c0.1-0.3,0.2-0.6,0.2-1c0-0.4,0-0.9,0-1.5c0-0.6-0.1-1.2-0.1-1.8c0-0.6-0.1-1.3-0.1-2
				c0-0.7-0.1-1.3-0.1-2c-0.1-0.8-0.1-1.6-0.2-2.3c-0.1-0.8-0.1-1.6-0.2-2.4l2.5-0.6c0,0.9,0.1,1.8,0.1,2.6c0,0.8,0.1,1.7,0.1,2.5
				c0,0.7,0.1,1.4,0.1,2.1c0,0.7,0,1.4,0.1,2.1c0,0.2,0.1,0.3,0.1,0.5c0.1,0.1,0.1,0.3,0.2,0.4c0.1,0.1,0.2,0.2,0.4,0.3
				c0.1,0.1,0.3,0.1,0.5,0.1h0.2v2.5h-0.2c-0.2,0-0.4,0-0.6,0c-0.2,0-0.4-0.1-0.6-0.1c0,0.7-0.1,1.3-0.3,1.8c-0.2,0.5-0.4,1-0.7,1.4
				c-0.3,0.4-0.6,0.7-1,1c-0.4,0.3-0.8,0.5-1.2,0.7c-0.4,0.2-0.8,0.3-1.2,0.4c-0.4,0.1-0.8,0.1-1.2,0.1c-0.4,0-0.9-0.1-1.3-0.2
				c-0.4-0.1-0.8-0.3-1.2-0.5c-0.4-0.2-0.8-0.4-1.1-0.7c-0.3-0.3-0.6-0.6-0.9-1c-0.2-0.4-0.4-0.8-0.6-1.2c-0.1-0.4-0.2-0.9-0.2-1.4
				c0-0.3,0-0.7,0.1-1c0-0.3,0.1-0.7,0.2-1c0.1-0.3,0.2-0.7,0.3-1c0.1-0.3,0.2-0.6,0.4-0.9l2,1
				C1312.7,1114.4,1312.5,1114.8,1312.4,1115.3z"/>
			<path class="st2" d="M1321.9,1114.3h1.9c0.2,0,0.5,0,0.8,0c0.3,0,0.5-0.1,0.8-0.1c0.2-0.1,0.4-0.2,0.6-0.3
				c0.2-0.1,0.2-0.3,0.2-0.6c0-0.1,0-0.3-0.1-0.6c-0.1-0.3-0.2-0.5-0.3-0.8c-0.1-0.3-0.3-0.6-0.4-1c-0.2-0.3-0.3-0.7-0.5-1l2.3-1.1
				c0.1,0.3,0.3,0.7,0.4,1.1c0.1,0.4,0.3,0.8,0.4,1.1c0.1,0.4,0.2,0.8,0.3,1.2c0.1,0.4,0.1,0.7,0.1,1.1c0,0.7-0.1,1.2-0.4,1.7
				c-0.2,0.5-0.6,0.8-1,1.1c-0.4,0.3-0.9,0.5-1.4,0.6c-0.6,0.1-1.1,0.2-1.8,0.2h-1.9V1114.3z M1325,1119.1l-1.5,1.5l-1.5-1.5
				l1.5-1.5L1325,1119.1l1.5-1.6l1.5,1.5l-1.5,1.5L1325,1119.1z"/>
			<path class="st2" d="M1328.9,1119.9c0.7-0.1,1.4-0.3,2-0.6c0.6-0.2,1.1-0.5,1.6-0.8c0.5-0.3,0.8-0.6,1.1-0.9
				c0.3-0.3,0.5-0.6,0.6-1c-0.2,0-0.5,0-0.7,0c-0.3,0-0.5,0-0.6,0c-0.5,0-1-0.1-1.4-0.3c-0.4-0.2-0.8-0.4-1.1-0.6
				c-0.3-0.3-0.5-0.6-0.7-1c-0.2-0.4-0.3-0.8-0.3-1.3c0-0.3,0-0.7,0.1-1c0.1-0.3,0.2-0.7,0.3-1c0.1-0.3,0.3-0.6,0.5-0.9
				c0.2-0.3,0.4-0.5,0.7-0.8c0.2-0.2,0.5-0.4,0.8-0.5s0.6-0.2,0.9-0.2c0.4,0,0.8,0.1,1.1,0.2c0.3,0.1,0.6,0.3,0.9,0.6
				c0.3,0.2,0.5,0.5,0.8,0.9c0.2,0.3,0.4,0.7,0.6,1.1c0.2,0.4,0.3,0.8,0.4,1.2c0.1,0.4,0.2,0.8,0.2,1.2h0.3v2.5h-0.5
				c-0.2,0.8-0.5,1.5-1,2.1c-0.5,0.6-1,1.2-1.6,1.7c-0.6,0.5-1.3,0.9-2.1,1.2c-0.8,0.3-1.6,0.5-2.4,0.6L1328.9,1119.9z
				 M1332.8,1111.6c-0.1,0-0.2,0-0.4,0.1c-0.1,0.1-0.3,0.2-0.4,0.4c-0.1,0.2-0.2,0.3-0.3,0.6c-0.1,0.2-0.1,0.4-0.1,0.6
				c0,0.2,0.1,0.3,0.2,0.4s0.3,0.2,0.4,0.3c0.2,0.1,0.4,0.1,0.6,0.2c0.2,0,0.4,0.1,0.7,0.1c0.2,0,0.4,0,0.6,0h0.5
				c-0.1-0.3-0.2-0.6-0.3-0.9c-0.1-0.3-0.2-0.6-0.4-0.8c-0.1-0.2-0.3-0.4-0.5-0.6C1333.2,1111.8,1333,1111.7,1332.8,1111.6z"/>
			<path class="st2" d="M1336.8,1114.3h1.6c0.4,0,0.8,0,1.2-0.1c0.4-0.1,0.9-0.1,1.3-0.2c0.4-0.1,0.9-0.2,1.4-0.3
				c0.5-0.1,0.9-0.3,1.3-0.4s0.8-0.3,1.2-0.5c0.4-0.2,0.8-0.3,1.1-0.5c-0.3-0.1-0.7-0.2-1.1-0.3c-0.4-0.1-0.8-0.3-1.2-0.4
				c-0.4-0.1-0.8-0.3-1.2-0.4c-0.4-0.1-0.7-0.1-1-0.1c-0.2,0-0.4,0-0.6,0.1c-0.2,0.1-0.4,0.2-0.5,0.3c-0.2,0.1-0.3,0.2-0.4,0.4
				c-0.1,0.1-0.2,0.3-0.3,0.4c-0.1,0.1-0.2,0.2-0.2,0.3l-0.1,0.1l-1.9-1.1c0.2-0.4,0.5-0.8,0.8-1.1c0.3-0.4,0.6-0.7,1-1
				c0.3-0.3,0.7-0.5,1.1-0.7c0.4-0.2,0.8-0.2,1.2-0.2c0.3,0,0.6,0,0.9,0.1c0.3,0.1,0.6,0.1,0.9,0.2c0.3,0.1,0.6,0.2,0.9,0.3
				c0.3,0.1,0.6,0.3,0.9,0.4c0.3,0.1,0.6,0.3,1,0.4c0.4,0.1,0.7,0.3,1.1,0.4s0.8,0.2,1.2,0.3c0.4,0.1,0.8,0.1,1.2,0.1l-0.4,2.3
				c-0.1,0.1-0.3,0.1-0.4,0.2c-0.2,0.1-0.3,0.1-0.4,0.2l-0.2,0.1c0.1,0.1,0.3,0.3,0.5,0.3c0.2,0.1,0.4,0.1,0.6,0.2
				c0.2,0,0.4,0.1,0.6,0.1c0.2,0,0.3,0,0.4,0h0.3v2.5h-0.3c-0.5,0-1,0-1.4-0.1c-0.4-0.1-0.9-0.2-1.2-0.4c-0.4-0.2-0.7-0.4-1-0.6
				c-0.3-0.2-0.5-0.5-0.7-0.8c-0.5,0.3-1.1,0.5-1.6,0.7c-0.6,0.2-1.2,0.5-1.8,0.6c-0.6,0.2-1.2,0.3-1.9,0.4c-0.7,0.1-1.3,0.2-2,0.2
				h-1.6V1114.3z"/>
			<path class="st2" d="M1350,1114.3h1.9c0.2,0,0.5,0,0.8,0c0.3,0,0.5-0.1,0.8-0.1c0.2-0.1,0.4-0.2,0.6-0.3c0.2-0.1,0.2-0.3,0.2-0.6
				c0-0.1,0-0.3-0.1-0.6c-0.1-0.3-0.2-0.5-0.3-0.8c-0.1-0.3-0.3-0.6-0.4-1c-0.2-0.3-0.3-0.7-0.5-1l2.3-1.1c0.1,0.3,0.3,0.7,0.4,1.1
				c0.1,0.4,0.3,0.8,0.4,1.1c0.1,0.4,0.2,0.8,0.3,1.2c0.1,0.4,0.1,0.7,0.1,1.1c0,0.7-0.1,1.2-0.4,1.7c-0.2,0.5-0.6,0.8-1,1.1
				c-0.4,0.3-0.9,0.5-1.4,0.6c-0.6,0.1-1.1,0.2-1.8,0.2h-1.9V1114.3z M1353.7,1106.1l-1.5,1.5l-1.5-1.5l1.5-1.5L1353.7,1106.1
				l1.5-1.6l1.5,1.5l-1.5,1.5L1353.7,1106.1z"/>
		</g>
		<g>
			<path class="st2" d="M1400.7,1121c-0.8,0-1.5-0.1-2.1-0.4c-0.6-0.2-1.2-0.5-1.6-1c-0.4-0.4-0.8-0.9-1-1.5
				c-0.2-0.6-0.3-1.3-0.3-2.1c0-0.4,0-0.8,0.1-1.2c0.1-0.4,0.2-0.8,0.3-1.2c0.1-0.4,0.3-0.8,0.4-1.1s0.3-0.7,0.5-1l1,0.7
				c-0.1,0.1-0.2,0.4-0.3,0.6c-0.1,0.3-0.2,0.6-0.3,0.9c-0.1,0.3-0.2,0.7-0.3,1.1c-0.1,0.4-0.1,0.8-0.1,1.2c0,0.2,0,0.5,0.1,0.8
				c0,0.3,0.1,0.5,0.2,0.8c0.1,0.3,0.2,0.5,0.4,0.7c0.2,0.2,0.4,0.4,0.7,0.6c0.3,0.2,0.6,0.3,1,0.4c0.4,0.1,0.9,0.2,1.4,0.2
				c0.1,0,0.1,0,0.2,0c0.6,0,1.2-0.1,1.8-0.3c0.5-0.2,1-0.4,1.4-0.8c0.4-0.4,0.7-0.8,0.9-1.3c0.2-0.5,0.3-1.1,0.3-1.7
				c0-0.5,0-0.9-0.1-1.3c-0.1-0.4-0.2-0.8-0.3-1.2c-0.1-0.4-0.3-0.7-0.4-0.9c-0.1-0.3-0.3-0.5-0.3-0.6l1.1-0.7
				c0,0.1,0.1,0.2,0.2,0.3c0.1,0.2,0.2,0.3,0.3,0.6c0.1,0.2,0.2,0.5,0.3,0.8c0.1,0.3,0.2,0.6,0.3,0.9c0.1,0.3,0.2,0.7,0.2,1
				c0.1,0.4,0.1,0.7,0.1,1.1c0,0.8-0.1,1.6-0.4,2.3c-0.3,0.7-0.7,1.2-1.2,1.7c-0.5,0.5-1.1,0.8-1.8,1.1c-0.6,0.2-1.3,0.3-2,0.3
				C1400.9,1121,1400.8,1121,1400.7,1121z M1402.3,1110.6l-1.2,1.2l-1.2-1.2l1.2-1.2L1402.3,1110.6z"/>
			<path class="st2" d="M1412.4,1115.5c-0.5,0-0.9-0.1-1.3-0.2c-0.4-0.1-0.7-0.3-1-0.5c-0.3-0.2-0.5-0.5-0.6-0.9
				c-0.1-0.4-0.2-0.8-0.2-1.3c0-0.4,0-0.8,0-1.3c0-0.5,0-1,0-1.5c0-0.5,0-1,0-1.6s0-1.1,0-1.6c0-0.5,0-1-0.1-1.4
				c0-0.4-0.1-0.8-0.1-1.2l1.2-0.2c0,0.3,0.1,0.6,0.1,1c0,0.4,0.1,0.8,0.1,1.2c0,0.4,0,0.9,0,1.4c0,0.5,0,0.9,0,1.4
				c0,0.6,0,1.3,0,1.9c0,0.2,0,0.4,0,0.6c0,0.4,0,0.8,0,1.2c0,0.3,0,0.6,0.1,0.8c0.1,0.2,0.2,0.4,0.3,0.5c0.1,0.1,0.3,0.2,0.5,0.3
				c0.2,0.1,0.5,0.1,0.8,0.1h0.2v1.2H1412.4z"/>
			<path class="st2" d="M1412.4,1114.3c0.5,0,0.9-0.1,1.2-0.2c0.3-0.2,0.6-0.3,0.8-0.6c0.2-0.2,0.4-0.5,0.6-0.9
				c0.2-0.3,0.3-0.6,0.5-1c0.1-0.3,0.3-0.6,0.4-0.8c0.1-0.3,0.3-0.5,0.5-0.7c0.4-0.5,1-0.8,1.6-0.8c0.7,0,1.4,0.3,1.9,0.9
				c0.2,0.2,0.4,0.5,0.5,0.8c0.1,0.3,0.2,0.6,0.3,1c0,0.2,0,0.4,0,0.6c0,0.1,0,0.3,0,0.6c0,0.2-0.1,0.5-0.2,0.8
				c-0.1,0.3-0.3,0.6-0.6,0.9c-0.2,0.2-0.5,0.4-0.8,0.5c-0.2,0-0.4,0.1-0.6,0.1c-0.4,0-0.8-0.1-1.3-0.3c-0.5-0.2-1.1-0.5-1.7-1
				c-0.2,0.2-0.4,0.4-0.6,0.6c-0.2,0.2-0.5,0.3-0.7,0.4c-0.3,0.1-0.5,0.2-0.8,0.2c-0.3,0-0.6,0.1-0.9,0.1h-0.2v-1.2H1412.4z
				 M1416.2,1113.2c0.2,0.2,0.5,0.3,0.7,0.4c0.2,0.1,0.5,0.2,0.7,0.3c0.2,0.1,0.4,0.2,0.6,0.2c0.2,0,0.4,0.1,0.5,0.1
				c0.1,0,0.1,0,0.2,0c0,0,0.1,0,0.2,0c0.2-0.1,0.3-0.2,0.4-0.4c0.1-0.2,0.2-0.4,0.2-0.7c0-0.1,0-0.2,0-0.4c0-0.1,0-0.3,0-0.5
				c0-0.2-0.1-0.5-0.2-0.7c-0.1-0.2-0.3-0.5-0.5-0.6c-0.2-0.2-0.5-0.3-0.8-0.3c0,0,0,0-0.1,0c-0.1,0-0.2,0-0.3,0.1
				c-0.1,0.1-0.2,0.2-0.3,0.3c-0.1,0.1-0.2,0.3-0.3,0.5s-0.2,0.4-0.4,0.7L1416.2,1113.2z"/>
			<path class="st2" d="M1422.4,1119.9c0.8-0.2,1.5-0.4,2.2-0.7c0.6-0.3,1.2-0.7,1.7-1c0.5-0.4,0.8-0.8,1.1-1.2
				c0.3-0.4,0.4-0.9,0.5-1.3c-0.2,0-0.3,0-0.5,0c-0.2,0-0.5,0-0.9,0c-0.3,0-0.7,0-1-0.1s-0.7-0.2-1-0.3c-0.3-0.1-0.5-0.3-0.8-0.5
				c-0.2-0.2-0.4-0.5-0.5-0.7c-0.1-0.3-0.2-0.6-0.2-1.1c0-0.3,0-0.5,0.1-0.8c0.1-0.3,0.1-0.6,0.2-0.8c0.1-0.3,0.2-0.5,0.4-0.8
				c0.1-0.3,0.3-0.5,0.5-0.7c0.2-0.2,0.4-0.3,0.6-0.5c0.2-0.1,0.5-0.2,0.8-0.2c0.4,0,0.7,0.1,1,0.2c0.3,0.2,0.6,0.4,0.8,0.6
				s0.5,0.6,0.6,0.9c0.2,0.3,0.3,0.7,0.5,1.1c0.1,0.4,0.2,0.8,0.3,1.2c0.1,0.4,0.1,0.8,0.1,1.1h0.9v1.2h-1c-0.1,0.5-0.2,1-0.4,1.4
				c-0.2,0.5-0.5,0.9-0.7,1.3c-0.3,0.4-0.6,0.7-1,1c-0.4,0.3-0.8,0.6-1.2,0.8c-0.4,0.2-0.9,0.4-1.4,0.6c-0.5,0.2-1,0.3-1.5,0.4
				L1422.4,1119.9z M1425.8,1110.4c-0.2,0-0.4,0.1-0.6,0.2c-0.2,0.2-0.4,0.4-0.5,0.6c-0.2,0.2-0.3,0.5-0.4,0.8
				c-0.1,0.3-0.1,0.6-0.1,0.8c0,0.3,0.1,0.5,0.2,0.6c0.1,0.2,0.3,0.3,0.5,0.4c0.2,0.1,0.4,0.2,0.7,0.2c0.3,0,0.5,0.1,0.8,0.1
				c0.3,0,0.5,0,0.8,0s0.5,0,0.7,0c0-0.2,0-0.5-0.1-0.8c0-0.3-0.1-0.6-0.2-0.9c-0.1-0.3-0.2-0.6-0.3-0.8c-0.1-0.3-0.3-0.5-0.4-0.7
				c-0.2-0.2-0.3-0.4-0.5-0.5C1426.2,1110.5,1426,1110.4,1425.8,1110.4z"/>
			<path class="st2" d="M1429.8,1114.3h1.5c0.3,0,0.6,0,1,0c0.3,0,0.6-0.1,0.9-0.1c0.3-0.1,0.5-0.2,0.8-0.3c0.2-0.1,0.4-0.3,0.5-0.5
				c0.1-0.1,0.1-0.3,0.1-0.5c0-0.1,0-0.1,0-0.2c0-0.2,0-0.3,0-0.6c0-0.2-0.1-0.4-0.2-0.7c-0.1-0.3-0.2-0.5-0.2-0.8
				c-0.1-0.3-0.2-0.5-0.3-0.8c-0.1-0.2-0.2-0.5-0.3-0.7l1.1-0.6c0.1,0.2,0.2,0.5,0.3,0.8c0.1,0.3,0.2,0.6,0.3,0.9
				c0.1,0.3,0.2,0.6,0.3,0.9c0.1,0.3,0.1,0.6,0.2,0.9c0,0.2,0,0.3,0,0.5c0,0.1,0,0.3,0,0.5c0,0.2-0.1,0.4-0.2,0.7
				c-0.2,0.3-0.4,0.6-0.6,0.8c-0.3,0.2-0.6,0.4-0.9,0.5c-0.3,0.1-0.7,0.2-1.1,0.3c-0.4,0.1-0.9,0.1-1.3,0.1h-1.8V1114.3z
				 M1433.2,1105.7l-1.2,1.2l-1.2-1.2l1.2-1.2L1433.2,1105.7z M1436,1105.7l-1.1,1.2l-1.2-1.2l1.2-1.2L1436,1105.7z"/>
			<path class="st2" d="M1445.9,1110.8c0.1,0.3,0.2,0.6,0.3,0.9c0.1,0.3,0.2,0.7,0.3,1.1c0.1,0.4,0.2,0.8,0.2,1.1
				c0.1,0.4,0.1,0.7,0.1,1.1c0,0.4-0.1,0.9-0.2,1.3c-0.1,0.4-0.3,0.8-0.5,1.2c-0.2,0.4-0.5,0.8-0.8,1.1c-0.3,0.4-0.7,0.7-1,1
				c-0.4,0.3-0.8,0.6-1.2,0.9c-0.4,0.3-0.8,0.5-1.3,0.7l-0.5-1.1c0.6-0.3,1.1-0.6,1.6-1c0.5-0.4,1-0.8,1.4-1.2
				c0.4-0.4,0.7-0.9,1-1.4c0.2-0.5,0.4-1,0.4-1.5c0-0.3,0-0.6-0.1-0.9c-0.1-0.3-0.1-0.7-0.2-1c-0.1-0.3-0.2-0.7-0.3-1
				c-0.1-0.3-0.2-0.7-0.3-1L1445.9,1110.8z"/>
			<path class="st2" d="M1449.4,1115.5c0.1-0.9,0.1-1.7,0.1-2.4c0-0.8,0-1.5,0-2.2c0-1,0-1.9-0.1-2.7c0-0.8-0.1-1.6-0.1-2.2
				c0-0.6-0.1-1.1-0.1-1.6c0-0.4-0.1-0.7-0.1-0.9l1.2-0.2c0,0.2,0.1,0.5,0.1,0.8c0,0.3,0.1,0.6,0.1,0.9c0,0.3,0,0.7,0.1,1
				c0,0.3,0,0.7,0.1,1c0,0.3,0,0.6,0,0.8c0,0.2,0,0.4,0,0.6c0,0.4,0,0.8,0,1.2c0,0.4,0,0.8,0,1.3c0,0.7,0,1.5,0,2.2
				c0,0.8-0.1,1.6-0.1,2.5L1449.4,1115.5z"/>
			<path class="st2" d="M1457,1115.2c0,0.4-0.1,0.9-0.2,1.3c-0.1,0.4-0.3,0.8-0.5,1.2c-0.2,0.4-0.5,0.8-0.8,1.1
				c-0.3,0.4-0.7,0.7-1,1c-0.4,0.3-0.8,0.6-1.2,0.9c-0.4,0.3-0.8,0.5-1.3,0.7c-0.1-0.2-0.2-0.4-0.3-0.6c-0.1-0.2-0.2-0.3-0.3-0.5
				c0.3-0.2,0.7-0.4,1-0.6c0.4-0.2,0.7-0.5,1-0.8c0.3-0.3,0.6-0.6,0.9-0.9c0.3-0.3,0.5-0.6,0.7-1c0.2-0.3,0.4-0.7,0.5-1
				c0.1-0.3,0.1-0.5,0.1-0.8c0-0.1,0-0.2,0-0.3c0-0.3-0.1-0.6-0.2-0.9c-0.1-0.3-0.2-0.6-0.2-1c-0.1-0.3-0.2-0.6-0.3-0.9
				c-0.1-0.3-0.2-0.5-0.2-0.7l1.2-0.4c0.2,0.6,0.4,1.1,0.6,1.5c0.2,0.4,0.4,0.8,0.6,1c0.2,0.3,0.4,0.5,0.7,0.6
				c0.2,0.1,0.5,0.2,0.7,0.2h0.2v1.2h-0.2c-0.1,0-0.2,0-0.3,0c-0.1,0-0.3,0-0.4-0.1c-0.2,0-0.3-0.1-0.5-0.2
				c-0.2-0.1-0.3-0.3-0.4-0.5V1115.2z M1456.5,1107.3l-1.2,1.2l-1.2-1.2l1.2-1.2L1456.5,1107.3z"/>
			<path class="st2" d="M1458.5,1114.3h0.2c0.4,0,0.7,0,1,0c0.3,0,0.5,0,0.7,0s0.4,0,0.6-0.1c0.2,0,0.4,0,0.5-0.1
				c-0.5-0.4-0.8-0.9-1-1.3c-0.2-0.4-0.3-0.9-0.3-1.3c0-0.3,0-0.6,0.1-0.9c0.1-0.3,0.2-0.6,0.4-0.9c0.2-0.3,0.4-0.5,0.7-0.8
				s0.6-0.4,1-0.5l-0.8-0.3l0.6-1.1c0.3,0.1,0.7,0.3,1.2,0.4c0.4,0.2,0.9,0.3,1.4,0.5c0.5,0.2,0.9,0.4,1.4,0.6
				c0.5,0.2,0.9,0.4,1.3,0.7c0.4,0.2,0.8,0.5,1.1,0.7c0.3,0.2,0.6,0.5,0.7,0.7c0.5,0.6,0.7,1.3,0.7,2c0,0.5-0.1,1-0.4,1.4
				c-0.3,0.4-0.7,0.8-1.2,1.1l0,0c-0.1,0.1-0.3,0.2-0.5,0.2c-0.2,0.1-0.4,0.1-0.6,0.1c-0.2,0-0.4,0.1-0.7,0.1c-0.2,0-0.4,0-0.6,0
				c-0.5,0-0.9,0-1.3-0.1c-0.4-0.1-0.9-0.2-1.3-0.4c-0.3,0.1-0.6,0.2-0.9,0.2c-0.4,0.1-0.7,0.1-1.1,0.1c-0.4,0-0.8,0.1-1.2,0.1
				c-0.4,0-0.8,0-1.2,0h-0.2V1114.3z M1463.5,1109.3c-0.1,0-0.2,0-0.2,0c-0.2,0-0.5,0.1-0.7,0.2c-0.2,0.1-0.5,0.3-0.7,0.5
				c-0.2,0.2-0.3,0.5-0.4,0.8c-0.1,0.2-0.1,0.4-0.1,0.6c0,0.1,0,0.2,0,0.2c0,0.2,0.1,0.4,0.2,0.6c0.1,0.2,0.2,0.4,0.4,0.6
				c0.1,0.2,0.3,0.3,0.5,0.5s0.4,0.3,0.6,0.4c0.3-0.1,0.6-0.3,0.8-0.5c0.2-0.2,0.4-0.4,0.5-0.6c0.1-0.2,0.2-0.5,0.3-0.7
				c0.1-0.3,0.1-0.5,0.1-0.7c0-0.2,0-0.3-0.1-0.5c0-0.2-0.1-0.4-0.2-0.5c-0.1-0.2-0.2-0.3-0.4-0.5
				C1464,1109.5,1463.8,1109.4,1463.5,1109.3z M1464.6,1114.3c0.4,0.1,0.7,0.1,1.1,0.1c0.1,0,0.3,0,0.6,0c0.3,0,0.6-0.1,1-0.3
				c0.4-0.2,0.7-0.4,0.9-0.6c0.2-0.3,0.3-0.5,0.3-0.9c0-0.2-0.1-0.4-0.2-0.7c-0.1-0.3-0.3-0.5-0.5-0.7c-0.2-0.2-0.5-0.5-0.9-0.7
				c-0.3-0.2-0.7-0.4-1.2-0.6c0.2,0.4,0.2,0.8,0.2,1.2c0,0.4-0.1,0.8-0.2,1.2c-0.1,0.4-0.3,0.8-0.5,1.1
				C1465.1,1113.7,1464.9,1114,1464.6,1114.3z"/>
			<path class="st2" d="M1486.4,1114.3v1.2h-0.2c-0.3,0-0.6,0-0.9-0.1c-0.3-0.1-0.5-0.1-0.7-0.2c-0.2-0.1-0.4-0.2-0.5-0.4
				c-0.2-0.1-0.3-0.3-0.4-0.4c-0.3,0.2-0.5,0.3-0.8,0.5c-0.3,0.1-0.5,0.3-0.8,0.4c-0.3,0.1-0.6,0.2-0.9,0.2c-0.3,0.1-0.6,0.1-1,0.1
				c-0.3,0-0.6,0-0.9-0.1c-0.3-0.1-0.6-0.1-0.8-0.3c-0.3-0.1-0.5-0.3-0.8-0.4c-0.2-0.2-0.5-0.4-0.7-0.6c0.1-0.2,0.3-0.4,0.4-0.5
				c0.1-0.2,0.2-0.3,0.4-0.5c0.4,0.4,0.9,0.6,1.3,0.8c0.5,0.2,0.9,0.3,1.3,0.3c0.2,0,0.5,0,0.8-0.1c0.3-0.1,0.5-0.1,0.7-0.2
				c0.2-0.1,0.5-0.2,0.7-0.3s0.4-0.2,0.5-0.4l-2.5-6c0.2-0.1,0.4-0.2,0.6-0.2c0.2-0.1,0.4-0.2,0.6-0.2c0.1,0.2,0.2,0.4,0.3,0.7
				c0.1,0.2,0.2,0.5,0.3,0.8c0.2,0.5,0.5,1.1,0.8,1.9c0.3,0.7,0.7,1.6,1.1,2.7c0.1,0.2,0.2,0.4,0.3,0.6c0.1,0.2,0.2,0.3,0.3,0.5
				c0.1,0.1,0.3,0.2,0.5,0.3c0.2,0.1,0.5,0.1,0.8,0.1H1486.4z"/>
			<path class="st2" d="M1486,1114.3h0.2c0.3,0,0.6,0,0.9-0.1c0.2-0.1,0.4-0.1,0.6-0.2c0.2-0.1,0.3-0.2,0.4-0.3
				c0.1-0.1,0.2-0.2,0.2-0.3c0.1-0.1,0.2-0.3,0.2-0.4c0.1-0.2,0.1-0.3,0.2-0.5c0.1-0.2,0.1-0.4,0.1-0.6c0-0.2,0.1-0.4,0.1-0.6
				c0-0.2,0.1-0.4,0.1-0.6s0.1-0.4,0.1-0.5l1.1,0.3c0,0,0,0.1-0.1,0.2c0,0.1-0.1,0.3-0.1,0.4c0,0.2,0,0.3-0.1,0.5c0,0.1,0,0.2,0,0.3
				c0,0,0,0.1,0,0.1c0,0.1,0,0.3,0,0.4c0,0.2,0,0.3,0.1,0.5c0.1,0.2,0.1,0.3,0.2,0.5c0.1,0.2,0.2,0.3,0.4,0.5
				c0.1-0.2,0.2-0.4,0.3-0.6c0.2-0.3,0.3-0.5,0.5-0.8c0.2-0.3,0.5-0.6,0.7-0.9c0.3-0.3,0.6-0.6,0.9-0.9c0.3-0.3,0.6-0.5,0.9-0.8
				c0.3-0.2,0.7-0.4,1-0.6s0.7-0.3,1.1-0.4c0.3-0.1,0.6-0.1,0.8-0.1c0.1,0,0.3,0,0.5,0c0.2,0,0.5,0.1,0.9,0.3c0.3,0.2,0.7,0.4,1,0.7
				c0.3,0.3,0.5,0.7,0.6,1.1c0.1,0.3,0.2,0.7,0.2,1c0,0.1,0,0.2,0,0.4s-0.1,0.5-0.3,0.9c-0.2,0.4-0.5,0.7-0.8,1
				c-0.3,0.3-0.7,0.5-1.2,0.7c-0.4,0.2-0.9,0.3-1.3,0.5c-0.5,0.1-0.9,0.2-1.4,0.2c-0.5,0-0.9,0.1-1.3,0.1c-0.6,0-1.1,0-1.5,0
				c-0.5,0-0.9-0.1-1.3-0.2s-0.7-0.3-1-0.5c-0.3-0.2-0.6-0.6-0.8-1c-0.4,0.5-0.8,0.9-1.3,1.1c-0.5,0.2-1.1,0.4-1.8,0.4h-0.2V1114.3z
				 M1492.1,1114.4c0.3,0.1,0.6,0.1,1,0.1c0.2,0,0.5,0,0.7,0c0.1,0,0.2,0,0.3,0c0.4,0,0.9,0,1.3-0.1c0.4-0.1,0.8-0.1,1.2-0.2
				c0.4-0.1,0.7-0.2,1-0.4c0.3-0.1,0.6-0.3,0.7-0.5c0.2-0.2,0.4-0.4,0.5-0.6c0.1-0.2,0.2-0.5,0.2-0.7c0-0.1,0-0.1,0-0.2
				c0-0.2,0-0.4-0.1-0.6c-0.1-0.2-0.2-0.4-0.3-0.6c-0.2-0.2-0.5-0.4-0.8-0.5c-0.3-0.1-0.5-0.1-0.8-0.1c-0.3,0-0.5,0-0.8,0.1
				c-0.3,0.1-0.5,0.2-0.7,0.3c-0.2,0.1-0.5,0.3-0.7,0.5c-0.2,0.2-0.5,0.4-0.7,0.6c-0.2,0.2-0.5,0.5-0.7,0.7
				c-0.2,0.3-0.4,0.5-0.6,0.8c-0.2,0.3-0.4,0.5-0.5,0.7C1492.2,1114.1,1492.1,1114.2,1492.1,1114.4z"/>
			<path class="st2" d="M1518.8,1109.2c0.2,0,0.4,0,0.6,0c0.2,0,0.3,0.1,0.5,0.1c0.1,0,0.3,0.1,0.4,0.1c0.1,0,0.2,0.1,0.3,0.1
				c-0.1,0.1-0.1,0.2-0.2,0.3c0,0.1-0.1,0.2-0.1,0.3c0,0.1-0.1,0.2-0.1,0.3c0,0.1-0.1,0.2-0.1,0.3c-0.1,0-0.3-0.1-0.5-0.1
				c-0.2,0-0.4-0.1-0.7-0.1c0,0-0.1,0-0.1,0c-0.3,0-0.5,0-0.8,0.1c-0.3,0.1-0.5,0.2-0.8,0.4c-0.3,0.2-0.5,0.4-0.7,0.6
				c-0.2,0.2-0.4,0.5-0.6,0.7c-0.2,0.2-0.3,0.5-0.4,0.8c-0.1,0.3-0.1,0.5-0.1,0.7c0,0.3,0.1,0.5,0.2,0.7s0.3,0.3,0.5,0.4
				c0.2,0.1,0.4,0.2,0.7,0.3c0.2,0.1,0.5,0.1,0.7,0.2c0.3,0.1,0.6,0.2,0.9,0.2c0.3,0.1,0.5,0.2,0.7,0.3c0.2,0.1,0.4,0.3,0.5,0.5
				c0.1,0.2,0.2,0.5,0.2,0.8c0,0.5-0.1,1-0.3,1.3c-0.2,0.4-0.5,0.7-0.8,1c-0.3,0.3-0.7,0.5-1.2,0.7c-0.4,0.2-0.9,0.3-1.4,0.5
				c-0.5,0.1-1,0.2-1.4,0.2c-0.5,0-0.9,0.1-1.4,0.1c-0.8,0-1.5-0.1-2.2-0.3c-0.7-0.2-1.2-0.5-1.7-0.9c-0.5-0.4-0.9-0.9-1.1-1.4
				c-0.3-0.6-0.4-1.2-0.4-2c0-0.2,0-0.5,0-0.8c0-0.3,0.1-0.6,0.2-0.9c0.1-0.3,0.1-0.6,0.2-0.9c0.1-0.3,0.1-0.6,0.2-0.9
				c0.1-0.3,0.2-0.6,0.2-0.8s0.1-0.5,0.2-0.6c0.1-0.2,0.1-0.3,0.1-0.4c0.2,0.1,0.4,0.1,0.6,0.2c0.2,0.1,0.4,0.1,0.6,0.2
				c-0.1,0.3-0.2,0.7-0.3,1.1c-0.1,0.4-0.2,0.7-0.3,1.1c-0.1,0.4-0.2,0.7-0.3,1.1c-0.1,0.4-0.1,0.7-0.2,1.1c0,0.1,0,0.2,0,0.3
				c0,0.1,0,0.2,0,0.3c0,0.6,0.1,1.1,0.3,1.5c0.2,0.4,0.5,0.8,0.9,1c0.4,0.3,0.8,0.5,1.3,0.6s1.1,0.2,1.7,0.2c0.8,0,1.5-0.1,2.1-0.2
				c0.6-0.1,1.2-0.3,1.6-0.5c0.4-0.2,0.8-0.5,1-0.7c0.3-0.3,0.4-0.5,0.4-0.8c0,0,0,0,0,0c0-0.1,0-0.2-0.1-0.3
				c-0.1-0.1-0.2-0.2-0.3-0.2c-0.1-0.1-0.3-0.1-0.5-0.2c-0.2-0.1-0.4-0.1-0.5-0.2c-0.4-0.1-0.8-0.2-1.2-0.4
				c-0.3-0.1-0.6-0.3-0.9-0.5c-0.2-0.2-0.4-0.4-0.6-0.7c-0.1-0.3-0.2-0.7-0.2-1.1c0-0.4,0.1-0.8,0.2-1.2c0.1-0.4,0.3-0.8,0.5-1.1
				c0.2-0.4,0.5-0.7,0.8-1c0.3-0.3,0.6-0.5,1-0.8c0.3-0.2,0.7-0.4,1.1-0.5C1518,1109.2,1518.4,1109.2,1518.8,1109.2z"/>
			<path class="st2" d="M1529.7,1111c0,0,0,0.1,0,0.1s0,0.1,0,0.1c0,0.3,0,0.6-0.1,0.9c-0.1,0.3-0.1,0.6-0.3,0.9
				c-0.1,0.3-0.3,0.6-0.4,0.9c-0.2,0.3-0.3,0.5-0.6,0.7c-0.3,0.3-0.7,0.6-1.2,0.8c-0.5,0.2-1,0.4-1.5,0.5c-0.3,0.1-0.6,0.1-0.9,0.1
				c-0.3,0-0.6,0-0.8,0c-0.3,0-0.7,0-1-0.1c0-0.2,0.1-0.4,0.1-0.6c0-0.2,0.1-0.4,0.1-0.6c0.1,0,0.2,0,0.4,0c0.1,0,0.3,0,0.4,0
				c0.2,0,0.5,0,0.8,0c0.3,0,0.5-0.1,0.8-0.1c-0.1-0.6-0.3-1.2-0.5-1.8c-0.2-0.6-0.5-1.2-0.8-1.9c-0.3-0.6-0.6-1.2-0.9-1.8
				c-0.3-0.6-0.6-1.1-0.9-1.5c-0.3-0.5-0.5-0.8-0.7-1.2c-0.2-0.3-0.4-0.6-0.5-0.7l1-0.7c0.1,0.1,0.2,0.2,0.3,0.4
				c0.1,0.2,0.3,0.4,0.4,0.7c0.2,0.3,0.4,0.6,0.6,0.9c0.2,0.3,0.4,0.7,0.6,1c0.6,1.1,1.2,2.2,1.6,3.2c0.4,1,0.7,2,0.9,2.9
				c0.2-0.2,0.5-0.3,0.7-0.5c0.2-0.2,0.4-0.4,0.5-0.6c0.2-0.2,0.3-0.5,0.4-0.9c0.1-0.3,0.1-0.7,0.1-1.1c0,0,0-0.1,0-0.1
				c-0.1-1.2-0.3-2.4-0.4-3.6c-0.1-1.2-0.3-2.4-0.4-3.6c0.2,0,0.4,0,0.6-0.1c0.2,0,0.4,0,0.6-0.1c0,0.1,0,0.3,0.1,0.5
				c0,0.3,0.1,0.6,0.1,0.9c0,0.4,0.1,0.8,0.2,1.2c0.1,0.4,0.1,0.9,0.2,1.4c0.1,0.5,0.1,1,0.2,1.6
				C1529.6,1110,1529.7,1110.5,1529.7,1111z"/>
			<path class="st2" d="M1535.9,1115.5c-0.5,0-0.9-0.1-1.3-0.2c-0.4-0.1-0.7-0.3-1-0.5c-0.3-0.2-0.5-0.5-0.6-0.9
				c-0.1-0.4-0.2-0.8-0.2-1.3c0-0.4,0-0.8,0-1.3c0-0.5,0-1,0-1.5c0-0.5,0-1,0-1.6s0-1.1,0-1.6c0-0.5,0-1-0.1-1.4
				c0-0.4-0.1-0.8-0.1-1.2l1.2-0.2c0,0.3,0.1,0.6,0.1,1c0,0.4,0.1,0.8,0.1,1.2c0,0.4,0,0.9,0,1.4c0,0.5,0,0.9,0,1.4
				c0,0.6,0,1.3,0,1.9c0,0.2,0,0.4,0,0.6c0,0.4,0,0.8,0,1.2c0,0.3,0,0.6,0.1,0.8c0.1,0.2,0.2,0.4,0.3,0.5c0.1,0.1,0.3,0.2,0.5,0.3
				c0.2,0.1,0.5,0.1,0.8,0.1h0.2v1.2H1535.9z"/>
			<path class="st2" d="M1535.8,1114.3h0.9c0.3,0,0.6,0,0.9,0c0.3,0,0.5-0.1,0.7-0.1s0.4-0.2,0.6-0.3s0.3-0.3,0.5-0.5
				c0.1-0.1,0.1-0.3,0.1-0.5c0-0.1,0-0.1,0-0.2c0-0.2,0-0.3,0-0.6c0-0.2-0.1-0.4-0.2-0.7c-0.1-0.3-0.2-0.5-0.2-0.8
				c-0.1-0.3-0.2-0.5-0.3-0.8c-0.1-0.2-0.2-0.5-0.3-0.7l1.1-0.6c0.1,0.2,0.2,0.5,0.3,0.8c0.1,0.3,0.2,0.6,0.3,0.9
				c0.1,0.3,0.2,0.6,0.3,0.9c0.1,0.3,0.1,0.6,0.2,0.9c0,0.2,0,0.3,0,0.5c0,0.1,0,0.3,0,0.5c0,0.2-0.1,0.4-0.2,0.7
				c-0.2,0.3-0.3,0.6-0.6,0.8c-0.2,0.2-0.5,0.4-0.8,0.5c-0.3,0.1-0.6,0.2-1,0.3c-0.4,0.1-0.7,0.1-1.2,0.1h-1.3V1114.3z
				 M1539.5,1118.5l-1.2,1.2l-1.2-1.2l1.2-1.2L1539.5,1118.5z"/>
			<path class="st2" d="M1559,1109.2c0.2,0,0.4,0,0.6,0c0.2,0,0.3,0.1,0.5,0.1c0.1,0,0.3,0.1,0.4,0.1c0.1,0,0.2,0.1,0.3,0.1
				c-0.1,0.1-0.1,0.2-0.2,0.3c0,0.1-0.1,0.2-0.1,0.3c0,0.1-0.1,0.2-0.1,0.3c0,0.1-0.1,0.2-0.1,0.3c-0.1,0-0.3-0.1-0.5-0.1
				c-0.2,0-0.4-0.1-0.7-0.1c0,0-0.1,0-0.1,0c-0.3,0-0.5,0-0.8,0.1c-0.3,0.1-0.5,0.2-0.8,0.4c-0.3,0.2-0.5,0.4-0.7,0.6
				c-0.2,0.2-0.4,0.5-0.6,0.7c-0.2,0.2-0.3,0.5-0.4,0.8c-0.1,0.3-0.1,0.5-0.1,0.7c0,0.3,0.1,0.5,0.2,0.7s0.3,0.3,0.5,0.4
				c0.2,0.1,0.4,0.2,0.7,0.3c0.2,0.1,0.5,0.1,0.7,0.2c0.3,0.1,0.6,0.2,0.9,0.2c0.3,0.1,0.5,0.2,0.7,0.3c0.2,0.1,0.4,0.3,0.5,0.5
				c0.1,0.2,0.2,0.5,0.2,0.8c0,0.5-0.1,1-0.3,1.3c-0.2,0.4-0.5,0.7-0.8,1c-0.3,0.3-0.7,0.5-1.2,0.7c-0.4,0.2-0.9,0.3-1.4,0.5
				c-0.5,0.1-1,0.2-1.4,0.2c-0.5,0-0.9,0.1-1.4,0.1c-0.8,0-1.5-0.1-2.2-0.3c-0.7-0.2-1.2-0.5-1.7-0.9c-0.5-0.4-0.9-0.9-1.1-1.4
				c-0.3-0.6-0.4-1.2-0.4-2c0-0.2,0-0.5,0-0.8c0-0.3,0.1-0.6,0.2-0.9c0.1-0.3,0.1-0.6,0.2-0.9c0.1-0.3,0.1-0.6,0.2-0.9
				c0.1-0.3,0.2-0.6,0.2-0.8s0.1-0.5,0.2-0.6c0.1-0.2,0.1-0.3,0.1-0.4c0.2,0.1,0.4,0.1,0.6,0.2c0.2,0.1,0.4,0.1,0.6,0.2
				c-0.1,0.3-0.2,0.7-0.3,1.1c-0.1,0.4-0.2,0.7-0.3,1.1c-0.1,0.4-0.2,0.7-0.3,1.1c-0.1,0.4-0.1,0.7-0.2,1.1c0,0.1,0,0.2,0,0.3
				c0,0.1,0,0.2,0,0.3c0,0.6,0.1,1.1,0.3,1.5c0.2,0.4,0.5,0.8,0.9,1c0.4,0.3,0.8,0.5,1.3,0.6s1.1,0.2,1.7,0.2c0.8,0,1.5-0.1,2.1-0.2
				c0.6-0.1,1.2-0.3,1.6-0.5c0.4-0.2,0.8-0.5,1-0.7c0.3-0.3,0.4-0.5,0.4-0.8c0,0,0,0,0,0c0-0.1,0-0.2-0.1-0.3
				c-0.1-0.1-0.2-0.2-0.3-0.2c-0.1-0.1-0.3-0.1-0.5-0.2c-0.2-0.1-0.4-0.1-0.5-0.2c-0.4-0.1-0.8-0.2-1.2-0.4
				c-0.3-0.1-0.6-0.3-0.9-0.5c-0.2-0.2-0.4-0.4-0.6-0.7c-0.1-0.3-0.2-0.7-0.2-1.1c0-0.4,0.1-0.8,0.2-1.2c0.1-0.4,0.3-0.8,0.5-1.1
				c0.2-0.4,0.5-0.7,0.8-1c0.3-0.3,0.6-0.5,1-0.8c0.3-0.2,0.7-0.4,1.1-0.5C1558.2,1109.2,1558.6,1109.2,1559,1109.2z"/>
			<path class="st2" d="M1566.1,1115.5c-0.5,0-0.9-0.1-1.3-0.2c-0.4-0.1-0.7-0.3-1-0.5c-0.3-0.2-0.5-0.5-0.6-0.9
				c-0.1-0.4-0.2-0.8-0.2-1.3c0-0.4,0-0.8,0-1.3c0-0.5,0-1,0-1.5c0-0.5,0-1,0-1.6c0-0.5,0-1.1,0-1.6c0-0.5,0-1-0.1-1.4
				c0-0.4-0.1-0.8-0.1-1.2l1.2-0.2c0,0.3,0.1,0.6,0.1,1c0,0.4,0.1,0.8,0.1,1.2c0,0.4,0,0.9,0,1.4c0,0.5,0,0.9,0,1.4
				c0,0.6,0,1.3,0,1.9c0,0.2,0,0.4,0,0.6c0,0.4,0,0.8,0,1.2c0,0.3,0,0.6,0.1,0.8c0.1,0.2,0.2,0.4,0.3,0.5c0.1,0.1,0.3,0.2,0.5,0.3
				c0.2,0.1,0.5,0.1,0.8,0.1h0.2v1.2H1566.1z"/>
			<path class="st2" d="M1565.9,1114.3h0.2c0.4,0,0.7,0,1,0c0.3,0,0.5,0,0.7,0s0.4,0,0.6-0.1c0.2,0,0.4,0,0.5-0.1
				c-0.5-0.4-0.8-0.9-1-1.3c-0.2-0.4-0.3-0.9-0.3-1.3c0-0.3,0-0.6,0.1-0.9c0.1-0.3,0.2-0.6,0.4-0.9c0.2-0.3,0.4-0.5,0.7-0.8
				s0.6-0.4,1-0.5l-0.8-0.3l0.6-1.1c0.3,0.1,0.7,0.3,1.2,0.4c0.4,0.2,0.9,0.3,1.4,0.5c0.5,0.2,0.9,0.4,1.4,0.6
				c0.5,0.2,0.9,0.4,1.3,0.7c0.4,0.2,0.8,0.5,1.1,0.7c0.3,0.2,0.6,0.5,0.7,0.7c0.5,0.6,0.7,1.3,0.7,2c0,0.5-0.1,1-0.4,1.4
				c-0.3,0.4-0.7,0.8-1.2,1.1l0,0c-0.1,0.1-0.3,0.2-0.5,0.2c-0.2,0.1-0.4,0.1-0.6,0.1c-0.2,0-0.4,0.1-0.7,0.1c-0.2,0-0.4,0-0.6,0
				c-0.5,0-0.9,0-1.3-0.1c-0.4-0.1-0.9-0.2-1.3-0.4c-0.3,0.1-0.6,0.2-0.9,0.2c-0.4,0.1-0.7,0.1-1.1,0.1c-0.4,0-0.8,0.1-1.2,0.1
				c-0.4,0-0.8,0-1.2,0h-0.2V1114.3z M1571,1109.3c-0.1,0-0.2,0-0.2,0c-0.2,0-0.5,0.1-0.7,0.2c-0.2,0.1-0.5,0.3-0.7,0.5
				c-0.2,0.2-0.3,0.5-0.4,0.8c-0.1,0.2-0.1,0.4-0.1,0.6c0,0.1,0,0.2,0,0.2c0,0.2,0.1,0.4,0.2,0.6c0.1,0.2,0.2,0.4,0.4,0.6
				c0.1,0.2,0.3,0.3,0.5,0.5c0.2,0.2,0.4,0.3,0.6,0.4c0.3-0.1,0.6-0.3,0.8-0.5c0.2-0.2,0.4-0.4,0.5-0.6c0.1-0.2,0.2-0.5,0.3-0.7
				c0.1-0.3,0.1-0.5,0.1-0.7c0-0.2,0-0.3-0.1-0.5c0-0.2-0.1-0.4-0.2-0.5c-0.1-0.2-0.2-0.3-0.4-0.5
				C1571.4,1109.5,1571.2,1109.4,1571,1109.3z M1572,1114.3c0.4,0.1,0.7,0.1,1.1,0.1c0.1,0,0.3,0,0.6,0c0.3,0,0.6-0.1,1-0.3
				c0.4-0.2,0.7-0.4,0.9-0.6c0.2-0.3,0.3-0.5,0.3-0.9c0-0.2-0.1-0.4-0.2-0.7c-0.1-0.3-0.3-0.5-0.5-0.7c-0.2-0.2-0.5-0.5-0.9-0.7
				c-0.3-0.2-0.7-0.4-1.2-0.6c0.2,0.4,0.2,0.8,0.2,1.2c0,0.4-0.1,0.8-0.2,1.2c-0.1,0.4-0.3,0.8-0.5,1.1
				C1572.6,1113.7,1572.3,1114,1572,1114.3z"/>
			<path class="st2" d="M1593.8,1114.3v1.2h-0.2c-0.3,0-0.6,0-0.9-0.1c-0.3-0.1-0.5-0.1-0.7-0.2c-0.2-0.1-0.4-0.2-0.5-0.4
				c-0.2-0.1-0.3-0.3-0.4-0.4c-0.3,0.2-0.5,0.3-0.8,0.5c-0.3,0.1-0.5,0.3-0.8,0.4c-0.3,0.1-0.6,0.2-0.9,0.2c-0.3,0.1-0.6,0.1-1,0.1
				c-0.3,0-0.6,0-0.9-0.1c-0.3-0.1-0.6-0.1-0.8-0.3c-0.3-0.1-0.5-0.3-0.8-0.4c-0.2-0.2-0.5-0.4-0.7-0.6c0.1-0.2,0.3-0.4,0.4-0.5
				c0.1-0.2,0.2-0.3,0.4-0.5c0.4,0.4,0.9,0.6,1.3,0.8c0.5,0.2,0.9,0.3,1.3,0.3c0.2,0,0.5,0,0.8-0.1c0.3-0.1,0.5-0.1,0.7-0.2
				c0.2-0.1,0.5-0.2,0.7-0.3s0.4-0.2,0.5-0.4l-2.5-6c0.2-0.1,0.4-0.2,0.6-0.2c0.2-0.1,0.4-0.2,0.6-0.2c0.1,0.2,0.2,0.4,0.3,0.7
				c0.1,0.2,0.2,0.5,0.3,0.8c0.2,0.5,0.5,1.1,0.8,1.9c0.3,0.7,0.7,1.6,1.1,2.7c0.1,0.2,0.2,0.4,0.3,0.6c0.1,0.2,0.2,0.3,0.3,0.5
				c0.1,0.1,0.3,0.2,0.5,0.3c0.2,0.1,0.5,0.1,0.8,0.1H1593.8z"/>
			<path class="st2" d="M1593.5,1114.3h1.5c0.3,0,0.6,0,1,0c0.3,0,0.6-0.1,0.9-0.1c0.3-0.1,0.5-0.2,0.8-0.3s0.4-0.3,0.5-0.5
				c0.1-0.1,0.1-0.3,0.1-0.5c0-0.1,0-0.1,0-0.2c0-0.2,0-0.3,0-0.6c0-0.2-0.1-0.4-0.2-0.7c-0.1-0.3-0.2-0.5-0.2-0.8
				c-0.1-0.3-0.2-0.5-0.3-0.8c-0.1-0.2-0.2-0.5-0.3-0.7l1.1-0.6c0.1,0.2,0.2,0.5,0.3,0.8c0.1,0.3,0.2,0.6,0.3,0.9
				c0.1,0.3,0.2,0.6,0.3,0.9s0.1,0.6,0.2,0.9c0,0.2,0,0.3,0,0.5c0,0.1,0,0.3,0,0.5c0,0.2-0.1,0.4-0.2,0.7c-0.2,0.3-0.4,0.6-0.6,0.8
				c-0.3,0.2-0.6,0.4-0.9,0.5c-0.3,0.1-0.7,0.2-1.1,0.3c-0.4,0.1-0.9,0.1-1.3,0.1h-1.8V1114.3z M1596.3,1118.3l-1.2,1.2l-1.2-1.2
				l1.2-1.2L1596.3,1118.3z M1599.2,1118.3l-1.1,1.2l-1.2-1.2l1.2-1.2L1599.2,1118.3z"/>
			<path class="st2" d="M1605.7,1115.2c0,0.4-0.1,0.9-0.2,1.3c-0.1,0.4-0.3,0.8-0.5,1.2c-0.2,0.4-0.5,0.8-0.8,1.1
				c-0.3,0.4-0.7,0.7-1,1s-0.8,0.6-1.2,0.9c-0.4,0.3-0.8,0.5-1.3,0.7c-0.1-0.2-0.2-0.4-0.3-0.6c-0.1-0.2-0.2-0.3-0.3-0.5
				c0.3-0.2,0.7-0.4,1-0.6c0.4-0.2,0.7-0.5,1-0.8c0.3-0.3,0.6-0.6,0.9-0.9c0.3-0.3,0.5-0.6,0.7-1s0.4-0.7,0.5-1
				c0.1-0.3,0.1-0.5,0.1-0.8c0-0.1,0-0.2,0-0.3c0-0.3-0.1-0.6-0.2-0.9c-0.1-0.3-0.2-0.6-0.2-1c-0.1-0.3-0.2-0.6-0.3-0.9
				c-0.1-0.3-0.2-0.5-0.2-0.7l1.2-0.4c0.2,0.6,0.4,1.1,0.6,1.5c0.2,0.4,0.4,0.8,0.6,1c0.2,0.3,0.4,0.5,0.7,0.6
				c0.2,0.1,0.5,0.2,0.7,0.2h0.2v1.2h-0.2c-0.1,0-0.2,0-0.3,0c-0.1,0-0.3,0-0.4-0.1c-0.2,0-0.3-0.1-0.5-0.2
				c-0.2-0.1-0.3-0.3-0.4-0.5V1115.2z"/>
			<path class="st2" d="M1607.2,1114.3h1.7c0.7,0,1.4-0.1,2.2-0.2c0.7-0.1,1.5-0.3,2.2-0.6c0.7-0.2,1.4-0.5,2.1-0.8
				c0.7-0.3,1.4-0.6,2-1l-2.4-1c-0.3-0.1-0.5-0.2-0.7-0.3c-0.2-0.1-0.5-0.2-0.7-0.3c-0.2-0.1-0.4-0.2-0.6-0.2
				c-0.2-0.1-0.4-0.1-0.6-0.1c-0.2,0-0.4,0-0.6,0.1c-0.2,0.1-0.3,0.2-0.5,0.3c-0.2,0.1-0.3,0.2-0.4,0.4c-0.1,0.1-0.2,0.3-0.4,0.4
				c-0.1,0.1-0.2,0.3-0.3,0.4c-0.1,0.1-0.1,0.2-0.2,0.3l-1.1-0.6c0.1-0.1,0.1-0.3,0.2-0.4c0.1-0.2,0.3-0.4,0.5-0.6
				c0.4-0.5,0.8-0.8,1.3-1.1s0.9-0.4,1.4-0.4c0.2,0,0.5,0,0.8,0.1c0.3,0.1,0.5,0.1,0.8,0.2c0.3,0.1,0.5,0.2,0.8,0.3
				c0.3,0.1,0.5,0.3,0.8,0.4c0.3,0.1,0.6,0.3,0.8,0.4c0.3,0.1,0.5,0.3,0.7,0.4c0.2,0.1,0.5,0.2,0.8,0.4c0.3,0.1,0.6,0.2,0.9,0.4
				c0,0.2,0.1,0.4,0.1,0.6s0.1,0.4,0.1,0.6c-0.2,0.1-0.3,0.1-0.4,0.2c-0.1,0-0.2,0.1-0.3,0.2c-0.1,0-0.2,0.1-0.3,0.2
				c-0.1,0.1-0.3,0.1-0.5,0.2c-0.6,0.3-1.2,0.6-1.9,0.9c-0.7,0.3-1.4,0.6-2.1,0.8c-0.7,0.2-1.5,0.4-2.3,0.6
				c-0.8,0.1-1.5,0.2-2.3,0.2h-1.7V1114.3z M1613.5,1105.7l-1.2,1.2l-1.2-1.2l1.2-1.2L1613.5,1105.7z"/>
			<path class="st2" d="M1631.5,1121c-0.8,0-1.5-0.1-2.1-0.4c-0.6-0.2-1.2-0.5-1.6-1c-0.4-0.4-0.8-0.9-1-1.5
				c-0.2-0.6-0.3-1.3-0.3-2.1c0-0.4,0-0.8,0.1-1.2c0.1-0.4,0.2-0.8,0.3-1.2c0.1-0.4,0.3-0.8,0.4-1.1s0.3-0.7,0.5-1l1,0.7
				c-0.1,0.1-0.2,0.4-0.3,0.6c-0.1,0.3-0.2,0.6-0.3,0.9c-0.1,0.3-0.2,0.7-0.3,1.1c-0.1,0.4-0.1,0.8-0.1,1.2c0,0.2,0,0.5,0.1,0.8
				c0,0.3,0.1,0.5,0.2,0.8c0.1,0.3,0.2,0.5,0.4,0.7c0.2,0.2,0.4,0.4,0.7,0.6c0.3,0.2,0.6,0.3,1,0.4c0.4,0.1,0.9,0.2,1.4,0.2
				c0.1,0,0.1,0,0.2,0c0.6,0,1.2-0.1,1.8-0.3c0.5-0.2,1-0.4,1.4-0.8c0.4-0.4,0.7-0.8,0.9-1.3c0.2-0.5,0.3-1.1,0.3-1.7
				c0-0.5,0-0.9-0.1-1.3c-0.1-0.4-0.2-0.8-0.3-1.2c-0.1-0.4-0.3-0.7-0.4-0.9c-0.1-0.3-0.3-0.5-0.3-0.6l1.1-0.7
				c0,0.1,0.1,0.2,0.2,0.3c0.1,0.2,0.2,0.3,0.3,0.6c0.1,0.2,0.2,0.5,0.3,0.8c0.1,0.3,0.2,0.6,0.3,0.9c0.1,0.3,0.2,0.7,0.2,1
				c0.1,0.4,0.1,0.7,0.1,1.1c0,0.8-0.1,1.6-0.4,2.3c-0.3,0.7-0.7,1.2-1.2,1.7c-0.5,0.5-1.1,0.8-1.8,1.1c-0.6,0.2-1.3,0.3-2,0.3
				C1631.7,1121,1631.6,1121,1631.5,1121z M1633.1,1110.6l-1.2,1.2l-1.2-1.2l1.2-1.2L1633.1,1110.6z"/>
			<path class="st2" d="M1643.2,1115.5c-0.5,0-0.9-0.1-1.3-0.2c-0.4-0.1-0.7-0.3-1-0.5c-0.3-0.2-0.5-0.5-0.6-0.9
				c-0.1-0.4-0.2-0.8-0.2-1.3c0-0.4,0-0.8,0-1.3c0-0.5,0-1,0-1.5c0-0.5,0-1,0-1.6s0-1.1,0-1.6c0-0.5,0-1-0.1-1.4
				c0-0.4-0.1-0.8-0.1-1.2l1.2-0.2c0,0.3,0.1,0.6,0.1,1c0,0.4,0.1,0.8,0.1,1.2c0,0.4,0,0.9,0,1.4c0,0.5,0,0.9,0,1.4
				c0,0.6,0,1.3,0,1.9c0,0.2,0,0.4,0,0.6c0,0.4,0,0.8,0,1.2c0,0.3,0,0.6,0.1,0.8c0.1,0.2,0.2,0.4,0.3,0.5c0.1,0.1,0.3,0.2,0.5,0.3
				c0.2,0.1,0.5,0.1,0.8,0.1h0.2v1.2H1643.2z"/>
			<path class="st2" d="M1643,1114.3h2.8c0.2,0,0.5,0,0.7-0.1c0.2-0.1,0.5-0.2,0.7-0.3c0.2-0.1,0.4-0.3,0.5-0.5s0.2-0.5,0.2-0.7
				c0-0.3-0.1-0.6-0.2-0.9c-0.1-0.3-0.3-0.6-0.5-1c-0.2-0.3-0.4-0.7-0.7-1c-0.3-0.3-0.5-0.7-0.8-1c-0.3-0.3-0.6-0.6-0.8-0.9
				c-0.3-0.3-0.5-0.5-0.8-0.7c0-0.3,0.1-0.5,0.1-0.8c0-0.3,0.1-0.5,0.1-0.8l6.8-2.9c0.1,0.2,0.2,0.4,0.3,0.6
				c0.1,0.2,0.2,0.4,0.2,0.6l-6.4,2.7c0.5,0.4,0.9,0.8,1.2,1.2c0.3,0.4,0.6,0.7,0.9,1.1c0.3,0.4,0.5,0.7,0.7,1.1
				c0.2,0.4,0.5,0.8,0.7,1.2c0.2,0.4,0.5,0.8,0.7,1.2c0.2,0.4,0.5,0.7,0.7,1c0.3,0.3,0.6,0.6,0.9,0.7c0.3,0.2,0.7,0.3,1.2,0.3h0.5
				v1.2h-0.2c-0.4,0-0.7,0-1-0.1c-0.3,0-0.6-0.1-0.8-0.2h0c-0.4-0.1-0.7-0.3-1-0.6c-0.3-0.3-0.6-0.6-0.9-1c-0.1,0.3-0.3,0.6-0.5,0.8
				c-0.2,0.2-0.4,0.4-0.7,0.6c-0.3,0.2-0.6,0.3-0.9,0.3c-0.3,0.1-0.7,0.1-1,0.1h-2.7V1114.3z M1650.6,1101.7l-6.2,2.6l0.1-0.8
				l5.8-2.4L1650.6,1101.7z"/>
			<path class="st2" d="M1652.4,1114.3h1.5c0.3,0,0.6,0,1,0c0.3,0,0.6-0.1,0.9-0.1c0.3-0.1,0.5-0.2,0.8-0.3c0.2-0.1,0.4-0.3,0.5-0.5
				c0.1-0.1,0.1-0.3,0.1-0.5c0-0.1,0-0.1,0-0.2c0-0.2,0-0.3,0-0.6c0-0.2-0.1-0.4-0.2-0.7c-0.1-0.3-0.2-0.5-0.2-0.8
				c-0.1-0.3-0.2-0.5-0.3-0.8c-0.1-0.2-0.2-0.5-0.3-0.7l1.1-0.6c0.1,0.2,0.2,0.5,0.3,0.8c0.1,0.3,0.2,0.6,0.3,0.9
				c0.1,0.3,0.2,0.6,0.3,0.9c0.1,0.3,0.1,0.6,0.2,0.9c0,0.2,0,0.3,0,0.5c0,0.1,0,0.3,0,0.5c0,0.2-0.1,0.4-0.2,0.7
				c-0.2,0.3-0.4,0.6-0.6,0.8c-0.3,0.2-0.6,0.4-0.9,0.5c-0.3,0.1-0.7,0.2-1.1,0.3c-0.4,0.1-0.9,0.1-1.3,0.1h-1.8V1114.3z
				 M1655.3,1118.3l-1.2,1.2l-1.2-1.2l1.2-1.2L1655.3,1118.3z M1658.1,1118.3l-1.1,1.2l-1.2-1.2l1.2-1.2L1658.1,1118.3z"/>
			<path class="st2" d="M1660.7,1115.5c0.1-0.9,0.1-1.7,0.1-2.4c0-0.8,0-1.5,0-2.2c0-1,0-1.9-0.1-2.7c0-0.8-0.1-1.6-0.1-2.2
				c0-0.6-0.1-1.1-0.1-1.6c0-0.4-0.1-0.7-0.1-0.9l1.2-0.2c0,0.2,0.1,0.5,0.1,0.8c0,0.3,0.1,0.6,0.1,0.9c0,0.3,0,0.7,0.1,1
				c0,0.3,0,0.7,0.1,1c0,0.3,0,0.6,0,0.8c0,0.2,0,0.4,0,0.6c0,0.4,0,0.8,0,1.2c0,0.4,0,0.8,0,1.3c0,0.7,0,1.5,0,2.2
				c0,0.8-0.1,1.6-0.1,2.5L1660.7,1115.5z"/>
			<path class="st2" d="M1667.3,1110.8c0.1,0.3,0.2,0.6,0.3,0.9c0.1,0.3,0.2,0.7,0.3,1.1c0.1,0.4,0.2,0.8,0.2,1.1
				c0.1,0.4,0.1,0.7,0.1,1.1c0,0.4-0.1,0.9-0.2,1.3c-0.1,0.4-0.3,0.8-0.5,1.2c-0.2,0.4-0.5,0.8-0.8,1.1c-0.3,0.4-0.7,0.7-1,1
				c-0.4,0.3-0.8,0.6-1.2,0.9c-0.4,0.3-0.8,0.5-1.3,0.7l-0.5-1.1c0.6-0.3,1.1-0.6,1.6-1c0.5-0.4,1-0.8,1.4-1.2
				c0.4-0.4,0.7-0.9,1-1.4c0.2-0.5,0.4-1,0.4-1.5c0-0.3,0-0.6-0.1-0.9c-0.1-0.3-0.1-0.7-0.2-1c-0.1-0.3-0.2-0.7-0.3-1
				c-0.1-0.3-0.2-0.7-0.3-1L1667.3,1110.8z"/>
			<path class="st2" d="M1677.8,1113.1c-0.1,0.3-0.2,0.5-0.3,0.8c-0.1,0.2-0.2,0.5-0.2,0.7c-0.1,0.3-0.1,0.5-0.2,0.8
				c0,0.2,0,0.5,0,0.8c0,0.1,0,0.1,0,0.2c0,0.5,0.1,0.9,0.3,1.3c0.2,0.4,0.4,0.7,0.7,1c0.3,0.3,0.7,0.5,1,0.6
				c0.4,0.1,0.8,0.2,1.3,0.2c0.3,0,0.6,0,0.8-0.1c0.3-0.1,0.6-0.2,0.9-0.3s0.5-0.3,0.8-0.5c0.3-0.2,0.5-0.4,0.7-0.7
				c0.2-0.3,0.3-0.6,0.5-0.9c0.1-0.4,0.2-0.8,0.2-1.2c0-0.4,0-0.8,0-1.4c0-0.5,0-1.1,0-1.7c0-0.6,0-1.2-0.1-1.8c0-0.6,0-1.3-0.1-1.9
				c0-0.6-0.1-1.2-0.1-1.8c0-0.6,0-1.1-0.1-1.6c0-0.5,0-0.9-0.1-1.2c0-0.3,0-0.6,0-0.7c0.2,0,0.4,0,0.6,0c0.2,0,0.4,0,0.6,0
				c0,0.8,0.1,1.5,0.1,2.2c0,0.7,0.1,1.5,0.1,2.2c0,0.7,0,1.5,0.1,2.2c0,0.7,0.1,1.4,0.1,2.2c0,0.3,0.1,0.6,0.2,0.8s0.2,0.4,0.4,0.6
				c0.2,0.1,0.3,0.2,0.5,0.3c0.2,0.1,0.4,0.1,0.6,0.1h0.2v1.2h-0.2c-0.2,0-0.4,0-0.6-0.1c-0.2,0-0.3-0.1-0.5-0.1
				c-0.1,0-0.2-0.1-0.3-0.2c-0.1-0.1-0.1-0.1-0.2-0.1c0,0.1,0,0.3,0,0.4c0,0.1,0,0.2,0,0.3c0,0.6-0.1,1.2-0.2,1.7
				c-0.2,0.5-0.4,0.9-0.6,1.3c-0.3,0.4-0.5,0.7-0.9,0.9c-0.3,0.3-0.7,0.5-1.1,0.6c-0.4,0.2-0.7,0.3-1.1,0.3
				c-0.4,0.1-0.7,0.1-1.1,0.1c-0.3,0-0.7,0-1-0.1c-0.4-0.1-0.7-0.2-1-0.3s-0.7-0.3-1-0.6c-0.3-0.2-0.6-0.5-0.8-0.8
				c-0.2-0.3-0.4-0.7-0.6-1.1c-0.1-0.4-0.2-0.9-0.2-1.4c0-0.4,0-0.9,0.1-1.3c0.1-0.4,0.1-0.8,0.2-1.1c0.1-0.3,0.2-0.6,0.3-0.9
				s0.2-0.4,0.2-0.5L1677.8,1113.1z"/>
			<path class="st2" d="M1686.8,1114.3h1.5c0.3,0,0.6,0,1,0c0.3,0,0.6-0.1,0.9-0.1c0.3-0.1,0.5-0.2,0.8-0.3c0.2-0.1,0.4-0.3,0.5-0.5
				c0.1-0.1,0.1-0.3,0.1-0.5c0-0.1,0-0.1,0-0.2c0-0.2,0-0.3,0-0.6c0-0.2-0.1-0.4-0.2-0.7c-0.1-0.3-0.2-0.5-0.2-0.8
				c-0.1-0.3-0.2-0.5-0.3-0.8c-0.1-0.2-0.2-0.5-0.3-0.7l1.1-0.6c0.1,0.2,0.2,0.5,0.3,0.8c0.1,0.3,0.2,0.6,0.3,0.9
				c0.1,0.3,0.2,0.6,0.3,0.9c0.1,0.3,0.1,0.6,0.2,0.9c0,0.2,0,0.3,0,0.5c0,0.1,0,0.3,0,0.5c0,0.2-0.1,0.4-0.2,0.7
				c-0.2,0.3-0.4,0.6-0.6,0.8c-0.3,0.2-0.6,0.4-0.9,0.5c-0.3,0.1-0.7,0.2-1.1,0.3c-0.4,0.1-0.9,0.1-1.3,0.1h-1.8V1114.3z
				 M1689.6,1118.3l-1.2,1.2l-1.2-1.2l1.2-1.2L1689.6,1118.3z M1692.5,1118.3l-1.1,1.2l-1.2-1.2l1.2-1.2L1692.5,1118.3z"/>
			<path class="st2" d="M1694.4,1119.9c0.8-0.2,1.5-0.4,2.2-0.7c0.6-0.3,1.2-0.7,1.7-1c0.5-0.4,0.8-0.8,1.1-1.2
				c0.3-0.4,0.4-0.9,0.5-1.3c-0.2,0-0.3,0-0.5,0c-0.2,0-0.5,0-0.9,0c-0.3,0-0.7,0-1-0.1s-0.7-0.2-1-0.3c-0.3-0.1-0.5-0.3-0.8-0.5
				c-0.2-0.2-0.4-0.5-0.5-0.7c-0.1-0.3-0.2-0.6-0.2-1.1c0-0.3,0-0.5,0.1-0.8c0.1-0.3,0.1-0.6,0.2-0.8c0.1-0.3,0.2-0.5,0.4-0.8
				c0.1-0.3,0.3-0.5,0.5-0.7c0.2-0.2,0.4-0.3,0.6-0.5c0.2-0.1,0.5-0.2,0.8-0.2c0.4,0,0.7,0.1,1,0.2c0.3,0.2,0.6,0.4,0.8,0.6
				s0.5,0.6,0.6,0.9c0.2,0.3,0.3,0.7,0.5,1.1c0.1,0.4,0.2,0.8,0.3,1.2c0.1,0.4,0.1,0.8,0.1,1.1h0.9v1.2h-1c-0.1,0.5-0.2,1-0.4,1.4
				c-0.2,0.5-0.5,0.9-0.7,1.3c-0.3,0.4-0.6,0.7-1,1c-0.4,0.3-0.8,0.6-1.2,0.8c-0.4,0.2-0.9,0.4-1.4,0.6c-0.5,0.2-1,0.3-1.5,0.4
				L1694.4,1119.9z M1697.7,1110.4c-0.2,0-0.4,0.1-0.6,0.2c-0.2,0.2-0.4,0.4-0.5,0.6c-0.2,0.2-0.3,0.5-0.4,0.8
				c-0.1,0.3-0.1,0.6-0.1,0.8c0,0.3,0.1,0.5,0.2,0.6c0.1,0.2,0.3,0.3,0.5,0.4c0.2,0.1,0.4,0.2,0.7,0.2c0.3,0,0.5,0.1,0.8,0.1
				c0.3,0,0.5,0,0.8,0s0.5,0,0.7,0c0-0.2,0-0.5-0.1-0.8c0-0.3-0.1-0.6-0.2-0.9c-0.1-0.3-0.2-0.6-0.3-0.8c-0.1-0.3-0.3-0.5-0.4-0.7
				c-0.2-0.2-0.3-0.4-0.5-0.5C1698.1,1110.5,1697.9,1110.4,1697.7,1110.4z"/>
			<path class="st2" d="M1701.7,1114.3h1.6c0.7,0,1.4-0.1,2.1-0.2c0.7-0.1,1.3-0.3,1.9-0.5c0.6-0.2,1.2-0.5,1.8-0.7
				c0.6-0.3,1.2-0.6,1.7-0.8l0.5-0.2c-0.2-0.1-0.5-0.2-0.8-0.3c-0.3-0.1-0.6-0.3-0.8-0.4c-0.3-0.1-0.6-0.3-0.9-0.4
				c-0.3-0.1-0.6-0.3-0.9-0.4c-0.3-0.1-0.6-0.2-0.9-0.3c-0.3-0.1-0.5-0.1-0.8-0.1c-0.3,0-0.6,0.1-0.8,0.2c-0.3,0.2-0.5,0.3-0.7,0.5
				c-0.2,0.2-0.4,0.4-0.5,0.6c-0.1,0.2-0.2,0.4-0.3,0.5l-1-0.7c0.2-0.3,0.4-0.6,0.6-0.9c0.2-0.3,0.5-0.6,0.7-0.8
				c0.3-0.2,0.6-0.4,0.9-0.6c0.3-0.1,0.7-0.2,1.1-0.2c0.4,0,0.7,0,1.1,0.2c0.4,0.1,0.7,0.2,1.1,0.4c0.4,0.2,0.7,0.3,1.1,0.5
				c0.4,0.2,0.7,0.4,1.1,0.6c0.4,0.2,0.7,0.3,1.1,0.5c0.4,0.2,0.7,0.3,1.1,0.3c0,0.1,0,0.2,0.1,0.3c0,0.1,0,0.2,0.1,0.3
				c0,0.1,0,0.2,0.1,0.3c0,0.1,0,0.2,0.1,0.3c-0.1,0-0.2,0.1-0.2,0.1c0,0-0.1,0-0.2,0.1c-0.1,0-0.1,0.1-0.2,0.1
				c-0.1,0-0.2,0.1-0.4,0.2c0.1,0.2,0.2,0.4,0.3,0.6c0.1,0.2,0.3,0.3,0.5,0.4c0.2,0.1,0.4,0.2,0.6,0.3c0.2,0.1,0.4,0.1,0.6,0.2
				c0.2,0,0.4,0.1,0.5,0.1c0.2,0,0.3,0,0.4,0h0.3v1.2h-0.3c-0.5,0-1,0-1.4-0.1c-0.4-0.1-0.8-0.2-1.2-0.4c-0.3-0.2-0.6-0.4-0.9-0.7
				c-0.2-0.3-0.4-0.6-0.6-0.9c-0.6,0.3-1.1,0.6-1.7,0.8c-0.6,0.3-1.2,0.5-1.8,0.7c-0.6,0.2-1.3,0.4-2,0.5c-0.7,0.1-1.4,0.2-2.1,0.2
				h-1.6V1114.3z"/>
			<path class="st2" d="M1714.9,1114.3h1.5c0.3,0,0.6,0,1,0c0.3,0,0.6-0.1,0.9-0.1c0.3-0.1,0.5-0.2,0.8-0.3c0.2-0.1,0.4-0.3,0.5-0.5
				c0.1-0.1,0.1-0.3,0.1-0.5c0-0.1,0-0.1,0-0.2c0-0.2,0-0.3,0-0.6c0-0.2-0.1-0.4-0.2-0.7c-0.1-0.3-0.2-0.5-0.2-0.8
				c-0.1-0.3-0.2-0.5-0.3-0.8c-0.1-0.2-0.2-0.5-0.3-0.7l1.1-0.6c0.1,0.2,0.2,0.5,0.3,0.8c0.1,0.3,0.2,0.6,0.3,0.9
				c0.1,0.3,0.2,0.6,0.3,0.9c0.1,0.3,0.1,0.6,0.2,0.9c0,0.2,0,0.3,0,0.5c0,0.1,0,0.3,0,0.5c0,0.2-0.1,0.4-0.2,0.7
				c-0.2,0.3-0.4,0.6-0.6,0.8c-0.3,0.2-0.6,0.4-0.9,0.5c-0.3,0.1-0.7,0.2-1.1,0.3c-0.4,0.1-0.9,0.1-1.3,0.1h-1.8V1114.3z
				 M1718.4,1105.7l-1.2,1.2l-1.2-1.2l1.2-1.2L1718.4,1105.7z M1721.2,1105.7l-1.1,1.2l-1.2-1.2l1.2-1.2L1721.2,1105.7z"/>
		</g>
		<g>
			<path class="st2" d="M1009.4,1115.3c-0.7,0.2-1.4,0.3-2,0.3c-0.9,0-1.7-0.2-2.3-0.6c-0.6-0.4-0.9-1-0.9-1.7
				c0-0.8,0.4-1.6,1.2-2.2c0.8-0.6,1.8-1.2,3.1-1.6l-0.1-1.1l1.1-0.2c0.2,2.2,0.4,3.8,0.5,4.8c0.1,0.6,0.2,1.1,0.3,1.4
				c0.1,0.3,0.3,0.6,0.6,0.7c0.3,0.1,0.6,0.2,1.1,0.2h0.2l0.1,0.6l-0.1,0.6h-0.2C1010.7,1116.6,1009.9,1116.1,1009.4,1115.3z
				 M1005.8,1113.9c0.4,0.2,0.9,0.4,1.5,0.4c0.5,0,1.1-0.1,1.7-0.3c0-0.2-0.1-0.5-0.1-0.9l-0.3-2.5c-0.9,0.3-1.7,0.7-2.3,1.1
				c-0.6,0.4-0.9,0.8-1,1.2C1005.2,1113.4,1005.4,1113.7,1005.8,1113.9z"/>
			<path class="st2" d="M1011.9,1115.3h0.1c1,0,1.7,0,2.2-0.1s0.9-0.2,1.2-0.4c0.3-0.2,0.4-0.4,0.6-0.7c0.1-0.2,0.1-0.5,0.1-1
				c0-0.5-0.1-1.2-0.2-2l1.1-0.2c0.1,0.5,0.2,1.1,0.2,1.7c0,0.6,0,1,0,1.3c0.1,0.5,0.3,0.8,0.6,1.1c0.3,0.2,0.7,0.4,1.2,0.4h0.2
				l0.1,0.6l-0.1,0.6h-0.2c-0.5,0-1-0.1-1.4-0.4c-0.4-0.2-0.7-0.6-0.9-1c-0.3,0.5-0.8,0.9-1.5,1.1c-0.7,0.2-1.8,0.3-3.2,0.3h-0.1
				V1115.3z M1013.6,1107.1l1.2,1.1l-1.2,1.1l-0.4-0.4l-0.8-0.8L1013.6,1107.1z M1016.3,1107.5l0.4-0.4l1.1,1.1l-0.4,0.4l-0.8,0.8
				l-1.1-1.1L1016.3,1107.5z"/>
			<path class="st2" d="M1019,1115.3h0.2c1.1,0,2,0,2.8-0.1c-0.4-0.3-0.8-0.7-1-1.1c-0.2-0.4-0.4-0.9-0.4-1.5c0-0.6,0.1-1.1,0.4-1.6
				c0.3-0.5,0.7-0.9,1.2-1.2c0.5-0.3,1-0.5,1.6-0.6c0.1,0,0.2,0,0.3,0c1,0,1.9,0.4,2.9,1.2l-0.5,0.9c-0.8-0.5-1.5-0.8-2.3-0.8
				c-0.5,0-0.9,0.1-1.3,0.3s-0.7,0.5-0.9,0.8c-0.2,0.3-0.3,0.7-0.3,1.1c0,0.4,0.1,0.8,0.4,1.2c0.3,0.4,0.7,0.7,1.2,0.9
				s1,0.3,1.6,0.3c1-0.2,1.9-0.4,2.6-0.7l0.3,1.1c-1,0.4-2.2,0.7-3.5,0.9s-3.1,0.3-5.3,0.3h-0.2V1115.3z"/>
			<path class="st2" d="M1031.3,1116.1c-0.5-0.3-0.8-0.7-1-1.3c-0.2-0.6-0.2-1.4-0.2-2.4c0-1.1,0-2.6-0.1-4.4
				c-0.1-1.8-0.1-3-0.2-3.6l1.1-0.2c0.1,0.5,0.2,1.6,0.2,3.2c0.1,1.6,0.1,3,0.1,4.2v0.7c0,0.2,0,0.4,0,0.8c0,0.6,0.1,1,0.2,1.3
				c0.1,0.3,0.3,0.5,0.6,0.7c0.3,0.1,0.7,0.2,1.3,0.2h0.1l0.1,0.6l-0.1,0.6h-0.1C1032.5,1116.6,1031.8,1116.4,1031.3,1116.1z"/>
			<path class="st2" d="M1041.9,1116c-0.4-0.4-0.6-0.9-0.7-1.5c-0.3,0.6-0.6,1.1-1.1,1.5c-0.5,0.4-1,0.6-1.5,0.6h0
				c-0.6,0-1.1-0.2-1.4-0.5c-0.4-0.4-0.6-0.8-0.6-1.4c-0.4,0.6-0.8,1.1-1.4,1.5c-0.5,0.3-1.1,0.5-1.8,0.5h-0.1l-0.1-0.6l0.1-0.6h0.1
				c0.5,0,0.9-0.1,1.3-0.3c0.4-0.2,0.7-0.5,1-0.9c0.2-0.3,0.4-0.7,0.5-1c0.1-0.4,0.3-0.8,0.4-1.3l1.1,0.1c-0.1,0.5-0.2,0.9-0.3,1.2
				c-0.1,0.3-0.1,0.6-0.1,1c0,0.9,0.4,1.4,1.2,1.4h0c0.7,0,1.3-0.5,1.9-1.4c0.2-0.3,0.3-0.6,0.4-1c0.1-0.4,0.2-0.9,0.3-1.5l1.1,0.1
				l-0.1,0.4c-0.1,0.6-0.2,1.1-0.2,1.5c0,0.6,0.1,1.1,0.4,1.4c0.2,0.3,0.6,0.5,1.2,0.5c0.5,0,0.9-0.1,1.1-0.4
				c0.3-0.3,0.4-0.7,0.4-1.2c0-0.4-0.1-1-0.3-1.8c-0.2-0.7-0.4-1.3-0.6-1.7l1-0.5c0.2,0.5,0.5,1.2,0.7,2c0.2,0.8,0.3,1.5,0.3,2.1
				c0,0.9-0.2,1.6-0.7,2.1c-0.5,0.6-1.1,0.8-1.8,0.9h-0.1h0C1042.8,1116.6,1042.3,1116.4,1041.9,1116z"/>
			<path class="st2" d="M1055.1,1115.8c0-1,0-2-0.1-3.1c-0.1-1.1-0.1-2-0.2-2.8c-0.1-1-0.3-1.9-0.5-2.7c-0.2-0.8-0.5-1.6-0.8-2.3
				l1.2-0.7c0.2,0.4,0.4,0.9,0.5,1.4c0.2,0.6,0.4,1.1,0.6,1.4c0.2,0.3,0.4,0.6,0.7,0.8c0.3,0.2,0.7,0.3,1.2,0.3
				c1.4,0,2.1-0.9,2.1-2.7c0-0.4,0-0.8-0.1-1.1l1.1-0.2c0.1,0.4,0.1,0.9,0.1,1.4c0,1.1-0.3,2.1-0.8,2.8c-0.5,0.7-1.3,1.1-2.3,1.1
				c-0.8,0-1.4-0.2-1.9-0.6c0,0.2,0.1,0.5,0.1,0.9c0.2,1.6,0.3,3.6,0.3,6.1v0.6h-1.2V1115.8z"/>
			<path class="st2" d="M1064.6,1115.8c0-1,0-2-0.1-3.1c-0.1-1.1-0.1-2-0.2-2.8c-0.1-1-0.3-1.9-0.5-2.7c-0.2-0.8-0.5-1.6-0.8-2.3
				l1.2-0.7c0.3,0.6,0.5,1.2,0.7,2c0.3,1.1,0.8,1.9,1.5,2.5c-0.1-0.2-0.1-0.5-0.2-0.7c0-0.6,0.1-1.2,0.4-1.8s0.7-1,1.2-1.4
				c0.5-0.4,1.2-0.5,1.8-0.5c0.9,0,1.9,0.4,2.9,1.2l-0.5,1c-0.3-0.2-0.7-0.4-1.1-0.6c-0.4-0.2-0.8-0.2-1.2-0.2
				c-0.4,0-0.9,0.1-1.2,0.3c-0.4,0.2-0.7,0.4-0.9,0.8c-0.2,0.3-0.3,0.7-0.3,1c0,0.6,0.2,1,0.6,1.4c0.4,0.4,1,0.6,1.7,0.6
				c0.9,0,1.8-0.3,2.9-0.9l0.4,1.2c-0.5,0.3-1,0.5-1.7,0.7c-0.6,0.2-1.3,0.3-1.9,0.3c-1.5,0-2.8-0.5-3.8-1.5l0,0.3
				c0.2,1.6,0.3,3.6,0.3,6.1v0.6h-1.2V1115.8z"/>
			<path class="st2" d="M1082.1,1121c-0.8-0.4-1.4-1-1.9-1.7c-0.5-0.7-0.7-1.6-0.7-2.6c0-0.7,0.1-1.5,0.4-2.3
				c0.2-0.8,0.5-1.5,0.8-2.2l1,0.5c-0.7,1.5-1,2.8-1,3.9c0,1.2,0.4,2.1,1.1,2.8c0.7,0.6,1.8,1,3.1,1c0.8,0,1.5-0.1,2.2-0.3
				c0.7-0.2,1.2-0.4,1.7-0.7c0.4-0.3,0.7-0.6,0.7-0.8c0-0.3-0.5-0.6-1.2-1.1c-0.8-0.5-1.6-1-2.6-1.4l0.3-1.2
				c1.8,0.4,3.3,0.6,4.6,0.6l0.5,0l0.1,0.6l-0.1,0.6h-0.5c-0.6,0-1.2,0-1.7-0.1c1.2,0.7,1.8,1.4,1.7,2c0,0.5-0.3,1-0.8,1.5
				s-1.2,0.9-2.1,1.2c-0.9,0.3-1.8,0.4-2.8,0.4C1083.8,1121.6,1082.9,1121.4,1082.1,1121z"/>
			<path class="st2" d="M1090.6,1115.3h0.9c1,0,1.8-0.1,2.2-0.4c0.5-0.3,0.7-0.7,0.7-1.3c0-0.4-0.1-1-0.4-1.7
				c-0.2-0.7-0.4-1.3-0.6-1.7l1-0.5c0.2,0.5,0.5,1.1,0.7,2c0.2,0.8,0.4,1.5,0.4,2.1c0,1-0.4,1.7-1.1,2.2c-0.7,0.5-1.7,0.8-3,0.8
				h-0.9V1115.3z M1093.1,1106.3l0.4-0.4l0.8,0.8l0.4,0.4l-0.4,0.4l-0.8,0.8l-1.1-1.1L1093.1,1106.3z"/>
			<path class="st2" d="M1099.1,1116.1c-0.5-0.3-0.8-0.7-1-1.3c-0.2-0.6-0.2-1.4-0.2-2.4c0-1.1,0-2.6-0.1-4.4
				c-0.1-1.8-0.1-3-0.2-3.6l1.1-0.2c0.1,0.5,0.2,1.6,0.2,3.2c0.1,1.6,0.1,3,0.1,4.2v0.7c0,0.2,0,0.4,0,0.8c0,0.6,0.1,1,0.2,1.3
				c0.1,0.3,0.3,0.5,0.6,0.7c0.3,0.1,0.7,0.2,1.3,0.2h0.1l0.1,0.6l-0.1,0.6h-0.1C1100.2,1116.6,1099.6,1116.4,1099.1,1116.1z"/>
			<path class="st2" d="M1101,1115.3h0.1c0.9,0,1.5-0.1,2-0.3c0.5-0.2,0.8-0.5,1-0.9c0.1-0.2,0.1-0.5,0.1-1c0-0.5-0.1-1.2-0.2-2
				l1.1-0.2c0.1,0.5,0.2,1.1,0.2,1.7c0,0.6,0,1,0,1.3c0.1,0.5,0.3,0.8,0.6,1.1s0.7,0.4,1.2,0.4h0.2l0.1,0.6l-0.1,0.6h-0.2
				c-0.5,0-1-0.1-1.4-0.4s-0.7-0.6-0.9-1.1c-0.3,0.5-0.7,0.9-1.3,1.1c-0.6,0.2-1.4,0.3-2.4,0.3h-0.1V1115.3z M1101.8,1118.8l0.4-0.4
				l0.8,0.8l0.4,0.4l-0.4,0.4l-0.8,0.8l-1.1-1.1L1101.8,1118.8z"/>
			<path class="st2" d="M1106.7,1119.1l0.8-0.8l1.1,1.1l-0.8,0.8l-0.4,0.4l-1.1-1.1L1106.7,1119.1z M1107.2,1115.3h0.1
				c1,0,1.7,0,2.2-0.1c0.5-0.1,0.9-0.2,1.2-0.4c0.3-0.2,0.4-0.4,0.6-0.7c0.1-0.2,0.1-0.5,0.1-1c0-0.5-0.1-1.2-0.2-2l1.1-0.2
				c0.1,0.5,0.2,1.1,0.2,1.7c0,0.6,0,1,0,1.3c0.1,0.5,0.3,0.8,0.6,1.1c0.3,0.2,0.7,0.4,1.2,0.4h0.2l0.1,0.6l-0.1,0.6h-0.2
				c-0.5,0-1-0.1-1.4-0.4c-0.4-0.2-0.7-0.6-0.9-1c-0.3,0.5-0.8,0.9-1.5,1.1c-0.7,0.2-1.8,0.3-3.2,0.3h-0.1V1115.3z M1110.5,1120.7
				l-1.2-1.1l1.2-1.1l0.4,0.4l0.8,0.8L1110.5,1120.7z"/>
			<path class="st2" d="M1120.1,1116.2c-0.4-0.2-0.8-0.6-1-1c-0.4,0.5-0.9,0.8-1.7,1.1c-0.7,0.2-1.7,0.3-3,0.3h-0.1v-1.3h0.1
				c1.3,0,2.3-0.1,3-0.3c0.7-0.2,1.1-0.6,1.3-1.1l-0.3-1.2c0-0.1-0.1-0.3-0.1-0.6c0-0.2-0.1-0.5-0.2-0.9l1-0.3
				c0.4,1.6,0.6,2.6,0.7,3.1c0.3,0.9,0.8,1.3,1.7,1.3h0.1l0.1,0.6l-0.1,0.6h-0.1C1121,1116.6,1120.5,1116.5,1120.1,1116.2z
				 M1116.4,1107.1l1.2,1.1l-1.2,1.1l-0.4-0.4l-0.8-0.8L1116.4,1107.1z M1119,1107.4l0.4-0.4l1.1,1.1l-0.4,0.4l-0.8,0.8l-1.1-1.1
				L1119,1107.4z"/>
			<path class="st2" d="M1134.8,1116.3c-0.4-0.2-0.7-0.5-1-0.9c-0.2,0.4-0.6,0.6-0.9,0.8s-0.8,0.3-1.2,0.3h-0.1h0
				c-0.6,0-1.2-0.2-1.5-0.6c-0.4-0.4-0.6-0.9-0.7-1.5c-0.3,0.6-0.6,1.1-1.1,1.5c-0.5,0.4-1,0.6-1.5,0.6h0c-0.6,0-1.1-0.2-1.4-0.5
				c-0.4-0.4-0.6-0.8-0.6-1.4c-0.4,0.6-0.8,1.1-1.4,1.5c-0.5,0.3-1.1,0.5-1.8,0.5h-0.1l-0.1-0.6l0.1-0.6h0.1c0.5,0,0.9-0.1,1.3-0.3
				c0.4-0.2,0.7-0.5,1-0.9c0.2-0.3,0.4-0.7,0.5-1c0.1-0.4,0.3-0.8,0.4-1.3l1.1,0.1c-0.1,0.5-0.2,0.9-0.3,1.2c-0.1,0.3-0.1,0.6-0.1,1
				c0,0.9,0.4,1.4,1.2,1.4h0c0.7,0,1.3-0.5,1.9-1.4c0.2-0.3,0.3-0.6,0.4-1c0.1-0.4,0.2-0.9,0.3-1.5l1.1,0.1l-0.1,0.4
				c-0.1,0.6-0.2,1.1-0.2,1.5c0,0.6,0.1,1.1,0.4,1.4c0.2,0.3,0.6,0.5,1.2,0.5c0.4,0,0.7-0.1,1-0.3c0.3-0.2,0.6-0.4,0.7-0.6
				c-0.1-0.5-0.4-1.5-0.6-3l1.1-0.3c0.3,1.5,0.5,2.5,0.6,2.9c0.1,0.4,0.3,0.7,0.6,0.9c0.3,0.2,0.6,0.3,1.1,0.3h0.1l0.1,0.6l-0.1,0.6
				h-0.1C1135.7,1116.6,1135.2,1116.5,1134.8,1116.3z M1128.3,1107.3l0.4,0.4c0.2,0.3,0.5,0.5,0.7,0.7l-0.4,0.4l-0.7,0.7
				c-0.2-0.3-0.5-0.5-0.7-0.7l-0.4-0.4L1128.3,1107.3z M1130,1105.5l1,1l-1,1l-1-1L1130,1105.5z M1131.2,1107.7l0.4-0.4l1.1,1.1
				l-1.1,1.1l-1.1-1.1C1130.7,1108.2,1130.9,1107.9,1131.2,1107.7z"/>
			<path class="st2" d="M1136.1,1118l1.1,1.1c-0.3,0.2-0.5,0.5-0.7,0.7l-0.4,0.4l-1.1-1.1L1136.1,1118z M1136,1115.3h0.7
				c1.3,0,2.3-0.1,2.9-0.4c0.6-0.3,0.9-0.7,0.9-1.3c0-0.4-0.1-1-0.3-1.7c-0.2-0.8-0.4-1.3-0.6-1.8l1-0.5c0.2,0.5,0.5,1.1,0.7,1.9
				c0.2,0.8,0.4,1.5,0.4,2c0,2.1-1.6,3.1-4.7,3.1h-0.8V1115.3z M1137.7,1120l1,1l-1,1l-1-1L1137.7,1120z M1139.4,1120.2l-0.4-0.4
				c-0.2-0.3-0.5-0.5-0.7-0.7l0.4-0.4l0.7-0.7c0.2,0.3,0.5,0.5,0.7,0.7l0.4,0.4L1139.4,1120.2z"/>
		</g>
	</g>
</g>
<g>
	<g>
		<path class="st2" d="M566.5,15.6c-2.4,0-4.3,1.9-4.3,4.3s1.9,4.3,4.3,4.3s4.3-1.9,4.3-4.3S568.9,15.6,566.5,15.6z"/>
	</g>
	<g>
		<path class="st2" d="M15.9,15.6c-2.4,0-4.3,1.9-4.3,4.3s1.9,4.3,4.3,4.3c2.4,0,4.3-1.9,4.3-4.3S18.3,15.6,15.9,15.6z"/>
	</g>
	<g>
		<circle class="st2" cx="1087.4" cy="19.9" r="4.3"/>
	</g>
	<g>
		<path class="st2" d="M253.4,15.6c-2.4,0-4.3,1.9-4.3,4.3s1.9,4.3,4.3,4.3s4.3-1.9,4.3-4.3S255.8,15.6,253.4,15.6z"/>
	</g>
</g>
</svg>
