<?xml version="1.0" encoding="utf-8"?>
<!-- Generator: Adobe Illustrator 24.3.0, SVG Export Plug-In . SVG Version: 6.00 Build 0)  -->
<svg version="1.1" id="Layer_1" xmlns="http://www.w3.org/2000/svg" xmlns:xlink="http://www.w3.org/1999/xlink" x="0px" y="0px"
	 viewBox="0 0 650 70" style="enable-background:new 0 0 650 70;" xml:space="preserve">
<style type="text/css">
	.st0{fill:none;}
	.st1{enable-background:new    ;}
	.st2{fill:#CCCCCC;}
</style>
<g id="backgroundrect">
	<rect class="st0" width="650" height="70"/>
</g>
<g>
	<g class="st1">
		<path class="st2" d="M48.8,20.2c2.7,1.4,4.8,3.4,6.3,6s2.2,5.5,2.2,8.9c0,0.9-0.1,1.9-0.2,2.9c-0.5,3.8-1.8,6.8-3.8,9
			c-2,2.1-4.6,3.2-7.6,3.2c-2.6,0-4.6-0.8-6-2.4c-0.2-0.1-0.3-0.1-0.4,0.1c-0.6,0.9-1.3,1.4-2.2,1.8c-0.9,0.3-1.7,0.5-2.5,0.5
			c-2.1,0-3.7-0.6-4.8-1.9c-1.1-1.2-1.7-2.7-1.7-4.5c0-0.8,0.1-1.9,0.3-3.1l0.2-1.5c0.1-1.3,0.3-2.5,0.5-3.5
			c0.4-2.4,1.1-4.1,2.2-5.2c1.1-1.1,2.6-1.7,4.6-1.7c0.5,0,1,0.1,1.6,0.3s1.1,0.5,1.5,1c0.3,0.2,0.4,0.2,0.4-0.1v-0.2
			c0-0.4,0.3-0.6,0.8-0.6h4.1c0.5,0,0.7,0.3,0.6,0.8l-1.3,10.2c0,0.3-0.1,0.6-0.1,1.1c0,1.2,0.3,2.1,0.8,2.8c0.6,0.6,1.3,1,2.1,1
			c1.3,0,2.3-0.7,3.1-2s1.4-3,1.6-5.1c0.1-0.8,0.2-1.6,0.2-2.3c0-2.5-0.5-4.6-1.6-6.5c-1-1.9-2.5-3.3-4.4-4.3s-4-1.5-6.4-1.5
			c-2.7,0-5.2,0.7-7.6,2.1s-4.3,3.4-5.9,5.9s-2.5,5.3-2.9,8.5c-0.1,0.9-0.2,1.8-0.2,2.6c0,2.7,0.6,5.1,1.7,7c1.1,2,2.6,3.4,4.4,4.4
			s3.7,1.5,5.7,1.5c2.6,0,5-0.8,7.2-2.3c0.2-0.1,0.3-0.2,0.4-0.2c0.2,0,0.4,0.1,0.5,0.3l1.9,3.2c0.1,0.1,0.1,0.2,0.1,0.4
			s-0.1,0.4-0.3,0.6c-3.2,2.1-6.8,3.2-10.8,3.2c-3.1,0-5.9-0.7-8.4-2.1c-2.5-1.4-4.5-3.5-6-6.1c-1.5-2.7-2.2-5.8-2.2-9.3
			c0-1.2,0.1-2.3,0.2-3.3c0.5-4.1,1.8-7.8,4-11s4.9-5.8,8.1-7.6c3.3-1.8,6.8-2.7,10.5-2.7C43.1,18.1,46.1,18.8,48.8,20.2z M37,45
			c0.4-0.4,0.7-1,0.8-1.7l0.5-3.7c0.1-1.3,0.3-2.5,0.5-3.5c0.1-0.7,0-1.3-0.3-1.7s-0.8-0.7-1.4-0.7c-0.6,0-1.2,0.2-1.6,0.7
			c-0.4,0.4-0.7,1-0.8,1.7c-0.3,2-0.4,3.3-0.5,3.7l-0.5,3.5c-0.1,0.7,0,1.3,0.4,1.7c0.3,0.4,0.8,0.6,1.4,0.6
			C36.1,45.6,36.6,45.4,37,45z"/>
		<path class="st2" d="M82.2,15.7c0.1-0.1,0.3-0.2,0.5-0.2h6.8c0.2,0,0.4,0.1,0.5,0.2c0.1,0.1,0.2,0.3,0.2,0.5v39.2
			c0,0.2-0.1,0.4-0.2,0.5s-0.3,0.2-0.5,0.2h-6.8c-0.2,0-0.4-0.1-0.5-0.2C82,55.8,82,55.6,82,55.4V39.6c0-0.2-0.1-0.3-0.3-0.3h-5.8
			c-0.2,0-0.3,0.1-0.3,0.3v15.8c0,0.2-0.1,0.4-0.2,0.5s-0.3,0.2-0.5,0.2h-6.8c-0.2,0-0.4-0.1-0.5-0.2c-0.1-0.1-0.2-0.3-0.2-0.5V16.2
			c0-0.2,0.1-0.4,0.2-0.5s0.3-0.2,0.5-0.2h6.8c0.2,0,0.4,0.1,0.5,0.2c0.1,0.1,0.2,0.3,0.2,0.5V32c0,0.2,0.1,0.3,0.3,0.3h5.8
			c0.2,0,0.3-0.1,0.3-0.3V16.2C82,16,82,15.8,82.2,15.7z"/>
		<path class="st2" d="M108.3,55.8c-0.1-0.1-0.2-0.3-0.2-0.5v-15L108,40l-8-23.7c0-0.1-0.1-0.2-0.1-0.3c0-0.3,0.2-0.5,0.6-0.5h7.1
			c0.4,0,0.7,0.2,0.8,0.6L112,30c0,0.1,0.1,0.2,0.2,0.2s0.1-0.1,0.2-0.2l3.6-13.9c0.1-0.4,0.4-0.6,0.8-0.6h7.1
			c0.2,0,0.4,0.1,0.5,0.2c0.1,0.1,0.1,0.3,0.1,0.6l-8.2,23.6l-0.1,0.3v15.1c0,0.2-0.1,0.4-0.2,0.5s-0.3,0.2-0.5,0.2h-6.8
			C108.6,56,108.5,56,108.3,55.8z"/>
		<path class="st2" d="M151.9,17c1.7,1,2.9,2.5,3.9,4.4c0.9,1.9,1.4,4,1.4,6.4c0,3.6-1,6.5-2.9,8.6c-1.9,2.2-4.5,3.2-7.6,3.2h-4.4
			c-0.2,0-0.3,0.1-0.3,0.3v15.4c0,0.2-0.1,0.4-0.2,0.5c-0.1,0.1-0.3,0.2-0.5,0.2h-6.8c-0.2,0-0.4-0.1-0.5-0.2
			c-0.1-0.1-0.2-0.3-0.2-0.5V16.1c0-0.2,0.1-0.4,0.2-0.5c0.1-0.1,0.3-0.2,0.5-0.2h11.7C148.4,15.4,150.3,16,151.9,17z M147.8,31.9
			c0.8-0.9,1.1-2.3,1.1-3.9c0-1.7-0.4-3-1.1-4c-0.8-1-1.8-1.5-3-1.5h-2.6c-0.2,0-0.3,0.1-0.3,0.3V33c0,0.2,0.1,0.3,0.3,0.3h2.6
			C146.1,33.3,147.1,32.8,147.8,31.9z"/>
		<path class="st2" d="M187.7,22.3c-0.1,0.1-0.3,0.2-0.5,0.2h-12.1c-0.2,0-0.3,0.1-0.3,0.3V32c0,0.2,0.1,0.3,0.3,0.3h7
			c0.2,0,0.4,0.1,0.5,0.2c0.1,0.1,0.2,0.3,0.2,0.5v5.6c0,0.2-0.1,0.4-0.2,0.5c-0.1,0.1-0.3,0.2-0.5,0.2h-7c-0.2,0-0.3,0.1-0.3,0.3
			v9.2c0,0.2,0.1,0.3,0.3,0.3h12.1c0.2,0,0.4,0.1,0.5,0.2c0.1,0.1,0.2,0.3,0.2,0.5v5.6c0,0.2-0.1,0.4-0.2,0.5
			c-0.1,0.1-0.3,0.2-0.5,0.2h-19.9c-0.2,0-0.4-0.1-0.5-0.2c-0.1-0.1-0.2-0.3-0.2-0.5V16.2c0-0.2,0.1-0.4,0.2-0.5
			c0.1-0.1,0.3-0.2,0.5-0.2h19.9c0.2,0,0.4,0.1,0.5,0.2c0.1,0.1,0.2,0.3,0.2,0.5v5.6C187.9,22,187.9,22.2,187.7,22.3z"/>
		<path class="st2" d="M202.4,55.2c-1.7-0.9-3-2.1-3.9-3.7c-0.9-1.6-1.4-3.5-1.4-5.5v-1.7c0-0.2,0.1-0.4,0.2-0.5
			c0.1-0.1,0.3-0.2,0.5-0.2h6.7c0.2,0,0.4,0.1,0.5,0.2c0.1,0.1,0.2,0.3,0.2,0.5v1.3c0,1.2,0.3,2.2,0.9,2.9c0.6,0.7,1.4,1.1,2.3,1.1
			c0.9,0,1.7-0.3,2.3-1s0.9-1.6,0.9-2.7c0-1.2-0.4-2.2-1.2-3s-2.3-2.1-4.5-3.7c-1.9-1.4-3.5-2.6-4.7-3.7c-1.2-1.1-2.2-2.4-3.1-4
			c-0.9-1.6-1.3-3.4-1.3-5.5c0-3.3,1-5.9,3.1-7.9c2-2,4.8-3,8.1-3c3.4,0,6.1,1,8.2,3.1c2.1,2,3.1,4.7,3.1,8.1v1.4
			c0,0.2-0.1,0.4-0.2,0.5c-0.1,0.1-0.3,0.2-0.5,0.2H212c-0.2,0-0.4-0.1-0.5-0.2s-0.2-0.3-0.2-0.5V26c0-1.2-0.3-2.2-0.9-2.9
			c-0.6-0.7-1.4-1.1-2.3-1.1c-0.9,0-1.7,0.3-2.3,1s-0.9,1.6-0.9,2.8c0,1.2,0.4,2.2,1.1,3.1c0.7,0.9,2.2,2.1,4.4,3.7
			c2.4,1.8,4.2,3.2,5.4,4.3s2.2,2.3,2.8,3.7c0.7,1.3,1,2.9,1,4.8c0,3.4-1,6.1-3.1,8.1s-4.8,3-8.2,3
			C206.1,56.6,204.1,56.1,202.4,55.2z"/>
		<path class="st2" d="M252.1,15.7c0.1,0.1,0.2,0.3,0.2,0.5v5.6c0,0.2-0.1,0.4-0.2,0.5c-0.1,0.1-0.3,0.2-0.5,0.2h-7.2
			c-0.2,0-0.3,0.1-0.3,0.3v32.6c0,0.2-0.1,0.4-0.2,0.5c-0.1,0.1-0.3,0.2-0.5,0.2h-6.8c-0.2,0-0.4-0.1-0.5-0.2
			c-0.1-0.1-0.2-0.3-0.2-0.5V22.8c0-0.2-0.1-0.3-0.3-0.3h-7c-0.2,0-0.4-0.1-0.5-0.2s-0.2-0.3-0.2-0.5v-5.6c0-0.2,0.1-0.4,0.2-0.5
			c0.1-0.1,0.3-0.2,0.5-0.2h23C251.8,15.5,251.9,15.6,252.1,15.7z"/>
		<path class="st2" d="M269.3,55.8c-0.1-0.1-0.2-0.3-0.2-0.5v-15L269,40l-8.1-23.6c0-0.1-0.1-0.2-0.1-0.3c0-0.3,0.2-0.5,0.6-0.5h7.1
			c0.4,0,0.7,0.2,0.8,0.6l3.6,13.9c0,0.1,0.1,0.2,0.2,0.2s0.1-0.1,0.2-0.2l3.6-13.9c0.1-0.4,0.4-0.6,0.8-0.6h7.1
			c0.2,0,0.4,0.1,0.5,0.2c0.1,0.1,0.1,0.3,0.1,0.6L277.2,40l-0.1,0.3v15.1c0,0.2-0.1,0.4-0.2,0.5s-0.3,0.2-0.5,0.2h-6.8
			C269.6,56,269.4,56,269.3,55.8z"/>
		<path class="st2" d="M295.3,55.9c-0.1-0.1-0.2-0.3-0.2-0.5V16.2c0-0.2,0.1-0.4,0.2-0.5s0.3-0.2,0.5-0.2h6.8c0.2,0,0.4,0.1,0.5,0.2
			c0.1,0.1,0.2,0.3,0.2,0.5v32.6c0,0.2,0.1,0.3,0.3,0.3h12.2c0.2,0,0.4,0.1,0.5,0.2c0.1,0.1,0.2,0.3,0.2,0.5v5.6
			c0,0.2-0.1,0.4-0.2,0.5s-0.3,0.2-0.5,0.2h-20C295.6,56.1,295.5,56,295.3,55.9z"/>
		<path class="st2" d="M346.7,22.3c-0.1,0.1-0.3,0.2-0.5,0.2h-12.1c-0.2,0-0.3,0.1-0.3,0.3V32c0,0.2,0.1,0.3,0.3,0.3h7
			c0.2,0,0.4,0.1,0.5,0.2c0.1,0.1,0.2,0.3,0.2,0.5v5.6c0,0.2-0.1,0.4-0.2,0.5s-0.3,0.2-0.5,0.2h-7c-0.2,0-0.3,0.1-0.3,0.3v9.2
			c0,0.2,0.1,0.3,0.3,0.3h12.1c0.2,0,0.4,0.1,0.5,0.2c0.1,0.1,0.2,0.3,0.2,0.5v5.6c0,0.2-0.1,0.4-0.2,0.5s-0.3,0.2-0.5,0.2h-19.9
			c-0.2,0-0.4-0.1-0.5-0.2c-0.1-0.1-0.2-0.3-0.2-0.5V16.2c0-0.2,0.1-0.4,0.2-0.5s0.3-0.2,0.5-0.2h19.9c0.2,0,0.4,0.1,0.5,0.2
			c0.1,0.1,0.2,0.3,0.2,0.5v5.6C346.9,22,346.8,22.2,346.7,22.3z"/>
		<path class="st2" d="M355.3,55.9c-0.1-0.1-0.2-0.3-0.2-0.5v-4.8c0-0.2,0.1-0.4,0.2-0.5s0.3-0.2,0.5-0.2h21.4
			c0.2,0,0.4,0.1,0.5,0.2c0.1,0.1,0.2,0.3,0.2,0.5v4.8c0,0.2-0.1,0.4-0.2,0.5s-0.3,0.2-0.5,0.2h-21.4
			C355.6,56.1,355.4,56,355.3,55.9z"/>
		<path class="st2" d="M389.6,53.5c-2.1-2.1-3.2-4.8-3.2-8.3V26.3c0-3.4,1.1-6.2,3.2-8.2s4.9-3.1,8.4-3.1s6.3,1,8.4,3.1
			c2.1,2,3.2,4.8,3.2,8.2V27c0,0.2-0.1,0.4-0.2,0.5s-0.3,0.2-0.5,0.2l-6.8,0.3c-0.5,0-0.7-0.2-0.7-0.6v-1.5c0-1.1-0.3-2-0.9-2.7
			s-1.4-1-2.5-1c-1,0-1.8,0.3-2.4,1s-0.9,1.6-0.9,2.7v20c0,1.1,0.3,2,0.9,2.7s1.4,1,2.4,1s1.9-0.3,2.5-1s0.9-1.6,0.9-2.7v-1.6
			c0-0.2,0.1-0.4,0.2-0.5s0.3-0.2,0.5-0.2l6.8,0.3c0.2,0,0.4,0.1,0.5,0.2c0.1,0.1,0.2,0.3,0.2,0.5v0.6c0,3.5-1.1,6.3-3.2,8.3
			s-4.9,3.1-8.4,3.1S391.7,55.5,389.6,53.5z"/>
		<path class="st2" d="M420,55.9c-0.1-0.1-0.2-0.3-0.2-0.5V16.2c0-0.2,0.1-0.4,0.2-0.5s0.3-0.2,0.5-0.2h6.8c0.2,0,0.4,0.1,0.5,0.2
			c0.1,0.1,0.2,0.3,0.2,0.5v32.6c0,0.2,0.1,0.3,0.3,0.3h12.2c0.2,0,0.4,0.1,0.5,0.2c0.1,0.1,0.2,0.3,0.2,0.5v5.6
			c0,0.2-0.1,0.4-0.2,0.5s-0.3,0.2-0.5,0.2h-20C420.3,56.1,420.1,56,420,55.9z"/>
		<path class="st2" d="M452.6,53.4c-2.1-2.1-3.2-4.9-3.2-8.4V26.5c0-3.5,1.1-6.3,3.2-8.4s5-3.1,8.5-3.1s6.4,1,8.6,3.1
			c2.1,2.1,3.2,4.9,3.2,8.4v18.6c0,3.5-1.1,6.3-3.2,8.4c-2.1,2.1-5,3.1-8.6,3.1S454.8,55.5,452.6,53.4z M463.8,48.4
			c0.7-0.8,1-1.7,1-3V26.2c0-1.2-0.3-2.2-1-3s-1.5-1.1-2.6-1.1s-1.9,0.4-2.6,1.1c-0.6,0.8-1,1.8-1,3v19.3c0,1.2,0.3,2.2,1,3
			c0.6,0.8,1.5,1.1,2.6,1.1C462.3,49.5,463.1,49.2,463.8,48.4z"/>
		<path class="st2" d="M506.3,15.7c0.1,0.1,0.2,0.3,0.2,0.5v5.6c0,0.2-0.1,0.4-0.2,0.5s-0.3,0.2-0.5,0.2h-7.2
			c-0.2,0-0.3,0.1-0.3,0.3v32.6c0,0.2-0.1,0.4-0.2,0.5s-0.3,0.2-0.5,0.2h-6.8c-0.2,0-0.4-0.1-0.5-0.2c-0.1-0.1-0.2-0.3-0.2-0.5V22.8
			c0-0.2-0.1-0.3-0.3-0.3h-7c-0.2,0-0.4-0.1-0.5-0.2s-0.2-0.3-0.2-0.5v-5.6c0-0.2,0.1-0.4,0.2-0.5s0.3-0.2,0.5-0.2h23
			C506,15.5,506.1,15.6,506.3,15.7z"/>
		<path class="st2" d="M531,15.7c0.1-0.1,0.3-0.2,0.5-0.2h6.8c0.2,0,0.4,0.1,0.5,0.2c0.1,0.1,0.2,0.3,0.2,0.5v39.2
			c0,0.2-0.1,0.4-0.2,0.5c-0.1,0.1-0.3,0.2-0.5,0.2h-6.8c-0.2,0-0.4-0.1-0.5-0.2c-0.1-0.1-0.2-0.3-0.2-0.5V39.6
			c0-0.2-0.1-0.3-0.3-0.3h-5.8c-0.2,0-0.3,0.1-0.3,0.3v15.8c0,0.2-0.1,0.4-0.2,0.5c-0.1,0.1-0.3,0.2-0.5,0.2h-6.8
			c-0.2,0-0.4-0.1-0.5-0.2c-0.1-0.1-0.2-0.3-0.2-0.5V16.2c0-0.2,0.1-0.4,0.2-0.5c0.1-0.1,0.3-0.2,0.5-0.2h6.8c0.2,0,0.4,0.1,0.5,0.2
			c0.1,0.1,0.2,0.3,0.2,0.5V32c0,0.2,0.1,0.3,0.3,0.3h5.8c0.2,0,0.3-0.1,0.3-0.3V16.2C530.8,16,530.8,15.8,531,15.7z"/>
		<path class="st2" d="M550.1,55.9c-0.1-0.1-0.2-0.3-0.2-0.5V16.2c0-0.2,0.1-0.4,0.2-0.5c0.1-0.1,0.3-0.2,0.5-0.2h6.8
			c0.2,0,0.4,0.1,0.5,0.2c0.1,0.1,0.2,0.3,0.2,0.5v39.2c0,0.2-0.1,0.4-0.2,0.5c-0.1,0.1-0.3,0.2-0.5,0.2h-6.8
			C550.4,56.1,550.2,56,550.1,55.9z"/>
		<path class="st2" d="M585.8,15.7c0.1-0.1,0.3-0.2,0.5-0.2h6.7c0.2,0,0.4,0.1,0.5,0.2c0.1,0.1,0.2,0.3,0.2,0.5v39.2
			c0,0.2-0.1,0.4-0.2,0.5c-0.1,0.1-0.3,0.2-0.5,0.2h-7.7c-0.4,0-0.6-0.2-0.8-0.6l-7.2-22.4c0-0.1-0.1-0.2-0.2-0.1s-0.1,0.1-0.1,0.2
			l0.1,22.3c0,0.2-0.1,0.4-0.2,0.5c-0.1,0.1-0.3,0.2-0.5,0.2h-6.7c-0.2,0-0.4-0.1-0.5-0.2c-0.1-0.1-0.2-0.3-0.2-0.5V16.2
			c0-0.2,0.1-0.4,0.2-0.5c0.1-0.1,0.3-0.2,0.5-0.2h7.6c0.4,0,0.6,0.2,0.8,0.6l7.2,22.4c0,0.1,0.1,0.2,0.2,0.1c0.1,0,0.1-0.1,0.1-0.2
			l-0.1-22.3C585.6,16,585.7,15.8,585.8,15.7z"/>
		<path class="st2" d="M607.2,53.6c-2.1-2-3.2-4.6-3.2-8V26c0-3.3,1.1-6,3.2-8c2.1-2,4.9-3,8.4-3s6.3,1,8.4,3c2.1,2,3.2,4.7,3.2,8
			v2.2c0,0.2-0.1,0.4-0.2,0.5c-0.1,0.1-0.3,0.2-0.5,0.2h-6.8c-0.2,0-0.4-0.1-0.5-0.2s-0.2-0.3-0.2-0.5v-2.3c0-1.2-0.3-2.1-0.9-2.8
			s-1.4-1.1-2.5-1.1c-1,0-1.8,0.4-2.4,1.1c-0.6,0.7-0.9,1.7-0.9,2.8v19.7c0,1.2,0.3,2.1,0.9,2.8c0.6,0.7,1.4,1.1,2.4,1.1
			s1.9-0.4,2.5-1.1c0.6-0.7,0.9-1.7,0.9-2.8V41c0-0.2-0.1-0.3-0.3-0.3h-2.6c-0.2,0-0.4-0.1-0.5-0.2c-0.1-0.1-0.2-0.3-0.2-0.5v-5.2
			c0-0.2,0.1-0.4,0.2-0.5c0.1-0.1,0.3-0.2,0.5-0.2h10.3c0.2,0,0.4,0.1,0.5,0.2c0.1,0.1,0.2,0.3,0.2,0.5v10.7c0,3.3-1.1,6-3.2,8
			c-2.1,2-4.9,3-8.4,3C612.1,56.6,609.3,55.6,607.2,53.6z"/>
	</g>
</g>
</svg>
