<?xml version="1.0" encoding="utf-8"?>
<!-- Generator: Adobe Illustrator 24.3.0, SVG Export Plug-In . SVG Version: 6.00 Build 0)  -->
<svg version="1.1" id="Layer_1" xmlns:xodm="http://www.corel.com/coreldraw/odm/2003"
	 xmlns="http://www.w3.org/2000/svg" xmlns:xlink="http://www.w3.org/1999/xlink" x="0px" y="0px" viewBox="0 0 256 54"
	 style="enable-background:new 0 0 256 54;" xml:space="preserve">
<style type="text/css">
	.st0{display:none;fill-rule:evenodd;clip-rule:evenodd;}
</style>
<rect class="st0" width="612" height="792"/>
<g id="Layer_x0020_1">
	<path d="M8.3,44.7V10.3H17v12.8h26.6V10.3h8.7v34.4h-8.7V31.9H17v12.8H8.3z M57.7,44.7V10.3h44v8.8H66.5v4.1h35.3V32H66.5v4.1h35.3
		v8.8L57.7,44.7L57.7,44.7z M107.2,44.7V10.3h9.8l23,23.1V10.3h8.7v34.4h-9.8l-23-23.1v23.1H107.2L107.2,44.7z M189.3,20.9
		c0-0.5-0.1-1-0.4-1.4c-0.2-0.3-0.3-0.4-0.5-0.4h-25.7v7.2h25.7c0.1,0,0.3-0.1,0.5-0.4c0.3-0.4,0.4-0.9,0.4-1.4
		C189.3,24.3,189.3,23.2,189.3,20.9L189.3,20.9z M182.8,35h-20v9.7H154V10.3h38.7c1.6,0,2.9,0.8,4,2.4c0.9,1.4,1.4,3.2,1.4,5.2v9.5
		c0,2-0.5,3.8-1.4,5.2c-1,1.6-2.4,2.4-4,2.4h-0.6l6.3,9.7H189L182.8,35L182.8,35z M237.9,35.9c0.1,0,0.3-0.1,0.5-0.4
		c0.3-0.4,0.4-1,0.4-1.6V21.1c0-0.6-0.1-1.2-0.4-1.6c-0.2-0.3-0.3-0.4-0.5-0.4H213c-0.1,0-0.3,0.1-0.5,0.4c-0.3,0.4-0.4,1-0.4,1.6
		v12.8c0,0.6,0.1,1.2,0.4,1.6c0.2,0.3,0.3,0.4,0.5,0.4H237.9z M208.8,44.7c-1.6,0-2.9-0.8-3.9-2.4c-0.9-1.4-1.4-3.2-1.4-5.2V17.9
		c0-2,0.5-3.8,1.4-5.2c1-1.6,2.4-2.4,3.9-2.4h33.3c1.6,0,2.9,0.8,4,2.4c0.9,1.4,1.4,3.2,1.4,5.2v19.2c0,2-0.5,3.8-1.4,5.2
		c-1,1.6-2.4,2.4-4,2.4H208.8L208.8,44.7z"/>
</g>
</svg>
